<svg width="349" height="349" viewBox="0 0 349 349" fill="none" xmlns="http://www.w3.org/2000/svg">
<rect width="349" height="349" rx="81" fill="#121212"/>
<path d="M223.483 219.771C223.483 228.484 221.887 235.859 218.695 241.897C215.59 247.85 211.665 252.723 206.92 256.519C202.262 260.228 197.173 262.903 191.652 264.542C186.131 266.181 180.998 267 176.254 267H68.3389V233.357H176.254C180.826 233.357 184.19 232.193 186.347 229.864C188.59 227.535 189.711 224.17 189.711 219.771V191.175H68.3389V157.273H189.711V128.936C189.711 119.706 185.225 115.091 176.254 115.091H68.3389V81.4482H176.254C182.034 81.4482 187.209 82.1815 191.781 83.6479C196.353 85.1144 200.364 87.0985 203.815 89.6001C207.352 92.0155 210.371 94.819 212.873 98.0107C215.374 101.202 217.401 104.567 218.954 108.104C220.507 111.554 221.628 115.091 222.318 118.714C223.095 122.251 223.483 125.572 223.483 128.677V219.771Z" fill="#E4E4E4"/>
<rect x="242" y="80" width="42" height="32" rx="16" fill="#E4E4E4"/>
<path d="M242 131.5H284V254.5C284 261.127 278.627 266.5 272 266.5H254C247.373 266.5 242 261.127 242 254.5V131.5Z" fill="#E4E4E4"/>
</svg>
