<?xml version="1.0" encoding="UTF-8"?>
<svg xmlns="http://www.w3.org/2000/svg" width="81" height="56" viewBox="0 0 81 56" fill="none">
  <path d="M41.5069 22.3636C41.5069 22.3636 46.276 22.0951 48.1711 21.2612L46.8494 24.9868L42.2342 25.4249V39.6996C42.2342 39.8621 42.5139 39.8904 42.5559 39.6996C43.1544 37.6995 44.1708 35.8525 45.5365 34.2835C46.9021 32.7145 48.5851 31.46 50.4717 30.6048V20.7114C50.4717 16.111 47.318 13.03 43.0453 12.2314L43.2691 10.8746H42.2342L43.2202 4.33092C43.2221 4.17843 43.1644 4.03134 43.0597 3.92154C42.9549 3.81174 42.8116 3.74809 42.6607 3.74438H38.7587C38.6843 3.73555 38.6088 3.74174 38.5368 3.76261C38.4647 3.78347 38.3974 3.81858 38.3389 3.86591C38.2803 3.91324 38.2317 3.97184 38.1957 4.03832C38.1597 4.1048 38.1372 4.17783 38.1294 4.25318V4.32385L39.0874 10.8252H38.0525L38.2692 12.182C34.0106 13.0088 30.8499 16.0898 30.8499 20.662V30.5553C32.7437 31.4208 34.4306 32.6888 35.7955 34.273C37.1604 35.8571 38.1711 37.7201 38.7587 39.7349C38.8007 39.8904 39.0874 39.8621 39.0874 39.7349V25.4249L34.4721 24.9868L33.1435 21.2542C35.0455 22.0951 39.8147 22.3566 39.8147 22.3566" fill="url(#paint0_linear_2471_34)"></path>
  <path d="M56.6875 4.03004L56.2459 3.74016C54.5918 2.69858 52.8043 1.88981 50.9331 1.33628C46.8609 0.0636319 41.6532 0 40.6509 0H40.3285C39.3192 0 34.1185 0.0636319 30.0393 1.33628C28.1703 1.88991 26.3852 2.69869 24.7334 3.74016L24.2849 4.03004L23.9344 22.3491C23.9344 22.3491 23.8012 25.9902 28.0767 29.0587C28.4622 29.3415 28.8758 29.6314 29.3033 29.9213V27.4467L29.2613 27.4538C26.0792 25.163 25.974 22.6955 25.967 22.5046L26.2965 5.21077C27.6721 4.40794 29.138 3.77418 30.6631 3.32302C34.4619 2.13522 39.4033 2.07158 40.3565 2.07158H40.6789C41.6322 2.07158 46.5665 2.13522 50.3654 3.32302C51.8878 3.76894 53.3515 4.39799 54.725 5.19664L55.0544 22.448C55.0544 22.6602 54.9212 25.1277 51.8863 27.3972V29.8718C52.2438 29.6243 52.5872 29.384 52.9307 29.1648C56.8347 26.3367 57.066 23.1409 57.066 22.5046L56.6875 4.03004Z" fill="#BB9D62"></path>
  <path d="M5.6381 56V46.8536H2.25363C1.95607 46.8625 1.65994 46.8084 1.38422 46.695C1.1085 46.5815 0.85927 46.4112 0.652479 46.1947C0.440199 45.9843 0.272834 45.7322 0.160702 45.4539C0.0485706 45.1756 -0.00594975 44.8771 0.000514385 44.5767H13.5575C13.5633 44.8787 13.5065 45.1787 13.391 45.4573C13.2754 45.7359 13.1036 45.9871 12.8864 46.1947C12.6787 46.4072 12.4306 46.575 12.1571 46.6882C11.8836 46.8014 11.5904 46.8577 11.2949 46.8536H7.95832V56H5.6381Z" fill="#BB9D62"></path>
  <path d="M18.0772 44.5767H15.8176V56H18.0772V44.5767Z" fill="#BB9D62"></path>
  <path d="M25.8988 56V46.8536H22.5694C22.2744 46.8626 21.9808 46.8087 21.7072 46.6953C21.4337 46.5819 21.1861 46.4114 20.9803 46.1947C20.7727 45.983 20.6087 45.7306 20.4982 45.4526C20.3877 45.1747 20.333 44.8768 20.3371 44.5767H33.721C33.7185 45.1814 33.4823 45.7606 33.0639 46.1873C32.6455 46.614 32.0792 46.8536 31.4888 46.8536H28.1499V56H25.8988Z" fill="#BB9D62"></path>
  <path d="M38.2328 46.8536C37.9354 46.8625 37.6395 46.8084 37.364 46.695C37.0885 46.5815 36.8394 46.4112 36.6327 46.1947C36.4206 45.9843 36.2534 45.7322 36.1413 45.4539C36.0292 45.1756 35.9748 44.8771 35.9812 44.5767H49.5387C49.5336 45.1806 49.2935 45.7583 48.8702 46.1845C48.447 46.6107 47.8748 46.8511 47.2775 46.8536H38.2328ZM35.9812 56V49.1596H49.5387V56H47.2775V51.4268H38.2328V56H35.9812Z" fill="#BB9D62"></path>
  <path d="M54.0321 56V46.8536L51.7983 44.5767H55.1396L62.958 52.5701V44.5767H65.1824V56H62.958L56.266 49.1596V56H54.0321Z" fill="#BB9D62"></path>
  <path d="M67.6165 56C67.6092 55.7007 67.6626 55.403 67.7736 55.1259C67.8845 54.8488 68.0505 54.5983 68.261 54.3903C68.4677 54.1727 68.7154 54.0004 68.9891 53.8837C69.2628 53.767 69.5568 53.7084 69.8533 53.7115H78.7912V51.4229H67.6165V44.5767H80.9996C81.0052 44.879 80.9492 45.1792 80.8349 45.458C80.7207 45.7369 80.5508 45.9883 80.3361 46.1961C80.1309 46.4096 79.8859 46.5787 79.6157 46.6937C79.3454 46.8086 79.0554 46.8669 78.7627 46.8652H69.8344V49.1538H80.9996V56H67.6165Z" fill="#BB9D62"></path>
  <defs>
    <linearGradient id="paint0_linear_2471_34" x1="30.6512" y1="21.7908" x2="50.6724" y2="21.7908" gradientUnits="userSpaceOnUse">
      <stop stop-color="#B8BABC"></stop>
      <stop offset="0.56" stop-color="#E2E3E4"></stop>
      <stop offset="1" stop-color="white"></stop>
    </linearGradient>
  </defs>
</svg>
