<svg width="438" height="79" viewBox="0 0 438 79" fill="none" xmlns="http://www.w3.org/2000/svg">
<path fill-rule="evenodd" clip-rule="evenodd" d="M330.5 16.5V23H346C354.525 23 361.5 23.093 361.5 23.207C361.5 23.321 357.67 32.353 352.988 43.2785C348.306 54.2035 344.604 63.2705 344.761 63.4275C345.111 63.7775 349.648 65.52 349.801 65.363C349.987 65.171 370 17.983 370 17.734C370 17.6055 362.462 17.5 353.25 17.5H336.5V13.75V10H333.5H330.5V16.5ZM134.25 16.585C129.971 17.395 125.045 20.115 121.58 23.58C108.006 37.154 113.901 59.686 132.466 65.194C136.292 66.3295 142.615 66.241 146.648 64.9955C155.675 62.207 162.806 53.7475 163.975 44.4395C166.112 27.417 151.14 13.3875 134.25 16.585ZM418.376 18.618C417.159 20.0655 412.838 25.272 408.773 30.1885L401.384 39.1265L389.943 27.6925L378.5 16.258V40.629V65H381.5H384.5V47.8775V30.7555L402.138 48.388L419.776 66.021L421.638 64.1145C422.662 63.066 423.5 61.9945 423.5 61.734C423.5 61.473 419.471 57.2075 414.547 52.255L405.595 43.25L415.307 31.5925C420.649 25.181 424.899 19.7415 424.753 19.504C424.606 19.267 423.61 18.3785 422.538 17.5295L420.589 15.9865L418.376 18.618ZM40.5 41.25V65H63.25H86V41.25V17.5H63.25H40.5V41.25ZM99 30V42.5H101.75H104.5V30V17.5H101.75H99V30ZM173.5 30V42.5H176.5H179.5V30V17.5H176.5H173.5V30ZM195.5 38.237V58.974L187.875 59.112L180.25 59.25L180.1 62.125L179.95 65H190.805H201.66L201.331 54.125C201.15 48.1435 201.002 37.456 201.001 30.375L201 17.5H198.25H195.5V38.237ZM235.5 20.25V23H248.5H261.5V44V65H264.5H267.5V44V23H272H276.5V20.25V17.5H256H235.5V20.25ZM288.5 38.233V58.966L283.125 59.108L277.75 59.25L277.6 62.125L277.45 65H299.225H321V41.25V17.5H318H315V38.25V59H304.75H294.5V38.25V17.5H291.5H288.5V38.233ZM147.243 23.72C152.985 26.5385 156.871 31.792 158.099 38.394C158.763 41.966 157.748 47.296 155.755 50.6965C149.318 61.68 134.744 63.6655 125.85 54.771C118.472 47.394 118.171 36.127 125.138 28.212C129.026 23.795 133.455 21.95 139.75 22.125C143.565 22.231 144.705 22.4735 147.243 23.72ZM80 41V59H63.25H46.5V41V23H63.25H80V41Z" fill="black"/>
</svg>
