<svg width="337" height="357" viewBox="0 0 337 357" fill="none" xmlns="http://www.w3.org/2000/svg">
<path fill-rule="evenodd" clip-rule="evenodd" d="M0.683601 0.666992C-0.576399 1.92599 0.0175899 23.743 1.55059 32.533C5.38659 54.53 17.5856 72.081 35.7306 81.707C50.8866 89.747 45.7796 89.324 135.517 89.965L215.517 90.536L222.517 92.864C235.882 97.308 247.466 105.502 255.507 116.199C260.124 122.34 265.017 130.95 265.017 132.932C265.017 133.587 229.423 134.036 161.267 134.239C66.4986 134.522 56.9976 134.698 51.5166 136.277C38.0906 140.145 26.9896 146.872 18.2456 156.44C9.0606 166.489 3.30459 179.181 0.959587 194.549C-0.149413 201.822 -0.0634103 203.556 1.85659 212.549C4.12759 223.183 9.74859 235.942 14.8136 241.956L17.7236 245.411L22.8416 240.934C29.4516 235.152 37.3336 230.406 45.7746 227.126L52.5166 224.506L133.017 223.936C220.024 223.319 216.753 223.525 229.629 217.859C245.766 210.757 260.675 194.623 265.999 178.5C269.757 167.117 270.277 147.074 267.035 138.547C266.475 137.075 266.017 135.449 266.017 134.935C266.017 134.421 269.57 134 273.912 134C296.444 134 319.888 118.594 330.133 97.055C345.56 64.622 333.76 27.302 302.585 9.92801C294.72 5.54501 289.118 3.613 278.017 1.457C271.678 0.226001 249.69 0 135.934 0C61.9126 0 1.0496 0.299992 0.683601 0.666992ZM14.8986 249.281C7.9366 258.007 2.96959 270.296 0.962592 283.765C-0.0544075 290.586 0.0545999 292.682 1.8796 301.5C7.3026 327.7 23.6786 345.702 49.9406 354.334C59.4846 357.471 79.5346 357.445 89.5166 354.282C109.044 348.095 125.143 332.357 132.257 312.5C134.569 306.048 135.998 293.4 136.009 279.311L136.017 268.122L95.2666 267.797C55.3646 267.479 54.3816 267.423 48.0166 265.113C37.8556 261.427 30.0876 256.957 23.9216 251.25C20.8016 248.362 18.0846 246 17.8826 246C17.6816 246 16.3386 247.476 14.8986 249.281Z" fill="#1F1F1F"/>
</svg>
