<svg width="1042" height="357" viewBox="0 0 1042 357" fill="none" xmlns="http://www.w3.org/2000/svg">
<path fill-rule="evenodd" clip-rule="evenodd" d="M0.683601 0.666992C-0.576399 1.92599 0.0175899 23.743 1.55059 32.533C5.38659 54.53 17.5856 72.081 35.7306 81.707C50.8866 89.747 45.7796 89.324 135.517 89.965L215.517 90.536L222.517 92.864C235.882 97.308 247.466 105.502 255.507 116.199C260.124 122.34 265.017 130.95 265.017 132.932C265.017 133.587 229.423 134.036 161.267 134.239C66.4986 134.522 56.9976 134.698 51.5166 136.277C38.0906 140.145 26.9896 146.872 18.2456 156.44C9.0606 166.489 3.30459 179.181 0.959587 194.549C-0.149413 201.822 -0.0634103 203.556 1.85659 212.549C4.12759 223.183 9.74859 235.942 14.8136 241.956L17.7236 245.411L22.8416 240.934C29.4516 235.152 37.3336 230.406 45.7746 227.126L52.5166 224.506L133.017 223.936C220.024 223.319 216.753 223.525 229.629 217.859C245.766 210.757 260.675 194.623 265.999 178.5C269.757 167.117 270.277 147.074 267.035 138.547C266.475 137.075 266.017 135.449 266.017 134.935C266.017 134.421 269.57 134 273.912 134C296.444 134 319.888 118.594 330.133 97.055C345.56 64.622 333.76 27.302 302.585 9.92801C294.72 5.54501 289.118 3.613 278.017 1.457C271.678 0.226001 249.69 0 135.934 0C61.9126 0 1.0496 0.299992 0.683601 0.666992ZM413.469 111.396C400.886 114.453 389.216 122.34 383.044 131.958C377.312 140.89 375.062 149.097 375.038 161.156L375.017 171.813L364.929 172.156C355.309 172.484 354.729 172.63 352.429 175.306C350.23 177.864 350.017 178.988 350.017 188.056V198H362.517H375.017L375.015 246.75L375.014 295.5L388.75 295.193C399.618 294.95 402.854 294.552 404.251 293.288C405.891 291.804 406.017 288.347 406.017 244.845V198H421.89H437.763L438.302 226.75C439.013 264.68 440.323 269.621 452.961 282.066C460.98 289.962 468.348 293.286 483.251 295.733C491.227 297.042 494.486 297.155 499.501 296.296C508.364 294.777 517.01 290.604 522.134 285.37L526.517 280.893L527.017 286.697L527.517 292.5L539.281 292.782C550.657 293.054 551.126 292.982 553.531 290.577L556.017 288.091V230.045V172H540.594H525.17L524.77 208.25C524.409 240.895 524.171 245.154 522.375 251.078C519.783 259.629 516.095 264.325 509.402 267.6C501.819 271.31 493.176 271.291 485.524 267.547C479.281 264.493 475.838 260.526 472.734 252.809C470.717 247.794 470.578 245.48 470.233 211C470.014 189.209 469.475 174.097 468.893 173.5C468.308 172.899 455.681 172.301 437.218 172L406.517 171.5L406.859 163.5C407.234 154.749 409.274 148.851 413.16 145.284C415.859 142.806 423.019 140 426.643 140H429.017V125V110L423.767 110.085C420.879 110.132 416.245 110.722 413.469 111.396ZM701.513 124.863C694.038 128.259 689.763 137.628 691.962 145.795C696.32 161.98 718.514 163.867 725.597 148.655C728.312 142.824 728.412 141.963 726.973 136.781C724.881 129.248 716.771 123.044 709.017 123.044C707.092 123.044 703.715 123.862 701.513 124.863ZM792.316 169.033C770.067 173.039 750.674 189.567 742.183 211.758C739.882 217.771 739.599 219.959 739.56 232C739.511 247.483 740.636 252.055 747.31 263.5C762.403 289.38 791.945 301.692 821.891 294.583C833.411 291.849 843.958 285.901 852.59 277.27C878.763 251.101 876.153 205.472 847.182 182.71C840.418 177.396 831.772 172.853 824.017 170.537C817.438 168.572 799.579 167.725 792.316 169.033ZM938.017 168.856C932.817 169.981 923.454 174.509 917.909 178.579L913.017 182.17V177.085V172H898.517H884.017V232.5V293H899.434H914.851L915.221 255.25C915.57 219.73 915.716 217.193 917.686 212.308C921.499 202.857 926.513 198.365 936.489 195.465C941.317 194.062 943.224 193.966 947.862 194.898C957.727 196.879 963.303 202.155 967.15 213.149C969.254 219.163 969.395 221.452 969.804 256.25L970.235 293H985.626H1001.02V252.562C1001.02 219.529 1000.73 210.897 999.463 205.421C995.605 188.788 985.756 177.98 968.491 171.435C963.057 169.376 959.309 168.715 951.517 168.445C946.017 168.254 939.942 168.439 938.017 168.856ZM571.017 183.345C571.017 199.634 568.435 198.431 604.17 198.794L633.116 199.087L603.316 229.558C583.436 249.887 572.602 261.727 570.767 265.129C568.227 269.84 568.017 271.096 568.017 281.614V293H619.794C683.011 293 677.977 294.404 678.002 276.763L678.017 266.027L644.538 265.763L611.059 265.5L630.672 244.5C641.459 232.95 654.837 218.626 660.401 212.67C674.696 197.366 675.418 195.97 675.87 182.762L676.238 172H623.628H571.017V183.345ZM694.017 232.5V293.051L709.767 292.775L725.517 292.5V232.5V172.5L709.767 172.225L694.017 171.949V232.5ZM810.552 195.091C824.831 197.731 835.72 208.083 839.506 222.62C844.181 240.569 836.142 258.768 819.866 267.079C807.451 273.418 787.01 268.442 776.772 256.588C768.231 246.699 766.305 228.168 772.498 215.467C775.407 209.5 782.924 201.648 788.517 198.733C791.99 196.923 800.354 194.343 803.583 194.085C804.17 194.038 807.306 194.491 810.552 195.091ZM14.8986 249.281C7.9366 258.007 2.96959 270.296 0.962592 283.765C-0.0544075 290.586 0.0545999 292.682 1.8796 301.5C7.3026 327.7 23.6786 345.702 49.9406 354.334C59.4846 357.471 79.5346 357.445 89.5166 354.282C109.044 348.095 125.143 332.357 132.257 312.5C134.569 306.048 135.998 293.4 136.009 279.311L136.017 268.122L95.2666 267.797C55.3646 267.479 54.3816 267.423 48.0166 265.113C37.8556 261.427 30.0876 256.957 23.9216 251.25C20.8016 248.362 18.0846 246 17.8826 246C17.6816 246 16.3386 247.476 14.8986 249.281ZM1024.33 270.464C1018.04 273.201 1015.99 282.441 1020.5 287.794C1025.83 294.129 1034.56 294.255 1038.97 288.059C1043.46 281.758 1042.15 274.882 1035.72 270.96C1031.98 268.679 1028.76 268.539 1024.33 270.464ZM1036.09 273.923C1041.64 279.471 1039.02 289.158 1031.59 290.551C1027.23 291.371 1022.68 289.005 1021.04 285.064C1016.83 274.905 1028.47 266.295 1036.09 273.923ZM1025.02 281C1025.02 285 1025.45 288 1026.02 288C1026.57 288 1027.02 286.65 1027.02 285C1027.02 283.224 1027.54 282 1028.3 282C1029.01 282 1030.38 283.35 1031.36 285C1032.33 286.65 1033.55 288 1034.07 288C1035.46 288 1035.23 286.751 1033.37 284.094C1031.84 281.912 1031.84 281.678 1033.37 280.822C1035.3 279.742 1035.53 276.909 1033.82 275.2C1033.16 274.54 1030.91 274 1028.82 274H1025.02V281ZM1032.83 277.75C1032.63 278.805 1031.41 279.626 1029.76 279.816C1027.55 280.071 1027.02 279.729 1027.02 278.066C1027.02 276.426 1027.65 276 1030.09 276C1032.48 276 1033.09 276.391 1032.83 277.75Z" fill="#1F1F1F"/>
</svg>
