<svg width="466" height="56" viewBox="0 0 466 56" fill="none" xmlns="http://www.w3.org/2000/svg">
<path fill-rule="evenodd" clip-rule="evenodd" d="M45.3335 0.3335C45.15 0.5165 45 3.4415 45 6.8335V13H60.5C69.5115 13 76 13.191 76 13.4565C76 13.7075 72.199 22.7635 67.553 33.5815L59.106 53.25L60.928 54.0815C64.7185 55.811 63.6805 57.5085 74.7395 31.5L84.8385 7.75L68.0445 7.5L51.25 7.25L51.103 3.625L50.956 0H48.3115C46.857 0 45.5165 0.15 45.3335 0.3335ZM0 31.25V55H3H6V31.25V7.5H3H0V31.25ZM29.5 28.2365V48.9735L22.125 49.1115L14.75 49.25L14.6 52.125L14.45 55H24.975H35.5V31.25V7.5H32.5H29.5V28.2365ZM92.6235 21.875C92.866 37.39 93.139 39.2495 95.8685 43.9685C100.358 51.73 108.073 56 117.608 56C125.642 56 130.894 53.9975 135.846 49.0455C137.351 47.5405 139.256 44.9735 140.081 43.341C142.572 38.406 142.982 35.205 142.992 20.625L143 7.5H140H137L136.994 20.625C136.988 34.4585 136.723 36.655 134.555 40.8955C131.041 47.7685 122.238 51.6605 113.912 50.0225C104.971 48.2635 99.8805 42.3505 98.7195 32.375L98.385 29.5H108.943H119.5V18.5V7.5H116.5H113.5V15.75V24H106H98.5V15.75V7.5H95.4495H92.3985L92.6235 21.875ZM179 10.25V13H183.75H188.5V31V49H182.5H176.5V52V55H185.5H194.5V34V13H206.75H219V34V55H222H225V31.25V7.5H202H179V10.25ZM237.5 31.25V55H240.5H243.5V31.25V7.5H240.5H237.5V31.25ZM253.5 10.25V13H266.25H279V34V55H282H285V34V13H289.75H294.5V10.25V7.5H274H253.5V10.25ZM304 31.25V55H307H310V31.25V7.5H307H304V31.25ZM321.5 10.25V13H335.25H349V31V49H335.25H321.5V52V55H342.75H364V52V49H359.5H355V28.25V7.5H338.25H321.5V10.25ZM381 28.233V48.966L375.625 49.108L370.25 49.25L370.1 52.125L369.95 55H391.725H413.5V31.25V7.5H410.5H407.5V28.25V49H397.25H387V28.25V7.5H384H381V28.233ZM425.5 10.25V13H442.5H459.5V34V55H462.5H465.5V31.25V7.5H445.5H425.5V10.25ZM426 40.5V55H429H432V40.5V26H429H426V40.5Z" fill="black"/>
</svg>
