<svg width="295" height="49" viewBox="0 0 295 49" fill="none" xmlns="http://www.w3.org/2000/svg">
<path fill-rule="evenodd" clip-rule="evenodd" d="M176.605 0.058054C168.862 0.841054 164.168 7.02455 165.854 14.2221C166.81 18.3041 169.61 20.7601 177.105 24.0896C184.339 27.3031 186.17 28.6171 187.452 31.5156C189.183 35.4286 187.629 39.7186 183.749 41.7356C181.071 43.1281 175.428 43.2946 173.105 42.0501C170.715 40.7696 168.344 37.9776 167.629 35.6036C167.007 33.5351 166.875 33.4181 165.287 33.5346C161.573 33.8071 161.282 34.0086 161.653 36.0506C162.524 40.8341 165.703 45.0046 170.126 47.1631C172.258 48.2041 173.34 48.3756 177.864 48.3921C182.807 48.4101 183.321 48.3136 186.432 46.7826C191.599 44.2401 193.936 40.4686 193.973 34.6126C193.997 30.7681 192.81 27.7646 190.325 25.3811C189.483 24.5726 185.376 22.2236 181.199 20.1611C175.204 17.2006 173.368 16.0536 172.48 14.7121C170.452 11.6491 171.277 8.23155 174.433 6.62105C176.685 5.47205 179.376 5.38755 181.34 6.40355C182.952 7.23705 184.855 9.65155 184.855 10.8631C184.855 11.3021 185.248 11.6556 185.73 11.6491C186.804 11.6346 190.353 10.8291 190.65 10.5326C191.009 10.1741 189.446 6.19405 188.333 4.63005C186.243 1.69555 180.923 -0.378446 176.605 0.058054ZM2.37055 1.22405C1.14155 1.76805 0.0750702 2.27355 0.00107016 2.34805C-0.17443 2.52355 21.2935 48.2926 21.7835 48.7866C21.9885 48.9936 24.5931 43.9871 27.5716 37.6616C30.5506 31.3366 33.0366 26.1611 33.0966 26.1611C33.1566 26.1611 35.6421 31.3406 38.6201 37.6711C41.5981 44.0016 44.2035 49.0076 44.4095 48.7961C44.616 48.5841 49.6371 38.0611 55.5681 25.4111L66.351 2.41105L63.7766 1.26255C62.3606 0.630553 61.0346 0.293053 60.8296 0.512553C60.6246 0.731553 56.9275 8.44855 52.614 17.6611C48.3 26.8736 44.6056 34.5841 44.4036 34.7951C44.2016 35.0066 42.3086 31.4826 40.1966 26.9641L36.3571 18.7486L40.1056 10.8921C42.1676 6.57155 43.8546 2.88405 43.8546 2.69805C43.8546 2.34405 39.6181 0.161054 38.9316 0.161054C38.7136 0.161054 37.3191 2.79055 35.8326 6.00505L33.1306 11.8486L30.5121 6.38005C29.0721 3.37205 27.8101 0.686053 27.7076 0.411553C27.5136 -0.109447 22.3546 2.06755 22.3546 2.67105C22.3546 2.85705 24.0241 6.55005 26.0651 10.8771L29.7755 18.7441L28.3701 21.8276C27.5971 23.5236 25.8396 27.2736 24.4651 30.1611L21.9655 35.4111L20.1951 31.6611C19.2211 29.5986 15.5176 21.7351 11.9651 14.1861C8.41256 6.63755 5.30306 0.410554 5.05506 0.348554C4.80756 0.286554 3.59905 0.680553 2.37055 1.22405ZM74.3546 24.4111V48.1611H91.8546H109.355V45.1611V42.1611H94.8546H80.3546V34.4111V26.6611H92.6046H104.855V23.9111V21.1611H92.6046H80.3546V13.6611V6.16105H90.1046H99.8546V3.41105V0.661054H87.1046H74.3546V24.4111ZM117.855 24.4111V48.1611H136.355H154.855V33.9111V19.6611H150.855H146.855V10.1611V0.661054H132.355H117.855V24.4111ZM202.855 24.4111V48.1611H205.855H208.855V24.4111V0.661054H205.855H202.855V24.4111ZM218.355 3.41105V6.16105H224.855H231.355V27.1611V48.1611H234.355H237.355V27.1611V6.16105H243.855H250.355V3.41105V0.661054H234.355H218.355V3.41105ZM259.355 24.4111V48.1611H277.13H294.905L294.755 45.2861L294.605 42.4111L279.98 42.2786L265.355 42.1461V34.4036V26.6611H277.855H290.355V23.9111V21.1611H277.855H265.355V13.6611V6.16105H275.355H285.355V3.41105V0.661054H272.355H259.355V24.4111ZM140.855 12.9111V19.6611H132.355H123.855V12.9111V6.16105H132.355H140.855V12.9111ZM148.855 33.6611V42.1611H136.355H123.855V33.6611V25.1611H136.355H148.855V33.6611Z" fill="white"/>
</svg>
