<svg width="196" height="49" viewBox="0 0 196 49" fill="none" xmlns="http://www.w3.org/2000/svg">
<path fill-rule="evenodd" clip-rule="evenodd" d="M2.37058 1.063C1.14158 1.607 0.0750702 2.1125 0.00107016 2.187C-0.17443 2.3625 21.2936 48.1315 21.7836 48.6255C21.9886 48.8325 24.5931 43.826 27.5716 37.5005C30.5506 31.1755 33.0366 26 33.0966 26C33.1566 26 35.6421 31.1795 38.6201 37.51C41.5981 43.8405 44.2036 48.8465 44.4096 48.635C44.6161 48.423 49.6371 37.9 55.5681 25.25L66.3511 2.25L63.7766 1.1015C62.3606 0.4695 61.0346 0.132 60.8296 0.3515C60.6246 0.5705 56.9276 8.2875 52.6141 17.5C48.3001 26.7125 44.6056 34.423 44.4036 34.634C44.2016 34.8455 42.3086 31.3215 40.1966 26.803L36.3571 18.5875L40.1056 10.731C42.1676 6.4105 43.8546 2.723 43.8546 2.537C43.8546 2.183 39.6181 0 38.9316 0C38.7136 0 37.3191 2.6295 35.8326 5.844L33.1306 11.6875L30.5121 6.219C29.0721 3.211 27.8101 0.525 27.7076 0.2505C27.5136 -0.2705 22.3546 1.9065 22.3546 2.51C22.3546 2.696 24.0241 6.389 26.0651 10.716L29.7756 18.583L28.3701 21.6665C27.5971 23.3625 25.8396 27.1125 24.4651 30L21.9656 35.25L20.1951 31.5C19.2211 29.4375 15.5176 21.574 11.9651 14.025C8.41256 6.4765 5.30309 0.2495 5.05509 0.1875C4.80759 0.1255 3.59908 0.5195 2.37058 1.063ZM74.3546 24.25V48H91.8546H109.355V45V42H94.8546H80.3546V34.25V26.5H92.6046H104.855V23.75V21H92.6046H80.3546V13.5V6H90.1046H99.8546V3.25V0.5H87.1046H74.3546V24.25ZM117.855 24.25V48H136.355H154.855V33.75V19.5H150.855H146.855V10V0.5H132.355H117.855V24.25ZM165.855 3.25V6H174.908C182.75 6 183.923 6.1005 183.674 6.75C183.386 7.5 161.843 44.7495 160.468 46.875L159.74 48H177.572H195.405L195.255 45.125L195.105 42.25L182.534 42L169.963 41.75L181.447 22C187.764 11.1375 193.148 1.856 193.411 1.375C193.862 0.551 193.072 0.5 179.872 0.5H165.855V3.25ZM140.855 12.762V19.5235L132.23 19.387L123.605 19.25L123.463 13.279C123.385 9.995 123.434 7.014 123.572 6.654C123.766 6.1505 125.786 6 132.339 6H140.855V12.762ZM148.742 33.625L148.879 42H136.117H123.355V33.8335C123.355 29.3415 123.509 25.513 123.697 25.325C123.885 25.137 129.566 25.043 136.322 25.1165L148.605 25.25L148.742 33.625Z" fill="#1E1E1E"/>
</svg>
