<svg width="456" height="67" viewBox="0 0 456 67" fill="none" xmlns="http://www.w3.org/2000/svg">
<path fill-rule="evenodd" clip-rule="evenodd" d="M9.07186 1.67595C0.975862 5.66595 -2.68014 17.7809 2.19886 24.4529C3.34686 26.0219 3.78186 26.0749 5.69786 24.8789C7.08786 24.0109 7.64386 22.9639 7.22186 22.0099C4.51786 15.8949 7.33586 8.96195 13.5869 6.34995C24.0389 1.98294 32.9519 13.7889 26.8089 23.8649C25.4559 26.0839 23.0829 27.9319 19.8119 29.3139L14.8629 31.4049V36.2059C14.8629 40.8749 14.9459 41.0079 17.8629 41.0079C20.5249 41.0079 20.8629 40.6719 20.8629 38.0279C20.8629 35.5749 21.5469 34.6999 24.7369 33.0719C32.3989 29.1629 35.7419 22.5979 34.5589 13.7809C33.9199 9.01795 31.5219 5.42195 26.8729 2.25795C22.8289 -0.494054 14.0569 -0.781054 9.07186 1.67595ZM441.816 17.6189L432.461 29.0739L421.396 18.0409C415.311 11.9729 410.001 7.00795 409.597 7.00795C409.193 7.00795 408.863 17.8079 408.863 31.0079V55.0079H411.863H414.863V37.7679V20.5289L432.632 38.2769L450.401 56.0259L452.636 53.7899L454.872 51.5549L445.707 42.3519L436.543 33.1489L446.203 21.6229C451.516 15.2829 455.863 9.90295 455.863 9.66695C455.863 9.43095 454.807 8.54595 453.517 7.70095C451.208 6.18795 451.021 6.34695 441.816 17.6189ZM42.8629 9.98695V13.0079H55.3629H67.8629V34.0079V55.0079H70.8629H73.8629V34.0079V13.0079H78.9289C83.8659 13.0079 83.9879 12.9379 83.6789 10.2579L83.3629 7.50795L63.1129 7.23695L42.8629 6.96695V9.98695ZM91.8629 9.98395V13.0079H105.863H119.863V31.0079V49.0079H105.863H91.8629V52.0079V55.0079H113.363H134.863V52.0079C134.863 49.1209 134.694 49.0079 130.383 49.0079H125.904L125.633 28.2579L125.363 7.50795L108.613 7.23395L91.8629 6.95995V9.98395ZM143.863 31.0079V55.0079H146.863H149.863V31.0079V7.00795H146.863H143.863V31.0079ZM169.53 7.67495C169.163 8.04095 168.863 17.4679 168.863 28.6219V48.9029L163.613 49.2059C158.716 49.4879 158.342 49.6929 158.047 52.2579L157.73 55.0079H179.797H201.863V31.0079V7.00795H198.863H195.863V28.0079V49.0079H185.363H174.863V28.0079V7.00795H172.53C171.246 7.00795 169.896 7.30795 169.53 7.67495ZM238.863 9.98395V12.9599L255.613 13.2339L272.363 13.5079L272.633 34.2579L272.904 55.0079H275.383H277.863V31.0079V7.00795H258.363H238.863V9.98395ZM287.863 10.0079C287.863 12.9409 287.974 13.0079 292.863 13.0079H297.863V34.0079V55.0079H300.863H303.863V34.0079V13.0079H308.863C313.752 13.0079 313.863 12.9409 313.863 10.0079V7.00795H300.863H287.863V10.0079ZM345.863 9.97895V12.9499L359.113 13.2289L372.363 13.5079L372.629 40.2579L372.896 67.0079H375.379H377.863V37.0079V7.00795H361.863H345.863V9.97895ZM390.863 20.0079V33.0079H393.863H396.863V20.0079V7.00795H393.863H390.863V20.0079ZM238.863 40.5079V55.0079H241.863H244.863V40.5079V26.0079H241.863H238.863V40.5079ZM13.8629 49.0079C11.5039 53.4159 17.6779 57.3449 20.8879 53.4779C21.8579 52.3089 21.8919 51.3669 21.0309 49.4779C19.6229 46.3879 15.4129 46.1109 13.8629 49.0079Z" fill="#1F1F1F"/>
</svg>
