<svg width="372" height="67" viewBox="0 0 372 67" fill="none" xmlns="http://www.w3.org/2000/svg">
<path fill-rule="evenodd" clip-rule="evenodd" d="M151.5 6.5V13H167C175.525 13 182.5 13.1755 182.5 13.3895C182.5 13.6035 178.785 22.435 174.244 33.0145C169.703 43.594 165.934 52.55 165.869 52.9165C165.755 53.5535 170.438 55.7285 170.909 55.2575C171.235 54.932 191 8.323 191 7.8805C191 7.671 183.462 7.5 174.25 7.5H157.5V3.75V0H154.5H151.5V6.5ZM66.25 6.585C61.9715 7.395 57.045 10.115 53.58 13.58C40.006 27.154 45.9005 49.686 64.466 55.194C68.292 56.3295 74.615 56.241 78.6475 54.9955C87.675 52.207 94.8055 43.7475 95.9745 34.4395C98.112 17.417 83.14 3.3875 66.25 6.585ZM364.876 8.618C363.658 10.0655 359.338 15.272 355.273 20.1885L347.885 29.1265L336.443 17.6925L325 6.258V30.629V55H328H331V37.8775V20.7555L348.638 38.388L366.276 56.021L368.138 54.1145C369.162 53.066 370 51.9945 370 51.734C370 51.473 365.971 47.2075 361.047 42.255L352.096 33.25L361.807 21.5925C367.149 15.181 371.399 9.7415 371.253 9.504C371.106 9.267 370.109 8.3785 369.037 7.5295L367.089 5.9865L364.876 8.618ZM0 10.25V13H17C26.4265 13 34 13.1955 34 13.439C34 13.6805 30.2065 22.7795 25.57 33.6595L17.14 53.4405L19.838 54.5355C21.322 55.138 22.603 55.545 22.685 55.4405C22.767 55.3355 26.9565 45.4625 31.995 33.5C37.033 21.5375 41.5625 10.7935 42.06 9.625L42.9645 7.5H21.482H0V10.25ZM109.5 28.233V48.966L104.125 49.108L98.75 49.25L98.6 52.125L98.45 55H120.225H142V31.25V7.5H139H136V28.25V49H125.75H115.5V28.25V7.5H112.5H109.5V28.233ZM221 10.25V13H234.75H248.5V34V55H251.5H254.5V31.25V7.5H237.75H221V10.25ZM266 10.25V13H270.75H275.5V30.984V48.9685L269.625 49.109L263.75 49.25L263.6 52.125L263.45 55H272.475H281.5V33.9915V12.9825L293.875 13.1165L306.25 13.25L306.38 34.125L306.511 55H309.255H312V31.25V7.5H289H266V10.25ZM79.2435 13.72C84.985 16.5385 88.871 21.792 90.099 28.394C90.763 31.966 89.7475 37.296 87.755 40.6965C81.318 51.68 66.7445 53.6655 57.85 44.771C50.4725 37.394 50.1705 26.127 57.138 18.212C61.026 13.795 65.4545 11.95 71.75 12.125C75.565 12.231 76.7055 12.4735 79.2435 13.72ZM0 44.5V67H3H6V44.5V22H3H0V44.5Z" fill="white"/>
</svg>
