<svg width="458" height="51" viewBox="0 0 458 51" fill="none" xmlns="http://www.w3.org/2000/svg">
<path fill-rule="evenodd" clip-rule="evenodd" d="M262.898 11.5805L253.443 23.097L242.143 11.8055C235.928 5.595 230.677 0.5135 230.473 0.5135C230.269 0.5135 230.102 11.426 230.102 24.7635V49.0135H233.102H236.102V32.0135C236.102 22.6635 236.182 15.0135 236.281 15.0135C236.38 15.0135 244.355 22.943 254.003 32.6345L271.544 50.2555L273.116 48.7595C276.178 45.8455 276.46 46.3875 266.658 36.3885L257.69 27.242L267.411 15.5025L277.132 3.7635L274.992 1.9035C273.815 0.880501 272.739 0.0480002 272.602 0.0535002C272.464 0.0590002 268.097 5.246 262.898 11.5805ZM451.477 2.6315C450.26 4.079 445.939 9.2855 441.875 14.202L434.486 23.14L423.044 11.706L411.602 0.271501V24.6425V49.0135H414.602H417.602V31.891V14.769L435.24 32.4015L452.878 50.0345L454.74 48.128C455.764 47.0795 456.602 46.008 456.602 45.7475C456.602 45.4865 452.573 41.221 447.649 36.2685L438.697 27.2635L448.409 15.606C453.75 9.1945 458.001 3.755 457.854 3.5175C457.708 3.2805 456.711 2.392 455.639 1.543L453.69 0L451.477 2.6315ZM22.3515 0.821C19.672 1.4785 15.1015 3.247 15.1015 3.626C15.1015 4.2255 17.0665 8.0135 17.3775 8.0135C17.518 8.0135 19.032 7.54 20.7425 6.9615C24.827 5.5795 30.8005 5.7985 33.997 7.448C37.1445 9.0715 39.9965 12.1765 41.716 15.851C42.9295 18.445 43.282 19.975 43.485 23.5385C43.8635 30.1715 42.4255 34.557 38.4635 38.8555C29.8875 48.1595 13.2055 45.419 8.09549 33.8665C6.54899 30.3705 6.109 25.845 6.1055 13.3885L6.1015 1.5135H3.05099H0L0.218994 15.8885C0.415994 28.8425 0.542995 30.585 1.5015 33.5135C4.9145 43.9395 13.4995 50.022 24.779 50.0075C32.5475 49.9975 37.578 48.0555 42.4465 43.187C47.8235 37.81 49.914 31.93 49.441 23.5135C48.874 13.4365 44.3275 6.178 36.1915 2.3615C33.275 0.9935 32.2495 0.781 28.1015 0.685C25.489 0.625 22.9015 0.686 22.3515 0.821ZM149.352 0.8265C146.242 1.606 142.102 3.1565 142.102 3.541C142.102 3.786 142.584 4.9785 143.173 6.1905L144.243 8.3945L146.548 7.3695C149.837 5.9055 155.698 5.6335 159.165 6.7835C162.949 8.039 167.521 12.6475 169.065 16.7635C172.725 26.52 169.245 37.815 161.254 42.119C152.009 47.098 139.882 43.6385 135.469 34.7635C133.43 30.664 133.102 27.811 133.102 14.239V1.5135H130.102H127.102L127.11 14.6385C127.12 29.271 127.527 32.4135 130.065 37.442C134.109 45.452 142.014 50.0135 151.852 50.0135C159.379 50.0135 164.749 47.9015 169.505 43.0705C181.199 31.1935 177.815 9.2205 163.238 2.3835C160.27 0.9915 159.265 0.7815 155.102 0.685C152.489 0.625 149.902 0.6885 149.352 0.8265ZM66.6015 22.2635V43.0135H59.1015H51.6015V46.0135V49.0135H62.1015H72.6015V25.2635V1.5135H69.6015H66.6015V22.2635ZM82.1015 4.2635V7.0135H95.8515H109.602V28.0135V49.0135H112.602H115.602V25.2635V1.5135H98.8515H82.1015V4.2635ZM193.602 22.2505V42.9875L185.977 43.1255L178.352 43.2635L178.202 46.1385L178.052 49.0135H188.906H199.761L199.432 38.1385C199.251 32.157 199.104 21.4695 199.103 14.3885L199.102 1.5135H196.352H193.602V22.2505ZM212.102 14.0135V26.5135H214.852H217.602V14.0135V1.5135H214.852H212.102V14.0135ZM307.602 4.2635V7.0135H321.352H335.102V28.0135V49.0135H338.102H341.102V25.2635V1.5135H324.352H307.602V4.2635ZM352.602 4.2635V7.0135H357.352H362.102V24.9975V42.982L356.227 43.1225L350.352 43.2635L350.201 46.1385L350.052 49.0135H359.076H368.102V28.005V6.996L380.477 7.13L392.852 7.2635L392.982 28.1385L393.112 49.0135H395.857H398.602V25.2635V1.5135H375.602H352.602V4.2635Z" fill="white"/>
</svg>
