<svg width="421" height="51" viewBox="0 0 421 51" fill="none" xmlns="http://www.w3.org/2000/svg">
<path fill-rule="evenodd" clip-rule="evenodd" d="M149.625 0.771501C145.979 1.564 142.207 3.5005 139.319 6.063C137.056 8.072 137.12 8.4625 140.059 10.5555L141.457 11.551L144.435 9.5185C148.402 6.81 151.721 5.8685 156.473 6.103C165.42 6.545 172.02 12.638 173.543 21.8625C175.022 30.8145 170.913 38.987 163.079 42.677C160.153 44.0555 159.236 44.244 155.5 44.234C150.453 44.22 146.821 42.99 143.543 40.184L141.415 38.363L139.332 40.469L137.25 42.575L139.25 44.31C140.35 45.264 142.924 46.8615 144.97 47.8595C148.259 49.464 149.246 49.7015 153.473 49.905C161.817 50.307 167.497 48.3235 172.655 43.207C182.271 33.667 182.255 16.6575 172.621 7.172C166.599 1.243 158.207 -1.0925 149.625 0.771501ZM208.131 0.7705C201.708 2.166 195.613 6.748 192.56 12.476C189.883 17.4985 189.516 20.258 189.508 35.3885L189.5 49.0135H192.472H195.444L195.597 34.3885L195.75 19.7635L197.297 16.5135C200.401 9.993 205.638 6.4845 212.828 6.107C219.261 5.7695 224.088 7.526 227.693 11.516C234.705 19.2775 234.503 32.5365 227.263 39.7765C224.366 42.6735 221.201 44.098 217.008 44.392C213.956 44.606 211.434 44.056 207.404 42.298C206.741 42.009 206.29 42.4625 205.306 44.403L204.052 46.877L205.401 47.4995C214.87 51.87 225.407 50.1885 231.958 43.2615C239.187 35.618 240.905 22.7295 235.992 12.9975C234.015 9.081 229.605 4.6275 225.916 2.823C220.623 0.233 214.08 -0.522 208.131 0.7705ZM414.376 2.6315C413.158 4.079 408.838 9.2855 404.773 14.202L397.385 23.14L385.943 11.706L374.5 0.271501V24.6425V49.0135H377.5H380.5V31.891V14.769L398.138 32.4015L415.776 50.0345L417.638 48.128C418.662 47.0795 419.5 46.008 419.5 45.7475C419.5 45.4865 415.471 41.221 410.547 36.2685L401.596 27.2635L411.307 15.606C416.649 9.1945 420.899 3.755 420.753 3.5175C420.606 3.2805 419.609 2.392 418.537 1.543L416.589 0L414.376 2.6315ZM2 4.2635V7.0135H7H12V25.0135V43.0135H6H0V46.0135V49.0135H9H18V28.0135V7.0135H30.25H42.5V28.0135V49.0135H45.5H48.5V25.2635V1.5135H25.25H2V4.2635ZM61 25.2635V49.0135H64H67V25.2635V1.5135H64H61V25.2635ZM76.5 4.2635V7.0135H90.25H104V28.0135V49.0135H107H110V25.2635V1.5135H93.25H76.5V4.2635ZM122.5 14.0135V26.5135H125.5H128.5V14.0135V1.5135H125.5H122.5V14.0135ZM270.5 4.2635V7.0135H284.25H298V28.0135V49.0135H301H304V25.2635V1.5135H287.25H270.5V4.2635ZM315.5 4.2635V7.0135H320.25H325V24.9975V42.982L319.125 43.1225L313.25 43.2635L313.1 46.1385L312.95 49.0135H321.975H331V28.005V6.996L343.375 7.13L355.75 7.2635L355.88 28.1385L356.011 49.0135H358.755H361.5V25.2635V1.5135H338.5H315.5V4.2635Z" fill="white"/>
</svg>
