<svg width="555" height="57" viewBox="0 0 555 57" fill="none" xmlns="http://www.w3.org/2000/svg">
<path fill-rule="evenodd" clip-rule="evenodd" d="M277.333 0.3335C277.15 0.5165 277 3.4415 277 6.8335V13H292.5C301.512 13 308 13.191 308 13.4565C308 13.7075 304.199 22.7635 299.553 33.5815L291.106 53.25L292.928 54.0815C296.719 55.811 295.681 57.5085 306.74 31.5L316.839 7.75L300.044 7.5L283.25 7.25L283.103 3.625L282.956 0H280.311C278.857 0 277.516 0.15 277.333 0.3335ZM81.1315 6.757C74.7085 8.1525 68.6135 12.7345 65.5605 18.4625C62.8835 23.485 62.5155 26.2445 62.5075 41.375L62.5 55H65.472H68.4445L68.597 40.375L68.75 25.75L70.2975 22.5C73.4015 15.9795 78.638 12.471 85.8275 12.0935C92.261 11.756 97.088 13.5125 100.693 17.5025C107.705 25.264 107.503 38.523 100.263 45.763C97.366 48.66 94.201 50.0845 90.008 50.3785C86.9565 50.5925 84.434 50.0425 80.4045 48.2845C79.7415 47.9955 79.2895 48.449 78.306 50.3895L77.0525 52.8635L78.401 53.486C87.8695 57.8565 98.4065 56.175 104.957 49.248C112.186 41.6045 113.905 28.716 108.992 18.984C107.015 15.0675 102.604 10.614 98.916 8.8095C93.623 6.2195 87.08 5.4645 81.1315 6.757ZM157.53 6.778C152.715 7.822 149.129 9.789 145.694 13.27C139.52 19.528 138.521 23.5065 138.509 41.875L138.5 55H141.46H144.419L144.604 40.625C144.816 24.1295 145.112 22.708 149.293 18.058C153.376 13.516 157.953 11.741 164.672 12.0935C169.676 12.356 173.105 13.8165 176.431 17.1025C184.573 25.1465 183.52 40.908 174.401 47.514C170.013 50.693 163.345 51.305 158.148 49.0065C155.592 47.8755 155.723 47.8095 153.987 51.0915L153.013 52.9335L155.882 54.0205C166.802 58.16 177.607 55.2055 183.428 46.4885C186.616 41.714 187.74 37.7435 187.74 31.25C187.74 22.7505 185.474 17.283 179.835 12.1815C174.057 6.954 165.867 4.97 157.53 6.778ZM547.876 8.618C546.658 10.0655 542.338 15.272 538.273 20.1885L530.885 29.1265L519.443 17.6925L508 6.258V30.629V55H511H514V37.8775V20.7555L531.638 38.388L549.276 56.021L551.138 54.1145C552.162 53.066 553 51.9945 553 51.734C553 51.473 548.971 47.2075 544.047 42.255L535.096 33.25L544.807 21.5925C550.149 15.181 554.399 9.7415 554.253 9.504C554.106 9.267 553.109 8.3785 552.037 7.5295L550.089 5.9865L547.876 8.618ZM0 20V32.5H3H6V20V7.5H3H0V20ZM15.5 10.2415V12.983L28.375 13.1165L41.25 13.25L41.3805 34.125L41.511 55H44.25H46.989L47.1195 34.125L47.25 13.25L51.875 13.106L56.5 12.9625V10.231V7.5H36H15.5V10.2415ZM121.5 20V32.5H124.25H127V20V7.5H124.25H121.5V20ZM221.5 10.25V13H226.25H231V30.984V48.9685L225.125 49.109L219.25 49.25L219.1 52.125L218.95 55H227.975H237V33.9915V12.9825L249.375 13.1165L261.75 13.25L261.88 34.125L262.011 55H264.755H267.5V31.25V7.5H244.5H221.5V10.25ZM323.5 10.25V13H328.5H333.5V31V49H327.5H321.5V52V55H330.5H339.5V34V13H351.75H364V34V55H367H370V31.25V7.5H346.75H323.5V10.25ZM404 10.25V13H417.75H431.5V34V55H434.5H437.5V31.25V7.5H420.75H404V10.25ZM449 10.25V13H453.75H458.5V30.984V48.9685L452.625 49.109L446.75 49.25L446.6 52.125L446.45 55H455.475H464.5V33.9915V12.9825L476.875 13.1165L489.25 13.25L489.38 34.125L489.511 55H492.255H495V31.25V7.5H472H449V10.25Z" fill="white"/>
</svg>
