<svg width="547" height="67" viewBox="0 0 547 67" fill="none" xmlns="http://www.w3.org/2000/svg">
<path fill-rule="evenodd" clip-rule="evenodd" d="M1.42551 9.125C1.57451 14.144 1.83202 22.9185 1.99802 28.625L2.29951 39H4.71402H7.12802L7.38602 36.875C7.52752 35.706 7.77201 26.9315 7.92851 17.375L8.21352 0H4.68402H1.15501L1.42551 9.125ZM260.171 17.1355C255.141 23.2485 250.834 28.4685 250.598 28.7355C250.338 29.0295 245.643 24.6985 238.679 17.7395L227.19 6.258V30.629V55H230.19H233.19V37.8775V20.7555L250.827 38.387L268.463 56.0185L270.57 53.872L272.676 51.726L263.683 42.743C258.737 37.8025 254.69 33.591 254.69 33.3845C254.69 33.1775 258.965 27.853 264.19 21.552C269.415 15.251 273.69 9.93 273.69 9.728C273.69 9.3645 273.189 8.919 270.627 7.0025L269.314 6.0205L260.171 17.1355ZM413.176 17.2845C408.096 23.445 403.799 28.4885 403.628 28.4925C403.456 28.4965 399.101 23.55 393.951 17.5C388.8 11.45 384.43 6.5 384.239 6.5C384.049 6.5 383.037 7.3765 381.991 8.4475L380.09 10.3945L396.417 29.5725L412.744 48.75L396.466 48.882L380.19 49.0135V52.007V55H403C424.576 55 425.775 54.953 425.125 54.133C424.748 53.656 420.65 48.811 416.018 43.3665L407.596 33.4675L408.846 31.8585C409.533 30.974 413.934 25.6375 418.626 20L427.156 9.75L425.548 8.363C424.664 7.6 423.596 6.775 423.176 6.53C422.575 6.1785 420.448 8.4655 413.176 17.2845ZM20.6895 31.25V55H23.6895H26.6895V31.25V7.5H23.6895H20.6895V31.25ZM50.6895 28.25V49H43.1895H35.6895V52V55H46.1895H56.6895V31.25V7.5H53.6895H50.6895V28.25ZM123.69 10.25V13H137.19H150.69V34V55H153.69H156.69V31.25V7.5H140.19H123.69V10.25ZM168.19 10.25V13H173.19H178.19V31V49H172.19H166.19V52V55H175.19H184.19V34V13H196.44H208.69V34V55H211.69H214.69V31.25V7.5H191.44H168.19V10.25ZM318.69 10.25V13H332.44H346.19V34V55H349.19H352.19V31.25V7.5H335.44H318.69V10.25ZM364.69 31.25V55H367.69H370.69V31.25V7.5H367.69H364.69V31.25ZM435.19 20V32.5H437.94H440.69V20V7.5H437.94H435.19V20ZM453.69 10.25V13H470.723C486.72 13 487.74 13.0535 487.476 13.875C487.322 14.356 483.495 23.4125 478.971 34L470.748 53.25L473.265 54.429C474.649 55.0775 475.962 55.415 476.182 55.179C476.601 54.7305 495.646 9.9 496.065 8.375C496.292 7.5515 495.05 7.5 474.998 7.5H453.69V10.25ZM503.69 10.25V13H517.44H531.19V31V49H517.44H503.69V52V55H524.94H546.19V52V49H541.69H537.19V28.25V7.5H520.44H503.69V10.25ZM453.69 44.5V67H456.69H459.69V44.5V22H456.69H453.69V44.5ZM306.939 45.125C306.277 47.89 302.69 64.7625 302.69 65.1115C302.69 65.325 303.661 65.5 304.848 65.5H307.007L309.093 58.125C310.241 54.069 311.616 49.2315 312.149 47.375L313.119 44H310.164C307.512 44 307.181 44.1155 306.939 45.125ZM2.11751 46.7335C-0.326993 48.107 -0.728481 51.581 1.29802 53.8245C4.02602 56.844 9.18951 54.6985 9.18951 50.5455C9.18951 47.292 5.07251 45.073 2.11751 46.7335ZM68.728 47.2945C66.0895 49.5145 66.7455 53.4475 69.9795 54.799C74.729 56.7835 78.5785 50.5995 74.651 47.2945C73.7845 46.5655 72.491 46 71.6895 46C70.888 46 69.5945 46.5655 68.728 47.2945ZM86.228 47.2945C83.5895 49.5145 84.2455 53.4475 87.4795 54.799C92.229 56.7835 96.0785 50.5995 92.151 47.2945C91.2845 46.5655 89.991 46 89.1895 46C88.388 46 87.0945 46.5655 86.228 47.2945ZM106.651 47.4615C102.331 51.782 108.484 57.9845 113.022 53.8835C114.545 52.5075 114.858 50.7555 113.93 48.8C112.48 45.7455 109.006 45.1065 106.651 47.4615Z" fill="white"/>
</svg>
