<svg width="325" height="61" viewBox="0 0 325 61" fill="none" xmlns="http://www.w3.org/2000/svg">
<path fill-rule="evenodd" clip-rule="evenodd" d="M142.974 0.85509C137.209 2.36009 132.828 5.86209 130.174 11.0856C127.703 15.9496 127.512 17.5696 127.506 33.8171L127.5 48.9421H130.474H133.448L133.599 33.0671L133.75 17.1921L135.153 14.3351C137.815 8.91409 142.655 5.94209 148.82 5.94209C153.011 5.94209 156.737 7.38509 159.463 10.0656C163.808 14.3376 164.491 17.8356 164.496 35.8171L164.5 48.9421H167.557H170.613L170.364 33.3171C170.166 20.9156 169.951 17.1961 169.322 15.2871C166.67 7.23559 160.841 1.92909 153.02 0.446089C149.354 -0.249411 146.806 -0.14541 142.974 0.85509ZM0 4.19209V6.94209H17H34V27.9421V48.9421H37H40V25.1921V1.44209H20H0V4.19209ZM51.5 4.19209V6.94209H56.25H61V24.9261V42.9106L55.125 43.0511L49.25 43.1921L49.1 46.0671L48.95 48.9421H57.975H67V27.9336V6.92459L79.375 7.05859L91.75 7.19209L91.8805 28.0671L92.011 48.9421H94.7555H97.5V25.1921V1.44209H74.5H51.5V4.19209ZM110 13.9421V26.4421H113H116V13.9421V1.44209H113H110V13.9421ZM193.5 22.1921V42.9421H186H178.5V45.9421V48.9421H189H199.5V25.1921V1.44209H196.5H193.5V22.1921ZM236 15.9421V30.4421H239H242V18.6921V6.94209H254.75H267.5V33.9421V60.9421H270.5H273.5V31.1921V1.44209H254.75H236V15.9421ZM283.5 4.19209V6.94209H296.25H309V27.9421V48.9421H312H315V27.9421V6.94209H319.75H324.5V4.19209V1.44209H304H283.5V4.19209ZM0.5 34.4421V48.9421H3.5H6.5V34.4421V19.9421H3.5H0.5V34.4421Z" fill="white"/>
</svg>
