<svg width="169" height="48" viewBox="0 0 169 48" fill="none" xmlns="http://www.w3.org/2000/svg">
<path fill-rule="evenodd" clip-rule="evenodd" d="M2 2.75V5.5H7H12V23.5V41.5H6H0V44.5V47.5H9H18V26.5V5.5H30.25H42.5V26.5V47.5H45.5H48.5V23.75V0H25.25H2V2.75ZM61 12.5V25H63.75H66.5V12.5V0H63.75H61V12.5ZM78 2.75V5.5H91.75H105.5V23.492V41.484L91.875 41.617L78.25 41.75L78.1 44.625L77.95 47.5H99.5H121.05L120.9 44.625L120.75 41.75L116.125 41.606L111.5 41.4625V20.731V0H94.75H78V2.75ZM129.5 2.75V5.5H146.25H163V26.5V47.5H166H169V23.75V0H149.25H129.5V2.75ZM130 33V47.5H133H136V33V18.5H133H130V33Z" fill="black"/>
</svg>
