<svg width="960" height="51" viewBox="0 0 960 51" fill="none" xmlns="http://www.w3.org/2000/svg">
<path fill-rule="evenodd" clip-rule="evenodd" d="M213.876 2.6315C212.659 4.079 208.338 9.2855 204.273 14.202L196.885 23.14L185.443 11.706L174 0.271501V24.6425V49.0135H177H180V31.891V14.769L197.638 32.4015L215.276 50.0345L217.138 48.128C218.162 47.0795 219 46.008 219 45.7475C219 45.4865 214.972 41.221 210.048 36.2685L201.096 27.2635L210.807 15.606C216.149 9.1945 220.399 3.755 220.253 3.5175C220.106 3.2805 219.11 2.392 218.038 1.543L216.089 0L213.876 2.6315ZM0 25.2635V49.0135H3H6V25.2635V1.5135H3H0V25.2635ZM30 22.2505V42.9875L22.375 43.1255L14.75 43.2635L14.6 46.1385L14.45 49.0135H25.3045H36.1595L35.831 38.1385C35.65 32.157 35.502 21.4695 35.501 14.3885L35.5 1.5135H32.75H30V22.2505ZM70 4.2635V7.0135H83.75H97.5V28.0135V49.0135H100.5H103.5V25.2635V1.5135H86.75H70V4.2635ZM115 4.2635V7.0135H119.75H124.5V24.9975V42.982L118.625 43.1225L112.75 43.2635L112.6 46.1385L112.45 49.0135H121.475H130.5V28.005V6.996L142.875 7.13L155.25 7.2635L155.38 28.1385L155.511 49.0135H158.255H161V25.2635V1.5135H138H115V4.2635ZM253 4.2635V7.0135H258H263V25.0135V43.0135H257H251V46.0135V49.0135H260H269V28.0135V7.0135H281.25H293.5V28.0135V49.0135H296.5H299.5V25.2635V1.5135H276.25H253V4.2635ZM312 14.0135V26.5135H314.75H317.5V14.0135V1.5135H314.75H312V14.0135ZM329.5 14.0135V26.5135H332.5H335.5V14.0135V1.5135H332.5H329.5V14.0135ZM351 22.25V42.987L343.625 43.125L336.25 43.2635L336.1 46.1385L335.95 49.0135H346.475H357V25.2635V1.5135H354H351V22.25ZM368.5 4.2555V6.9975L382.375 7.1305L396.25 7.2635L396.382 25.1305L396.513 42.9975L382.632 43.1305L368.75 43.2635L368.6 46.1385L368.45 49.0135H389.975H411.5V46.0135V43.0135H406.75H402V22.2635V1.5135H385.25H368.5V4.2555ZM445 14.0135V26.5135H447.75H450.5V14.0135V1.5135H447.75H445V14.0135ZM466.5 22.2635V43.0135H459H451.5V46.0135V49.0135H462H472.5V25.2635V1.5135H469.5H466.5V22.2635ZM492 22.2465V42.9795L486.625 43.1215L481.25 43.2635L481.1 46.1385L480.95 49.0135H502.725H524.5V25.2635V1.5135H521.5H518.5V22.2635V43.0135H508.25H498V22.2635V1.5135H495H492V22.2465ZM537 14.0135V26.5135H540H543V14.0135V1.5135H540H537V14.0135ZM645.5 25.2635V49.0135H668.25H691V25.2635V1.5135H668.25H645.5V25.2635ZM703.5 14.0135V26.5135H706.5H709.5V14.0135V1.5135H706.5H703.5V14.0135ZM720 4.2635V7.0135H724.75H729.5V25.0135V43.0135H723.5H717.5V46.0135V49.0135H726.5H735.5V28.0135V7.0135H747.75H760V28.0135V49.0135H763H766V25.2635V1.5135H743H720V4.2635ZM778.5 25.2635V49.0135H781.5H784.5V25.2635V1.5135H781.5H778.5V25.2635ZM794.5 4.2635V7.0135H808H821.5V28.0135V49.0135H824.5H827.5V25.2635V1.5135H811H794.5V4.2635ZM840 14.0135V26.5135H843H846V14.0135V1.5135H843H840V14.0135ZM858.123 15.8885C858.366 31.4035 858.639 33.263 861.369 37.982C865.858 45.7435 873.573 50.0135 883.108 50.0135C891.142 50.0135 896.394 48.011 901.346 43.059C902.851 41.554 904.756 38.987 905.581 37.3545C908.072 32.4195 908.482 29.2185 908.492 14.6385L908.5 1.5135H905.5H902.5L902.494 14.6385C902.488 28.472 902.223 30.6685 900.055 34.909C896.541 41.782 887.738 45.674 879.412 44.036C870.471 42.277 865.38 36.364 864.219 26.3885L863.885 23.5135H874.443H885V12.5135V1.5135H882H879V9.7635V18.0135H871.5H864V9.7635V1.5135H860.95H857.898L858.123 15.8885ZM920 4.2635V7.0135H937H954V28.0135V49.0135H957H960V25.2635V1.5135H940H920V4.2635ZM685 25.0135V43.0135H668.25H651.5V25.0135V7.0135H668.25H685V25.0135ZM920.5 34.5135V49.0135H923.5H926.5V34.5135V20.0135H923.5H920.5V34.5135ZM579 25.2635V28.0135H594H609V25.2635V22.5135H594H579V25.2635Z" fill="black"/>
</svg>
