<svg width="876" height="68" viewBox="0 0 876 68" fill="none" xmlns="http://www.w3.org/2000/svg">
<path fill-rule="evenodd" clip-rule="evenodd" d="M564.192 0.54694C553.534 3.26044 548.379 14.2924 552.946 24.6159L553.953 26.8914L556.472 25.3409C558.607 24.0274 558.917 23.6499 558.499 22.8694C557.241 20.5189 556.907 16.9469 557.694 14.2584C559.232 9.00094 563.422 5.86144 568.87 5.88244C575.543 5.90794 580.164 10.6309 580.123 17.3844C580.086 23.6299 576.122 28.1874 568.625 30.6054L566 31.4519V36.6614V41.8714H568.75H571.5V38.6059C571.5 35.9384 571.66 35.2874 572.375 35.0519C577.686 33.3029 582.322 29.6064 584.315 25.5329C586.096 21.8934 586.519 15.9144 585.295 11.7034C582.876 3.38144 573.184 -1.74256 564.192 0.54694ZM222 6.83944V13.3574L237.466 13.4894L252.932 13.6214L244.461 33.3714C239.802 44.2339 236.077 53.3464 236.184 53.6214C236.361 54.0799 241.043 56.0499 241.245 55.7514C241.329 55.6274 261.072 9.18494 261.417 8.29894C261.509 8.06394 254.037 7.87144 244.814 7.87144H228.044L227.897 4.24644L227.75 0.62144L224.875 0.47144L222 0.32144V6.83944ZM437.029 7.14944C432.214 8.19344 428.628 10.1604 425.194 13.6414C419.02 19.8994 418.021 23.8779 418.008 42.2464L418 55.3714H420.96H423.919L424.104 40.9964C424.316 24.5009 424.612 23.0794 428.793 18.4294C432.877 13.8874 437.453 12.1124 444.172 12.4649C449.176 12.7274 452.605 14.1879 455.93 17.4739C464.072 25.5179 463.02 41.2794 453.901 47.8854C449.513 51.0644 442.845 51.6764 437.648 49.3779C435.092 48.2469 435.223 48.1809 433.487 51.4629L432.513 53.3049L435.382 54.3919C446.303 58.5314 457.107 55.5769 462.929 46.8599C466.117 42.0854 467.24 38.1149 467.24 31.6214C467.24 23.1219 464.973 17.6544 459.334 12.5529C453.556 7.32544 445.366 5.34144 437.029 7.14944ZM659.974 7.28444C654.209 8.78944 649.828 12.2914 647.174 17.5149C644.703 22.3789 644.512 23.9989 644.506 40.2464L644.5 55.3714H647.474H650.448L650.599 39.4964L650.75 23.6214L652.153 20.7644C654.815 15.3434 659.655 12.3714 665.82 12.3714C670.011 12.3714 673.737 13.8144 676.463 16.4949C680.808 20.7669 681.491 24.2649 681.496 42.2464L681.5 55.3714H684.557H687.613L687.364 39.7464C687.166 27.3449 686.951 23.6254 686.322 21.7164C683.67 13.6649 677.841 8.35844 670.02 6.87544C666.354 6.17994 663.806 6.28394 659.974 7.28444ZM769.376 8.98944C768.158 10.4369 763.838 15.6434 759.773 20.5599L752.385 29.4979L740.943 18.0639L729.5 6.62944V31.0004V55.3714H732.5H735.5V38.2489V21.1269L753.138 38.7594L770.776 56.3924L772.638 54.4859C773.662 53.4374 774.5 52.3659 774.5 52.1054C774.5 51.8444 770.471 47.5789 765.547 42.6264L756.596 33.6214L766.307 21.9639C771.649 15.5524 775.899 10.1129 775.753 9.87544C775.606 9.63844 774.609 8.74994 773.537 7.90094L771.589 6.35794L769.376 8.98944ZM845.529 7.14944C843.758 7.53344 841.12 8.42944 839.667 9.14044C836.361 10.7574 831.426 15.5634 829.826 18.7234C827.07 24.1654 826.864 25.5969 826.623 40.9964L826.398 55.3714H829.45H832.5L832.503 43.2464C832.504 36.5774 832.72 29.8119 832.982 28.2109C834.038 21.7614 837.48 16.9274 842.921 14.2514C846.024 12.7249 846.568 12.6214 851.492 12.6214C856.114 12.6214 857.083 12.7784 859.5 13.9199C863.234 15.6834 866.281 18.8004 868.172 22.7919C869.649 25.9089 869.749 26.4724 869.736 31.6214C869.719 38.2844 868.653 41.4804 865.152 45.3749C860.625 50.4089 854.704 51.9899 848.177 49.9064C846.292 49.3049 844.515 48.7099 844.228 48.5849C843.614 48.3164 841.351 52.7259 841.762 53.3904C842.198 54.0954 848.414 55.8779 851.596 56.2104C855.059 56.5724 859.85 55.7014 863.268 54.0879C870.684 50.5884 875.324 42.9559 875.861 33.3714C876.186 27.5774 875.512 24.0294 873.216 19.4389C868.275 9.56344 857.156 4.62794 845.529 7.14944ZM0 13.3469C0 22.3494 1.513 27.1264 5.8745 31.8924C8.7245 35.0069 12.061 37.0239 16.0525 38.0449L18.75 38.7349L18.8825 53.0534L19.0155 67.3714H22.0075H25V53.1309V38.8904L26.375 38.5864C36.461 36.3574 42.5015 29.8004 43.9975 19.4574C44.263 17.6224 44.4845 14.2654 44.49 11.9964L44.5 7.87144H41.559H38.618L38.4185 14.2889C38.2305 20.3229 38.121 20.9049 36.588 24.0179C33.761 29.7614 28.724 32.8714 22.25 32.8714C15.8385 32.8714 9.87801 29.1899 7.44701 23.7284C6.47001 21.5324 6.2565 20.0764 6.0945 14.4964L5.90199 7.87144H2.951H0V13.3469ZM55.5 20.3714V32.8714H58.25H61V20.3714V7.87144H58.25H55.5V20.3714ZM73.5 31.6214V55.3714H76.5H79.5V31.6214V7.87144H76.5H73.5V31.6214ZM92.5 31.6214V55.3714H95.5H98.5V31.6214V7.87144H95.5H92.5V31.6214ZM110.508 20.9964C110.518 35.7564 110.952 39.0139 113.551 43.8904C116.576 49.5659 122.846 54.4114 129 55.8289C132.183 56.5619 139.793 56.4829 142.75 55.6859C148.538 54.1259 153.72 50.4154 156.977 45.4994C160.26 40.5419 160.655 38.1954 160.884 22.2464L161.091 7.87144H158.046H155L154.997 19.9964C154.996 26.6654 154.779 33.4309 154.517 35.0319C153.859 39.0539 152.055 42.7244 149.475 45.2899C140.565 54.1524 124.304 51.8834 118.829 41.0134C117.513 38.3999 116.5 34.3049 116.5 31.5969V29.8714H127H137.5V18.8714V7.87144H134.5H131.5V16.1214V24.3714H124H116.5V16.1214V7.87144H113.5H110.5L110.508 20.9964ZM172.5 10.6214V13.3714H189.5H206.5V34.3714V55.3714H209.5H212.5V31.6214V7.87144H192.5H172.5V10.6214ZM294.5 31.6214V55.3714H317.25H340V31.6214V7.87144H317.25H294.5V31.6214ZM352.5 31.6214V55.3714H355.5H358.5V31.6214V7.87144H355.5H352.5V31.6214ZM371.5 10.6214V13.3714H388.5C397.927 13.3714 405.5 13.5669 405.5 13.8104C405.5 14.0519 401.707 23.1509 397.07 34.0309L388.64 53.8119L391.338 54.9069C392.822 55.5094 394.103 55.9164 394.185 55.8119C394.267 55.7069 398.456 45.8339 403.495 33.8714C408.533 21.9089 413.062 11.1649 413.56 9.99644L414.464 7.87144H392.982H371.5V10.6214ZM477 10.6214V13.3714H494H511V34.3714V55.3714H514H517V31.6214V7.87144H497H477V10.6214ZM596.5 31.6214V55.3714H599.5H602.5V31.6214V7.87144H599.5H596.5V31.6214ZM626 28.6079V49.3449L618.625 49.4829L611.25 49.6214L611.1 52.4964L610.95 55.3714H621.475H632V31.6214V7.87144H629H626V28.6079ZM710.5 28.6079V49.3449L703.125 49.4829L695.75 49.6214L695.6 52.4964L695.45 55.3714H705.975H716.5V31.6214V7.87144H713.5H710.5V28.6079ZM809.5 20.3714V32.8714H812.5H815.5V20.3714V7.87144H812.5H809.5V20.3714ZM334 31.3714V49.3714H317.25H300.5V31.3714V13.3714H317.25H334V31.3714ZM371.5 44.8714V67.3714H374.5H377.5V44.8714V22.3714H374.5H371.5V44.8714ZM173 40.8714V55.3714H176H179V40.8714V26.3714H176H173V40.8714ZM477.5 40.8714V55.3714H480.5H483.5V40.8714V26.3714H480.5H477.5V40.8714ZM565.818 48.4079C564.813 49.1979 564.504 49.8809 564.516 51.2829C564.534 53.4464 565.318 54.6369 567.19 55.3484C569.182 56.1059 571.709 54.9264 572.411 52.9109C573.832 48.8359 569.251 45.7069 565.818 48.4079Z" fill="black"/>
</svg>
