<svg width="325" height="57" viewBox="0 0 325 57" fill="none" xmlns="http://www.w3.org/2000/svg">
<path fill-rule="evenodd" clip-rule="evenodd" d="M12.9142 0.54694C2.25619 3.26044 -2.89834 14.2924 1.66816 24.6159L2.67469 26.8914L5.19465 25.3409C7.32965 24.0274 7.6387 23.6499 7.2212 22.8694C5.9632 20.5189 5.62915 16.9469 6.41615 14.2584C7.95465 9.00094 12.1437 5.86144 17.5917 5.88244C24.2647 5.90794 28.8862 10.6309 28.8457 17.3844C28.8082 23.6299 24.8447 28.1874 17.3472 30.6054L14.7222 31.4519V36.6614V41.8714H17.4722H20.2222V38.6059C20.2222 35.9384 20.3827 35.2874 21.0972 35.0519C26.4082 33.3029 31.0442 29.6064 33.0377 25.5329C34.8182 21.8934 35.2416 15.9144 34.0176 11.7034C31.5981 3.38144 21.9057 -1.74256 12.9142 0.54694ZM108.697 7.28444C102.931 8.78944 98.5502 12.2914 95.8962 17.5149C93.4247 22.3789 93.2347 23.9989 93.2282 40.2464L93.2222 55.3714H96.1962H99.1702L99.3212 39.4964L99.4722 23.6214L100.875 20.7644C103.537 15.3434 108.377 12.3714 114.543 12.3714C118.734 12.3714 122.459 13.8144 125.185 16.4949C129.53 20.7669 130.213 24.2649 130.218 42.2464L130.222 55.3714H133.279H136.335L136.086 39.7464C135.888 27.3449 135.673 23.6254 135.044 21.7164C132.392 13.6649 126.563 8.35844 118.742 6.87544C115.076 6.17994 112.529 6.28394 108.697 7.28444ZM218.098 8.98944C216.881 10.4369 212.56 15.6434 208.496 20.5599L201.107 29.4979L189.665 18.0639L178.222 6.62944V31.0004V55.3714H181.222H184.222V38.2489V21.1269L201.86 38.7594L219.499 56.3924L221.36 54.4859C222.384 53.4374 223.222 52.3659 223.222 52.1054C223.222 51.8444 219.194 47.5789 214.27 42.6264L205.318 33.6214L215.029 21.9639C220.371 15.5524 224.621 10.1129 224.475 9.87544C224.328 9.63844 223.332 8.74994 222.26 7.90094L220.311 6.35794L218.098 8.98944ZM294.252 7.14944C292.48 7.53344 289.842 8.42944 288.389 9.14044C285.084 10.7574 280.148 15.5634 278.548 18.7234C275.792 24.1654 275.587 25.5969 275.346 40.9964L275.121 55.3714H278.172H281.222L281.225 43.2464C281.227 36.5774 281.443 29.8119 281.705 28.2109C282.761 21.7614 286.202 16.9274 291.643 14.2514C294.746 12.7249 295.29 12.6214 300.214 12.6214C304.836 12.6214 305.805 12.7784 308.222 13.9199C311.957 15.6834 315.004 18.8004 316.895 22.7919C318.372 25.9089 318.471 26.4724 318.458 31.6214C318.441 38.2844 317.376 41.4804 313.874 45.3749C309.348 50.4089 303.426 51.9899 296.899 49.9064C295.014 49.3049 293.237 48.7099 292.95 48.5849C292.336 48.3164 290.073 52.7259 290.484 53.3904C290.92 54.0954 297.136 55.8779 300.319 56.2104C303.782 56.5724 308.573 55.7014 311.991 54.0879C319.407 50.5884 324.046 42.9559 324.583 33.3714C324.908 27.5774 324.234 24.0294 321.938 19.4389C316.997 9.56344 305.879 4.62794 294.252 7.14944ZM45.2222 31.6214V55.3714H48.2222H51.2222V31.6214V7.87144H48.2222H45.2222V31.6214ZM74.7222 28.6079V49.3449L67.3472 49.4829L59.9722 49.6214L59.8222 52.4964L59.6722 55.3714H70.1972H80.7222V31.6214V7.87144H77.7222H74.7222V28.6079ZM159.222 28.6079V49.3449L151.847 49.4829L144.472 49.6214L144.322 52.4964L144.172 55.3714H154.697H165.222V31.6214V7.87144H162.222H159.222V28.6079ZM258.222 20.3714V32.8714H261.222H264.222V20.3714V7.87144H261.222H258.222V20.3714ZM14.5397 48.4079C13.5352 49.1979 13.2262 49.8809 13.2382 51.2829C13.2567 53.4464 14.0397 54.6369 15.9117 55.3484C17.9037 56.1059 20.4312 54.9264 21.1332 52.9109C22.5542 48.8359 17.9732 45.7069 14.5397 48.4079Z" fill="black"/>
</svg>
