<svg width="208" height="44" viewBox="0 0 208 44" fill="none" xmlns="http://www.w3.org/2000/svg">
<path fill-rule="evenodd" clip-rule="evenodd" d="M197.647 8.04618C194.021 12.4715 190.939 16.1013 190.797 16.1121C190.592 16.1275 185.299 10.0443 177.745 1.11117L176.993 0.22209L175.503 1.41972C174.683 2.07846 174.017 2.79245 174.024 3.00593C174.03 3.21976 179.264 9.52976 185.655 17.0284L197.273 30.6624L185.643 30.7571L174.012 30.8515V32.9995V35.1472H190.37H206.729L205.297 33.443C204.509 32.5055 201.654 29.1555 198.951 25.9981C196.249 22.8408 193.96 20.0699 193.865 19.841C193.771 19.6117 196.704 15.8175 200.385 11.4095C204.066 7.00103 207.165 3.18496 207.273 2.92879C207.462 2.4803 207.243 2.24745 205.181 0.705018L204.239 0L197.647 8.04618ZM0 3.0357V5.00904H9.68727H19.3745V20.0781V35.1472H21.5273H23.68V18.1048V1.06237H11.84H0V3.0357ZM32.7247 11.7363C32.8452 22.2122 32.8646 22.4551 33.7749 24.8174C34.9495 27.8653 36.9228 30.4736 39.5589 32.4628C42.671 34.811 45.0146 35.5756 49.7219 35.779C54.0812 35.9671 56.3376 35.5239 59.7038 33.8179C61.9943 32.6572 65.318 29.337 66.4733 27.0551C68.3846 23.281 68.5285 22.1731 68.5285 11.2225V1.06237H66.5552H64.5818L64.57 9.2248C64.5564 18.8522 64.2858 21.3812 62.9519 24.3534C59.7339 31.5242 49.9285 34.1136 42.934 29.6391C39.1753 27.2349 36.9709 23.1443 36.9594 18.5533L36.9552 16.849H44.4897H52.0242V8.9557V1.06237H49.8715H47.7188V6.98237V12.9024H42.337H36.9552V6.98237V1.06237H34.7784H32.6016L32.7247 11.7363ZM77.857 3.0357V5.00904H90.0942C99.7405 5.00904 102.293 5.10412 102.152 5.45752C102.053 5.70437 99.2906 12.1938 96.0124 19.879C92.7345 27.5642 90.1742 33.9525 90.3231 34.0748C90.9244 34.5692 93.6648 35.6043 93.8589 35.4102C94.0695 35.1996 107.83 2.84806 108.201 1.69025C108.391 1.09897 107.513 1.06237 93.1295 1.06237H77.857V3.0357ZM129.881 3.0357V5.00904H139.748H149.615V20.0781V35.1472H151.767H153.92V18.1048V1.06237H141.901H129.881V3.0357ZM162.89 18.1048V35.1472H165.042H167.195V18.1048V1.06237H165.042H162.89V18.1048ZM77.857 27.6306V43.794L79.92 43.6864L81.983 43.5787L82.0763 27.523L82.17 11.4672H80.0133H77.857V27.6306Z" fill="black"/>
</svg>
