<svg width="289" height="62" viewBox="0 0 289 62" fill="none" xmlns="http://www.w3.org/2000/svg">
<path fill-rule="evenodd" clip-rule="evenodd" d="M275.437 11.213C270.384 17.38 266.088 22.4385 265.891 22.4535C265.605 22.475 258.23 13.9975 247.702 1.5485L246.654 0.309501L244.577 1.9785C243.435 2.8965 242.507 3.8915 242.516 4.189C242.525 4.487 249.819 13.2805 258.725 23.7305L274.917 42.7305L258.708 42.8625L242.5 42.994V45.9875V48.9805H265.297H288.093L286.098 46.6055C285.001 45.299 281.021 40.6305 277.255 36.2305C273.489 31.8305 270.298 27.969 270.167 27.65C270.035 27.3305 274.124 22.043 279.253 15.9C284.382 9.7565 288.701 4.4385 288.852 4.0815C289.115 3.4565 288.81 3.132 285.937 0.9825L284.623 0L275.437 11.213ZM0 4.2305V6.9805H13.5H27V27.9805V48.9805H30H33V25.2305V1.4805H16.5H0V4.2305ZM45.6045 16.3555C45.7725 30.9545 45.7995 31.293 47.068 34.585C48.705 38.8325 51.455 42.4675 55.1285 45.2395C59.4655 48.512 62.7315 49.5775 69.2915 49.861C75.3665 50.123 78.511 49.5055 83.202 47.128C86.394 45.5105 91.026 40.8835 92.636 37.7035C95.2995 32.444 95.5 30.9 95.5 15.6395V1.4805H92.75H90L89.9835 12.8555C89.9645 26.272 89.5875 29.7965 87.7285 33.9385C83.244 43.9315 69.5795 47.54 59.832 41.3045C54.594 37.954 51.522 32.2535 51.506 25.8555L51.5 23.4805H62H72.5V12.4805V1.4805H69.5H66.5V9.7305V17.9805H59H51.5V9.7305V1.4805H48.4665H45.433L45.6045 16.3555ZM108.5 4.2305V6.9805H125.554C138.997 6.9805 142.554 7.113 142.357 7.6055C142.219 7.9495 138.37 16.993 133.801 27.703C129.233 38.413 125.665 47.3155 125.872 47.486C126.71 48.175 130.529 49.6175 130.8 49.347C131.093 49.0535 150.269 3.969 150.786 2.3555C151.051 1.5315 149.828 1.4805 129.784 1.4805H108.5V4.2305ZM181 4.2305V6.9805H194.75H208.5V27.9805V48.9805H211.5H214.5V25.2305V1.4805H197.75H181V4.2305ZM227 25.2305V48.9805H230H233V25.2305V1.4805H230H227V25.2305ZM108.5 38.5055V61.0305L111.375 60.8805L114.25 60.7305L114.38 38.3555L114.51 15.9805H111.505H108.5V38.5055Z" fill="black"/>
</svg>
