<svg width="438" height="79" viewBox="0 0 438 79" fill="none" xmlns="http://www.w3.org/2000/svg">
<path fill-rule="evenodd" clip-rule="evenodd" d="M27 16.5V23H42.5C51.025 23 58 23.093 58 23.207C58 23.321 54.1695 32.353 49.488 43.2785C44.806 54.2035 41.104 63.2705 41.261 63.4275C41.611 63.7775 46.148 65.52 46.301 65.363C46.4875 65.171 66.5 17.983 66.5 17.734C66.5 17.6055 58.9625 17.5 49.75 17.5H33V13.75V10H30H27V16.5ZM114.876 18.618C113.658 20.0655 109.338 25.272 105.273 30.1885L97.8845 39.1265L86.4425 27.6925L75 16.258V40.629V65H78H81V47.8775V30.7555L98.638 48.388L116.276 66.021L118.138 64.1145C119.162 63.066 120 61.9945 120 61.734C120 61.473 115.972 57.2075 111.048 52.255L102.095 43.25L111.807 31.5925C117.148 25.181 121.399 19.7415 121.253 19.504C121.106 19.267 120.109 18.3785 119.037 17.5295L117.089 15.9865L114.876 18.618ZM226.5 16.907C219.003 18.8665 214.1 23.7245 211.805 31.466C211.141 33.7055 211 36.882 211 49.591V65H213.975H216.949L217.1 48.875L217.25 32.75L218.585 30.221C221.417 24.8555 226.139 22 232.18 22C233.908 22 236.373 22.358 237.658 22.796C240.85 23.8835 244.59 27.3635 246.057 30.6105C247.222 33.1875 247.254 33.6265 247.401 49.125L247.552 65H250.526H253.5V49.947C253.5 30.591 252.879 27.81 247.32 22.2585C241.848 16.794 234.327 14.861 226.5 16.907ZM131 20.25V23H148.053C161.496 23 165.054 23.1325 164.857 23.625C164.719 23.969 160.869 33.0125 156.301 43.7225C151.733 54.4325 148.165 63.335 148.372 63.5055C149.21 64.1945 153.03 65.637 153.3 65.3665C153.594 65.073 172.769 19.9885 173.286 18.375C173.551 17.551 172.327 17.5 152.283 17.5H131V20.25ZM179 20.25V23H184H189V44V65H192H195V44V23H200H205V20.25V17.5H192H179V20.25ZM265 30V42.5H268H271V30V17.5H268H265V30ZM308 30V42.5H311H314V30V17.5H311H308V30ZM327.5 38.25V59H322H316.5V62V65H338.25H360V41.25V17.5H357H354V38.25V59H343.75H333.5V38.25V17.5H330.5H327.5V38.25ZM372.5 41.25V65H375.5H378.5V41.25V17.5H375.5H372.5V41.25ZM388 20.25V23H401.75H415.5V44V65H418.5H421.5V41.25V17.5H404.75H388V20.25ZM131 54.525V77.05L133.875 76.9L136.75 76.75L136.88 54.375L137.01 32H134.005H131V54.525Z" fill="black"/>
</svg>
