<svg width="778" height="57" viewBox="0 0 778 57" fill="none" xmlns="http://www.w3.org/2000/svg">
<path fill-rule="evenodd" clip-rule="evenodd" d="M1.6695 13.581C1.8515 21.051 2 29.826 2 33.081V39H4.6705H7.3405L7.669 28.125C7.85 22.144 7.998 13.3685 7.999 8.625L8 0H4.6695H1.3395L1.6695 13.581ZM76 6.5V13H91.5C100.025 13 107 13.1755 107 13.3895C107 13.6035 103.284 22.435 98.7435 33.0145C94.2025 43.594 90.4335 52.55 90.3685 52.9165C90.255 53.5535 94.938 55.7285 95.409 55.2575C95.735 54.932 115.5 8.323 115.5 7.8805C115.5 7.671 107.962 7.5 98.75 7.5H82V3.75V0H79H76V6.5ZM311.5 30.379V55H314.5H317.5V37.8775V20.7555L335.253 38.5025L353.007 56.25L354.97 54L356.933 51.75L347.881 42.6595L338.829 33.569L340.098 31.9095C340.796 30.9965 345.219 25.6375 349.927 20L358.486 9.75L356.868 8.363C353.714 5.6585 354.491 5.093 344.235 17.5445L334.78 29.0225L323.14 17.3905L311.5 5.758V30.379ZM483.474 6.913C477.709 8.418 473.328 11.92 470.674 17.1435C468.203 22.0075 468.013 23.6275 468.006 39.875L468 55H470.974H473.948L474.099 39.125L474.25 23.25L475.653 20.393C478.315 14.972 483.155 12 489.32 12C493.511 12 497.237 13.443 499.963 16.1235C504.308 20.3955 504.991 23.8935 504.996 41.875L505 55H508.057H511.113L510.864 39.375C510.666 26.9735 510.451 23.254 509.822 21.345C507.17 13.2935 501.341 7.987 493.52 6.504C489.854 5.8085 487.306 5.9125 483.474 6.913ZM555.981 17.1355C550.952 23.2485 546.644 28.4685 546.408 28.7355C546.148 29.0295 541.454 24.6985 534.49 17.7395L523 6.258V30.629V55H526H529V37.8775V20.7555L546.637 38.387L564.273 56.0185L566.38 53.872L568.487 51.726L559.493 42.743C554.547 37.8025 550.5 33.591 550.5 33.3845C550.5 33.1775 554.775 27.853 560 21.552C565.225 15.251 569.5 9.93 569.5 9.728C569.5 9.3645 569 8.919 566.437 7.0025L565.125 6.0205L555.981 17.1355ZM670.5 6.907C663.003 8.8665 658.1 13.7245 655.805 21.466C655.141 23.7055 655 26.882 655 39.591V55H657.974H660.948L661.099 38.875L661.25 22.75L662.584 20.221C665.416 14.8555 670.139 12 676.18 12C677.908 12 680.373 12.358 681.658 12.796C684.85 13.8835 688.59 17.3635 690.057 20.6105C691.222 23.1875 691.254 23.6265 691.401 39.125L691.552 55H694.526H697.5V39.947C697.5 20.591 696.879 17.81 691.32 12.2585C685.848 6.794 678.327 4.861 670.5 6.907ZM21 31.25V55H43.75H66.5V31.25V7.5H43.75H21V31.25ZM123.508 20.625C123.518 35.385 123.952 38.6425 126.551 43.519C129.576 49.1945 135.846 54.04 142 55.4575C145.183 56.1905 152.793 56.1115 155.75 55.3145C161.538 53.7545 166.721 50.044 169.977 45.128C173.261 40.1705 173.655 37.824 173.885 21.875L174.091 7.5H171.046H168L167.997 19.625C167.995 26.294 167.78 33.0595 167.518 34.6605C166.859 38.6825 165.055 42.353 162.475 44.9185C153.565 53.781 137.304 51.512 131.829 40.642C130.513 38.0285 129.5 33.9335 129.5 31.2255V29.5H140H150.5V18.5V7.5H147.5H144.5V15.75V24H137H129.5V15.75V7.5H126.5H123.5L123.508 20.625ZM208 10.25V13H221.5H235V34V55H238H241V31.25V7.5H224.5H208V10.25ZM253 10.25V13H257.75H262.5V31V49H256.5H250.5V52V55H259.5H268.5V34V13H280.75H293V34V55H296H299V31.25V7.5H276H253V10.25ZM409.5 10.25V13H414.25H419V30.984V48.9685L413.125 49.109L407.25 49.25L407.1 52.125L406.95 55H415.975H425V33.9915V12.9825L437.375 13.1165L449.75 13.25L449.88 34.125L450.011 55H452.755H455.5V31.25V7.5H432.5H409.5V10.25ZM603 10.25V13H619.75H636.5V34V55H639.5H642.5V31.25V7.5H622.75H603V10.25ZM709 20V32.5H712H715V20V7.5H712H709V20ZM727.008 20.625C727.018 35.385 727.451 38.6425 730.05 43.519C733.075 49.1945 739.346 54.04 745.5 55.4575C748.683 56.1905 756.293 56.1115 759.25 55.3145C765.038 53.7545 770.22 50.044 773.477 45.128C776.76 40.1705 777.155 37.824 777.385 21.875L777.591 7.5H774.545H771.5L771.497 19.625C771.496 26.294 771.28 33.0595 771.018 34.6605C770.359 38.6825 768.555 42.353 765.976 44.9185C757.066 53.781 740.805 51.512 735.33 40.642C734.013 38.0285 733 33.9335 733 31.2255V29.5H743.5H754V18.5V7.5H751H748V15.75V24H740.5H733V15.75V7.5H730H727L727.008 20.625ZM60.5 31V49H43.75H27V31V13H43.75H60.5V31ZM603.5 40.5V55H606.5H609.5V40.5V26H606.5H603.5V40.5ZM2.6785 46.496C1.2015 47.092 0 48.946 0 50.629C0 54.699 4.7475 56.6715 7.8325 53.8835C11.6615 50.4235 7.55 44.53 2.6785 46.496ZM391.928 46.7335C389.484 48.107 389.082 51.581 391.108 53.8245C393.836 56.844 399 54.6985 399 50.5455C399 47.292 394.883 45.073 391.928 46.7335Z" fill="#1E1E1E"/>
</svg>
