<svg width="56" height="15" viewBox="0 0 56 15" fill="none" xmlns="http://www.w3.org/2000/svg">
<path d="M12.38 13.7402C12.3934 13.7668 12.4 13.8135 12.4 13.8802C12.4 13.9602 12.3734 14.0268 12.32 14.0802C12.28 14.1335 12.2134 14.1602 12.12 14.1602H10.9C10.78 14.1602 10.6867 14.1402 10.62 14.1002C10.5534 14.0468 10.5 13.9602 10.46 13.8402L9.34002 10.6402H3.10002L1.98002 13.8402C1.94002 13.9602 1.88668 14.0468 1.82002 14.1002C1.75335 14.1402 1.66002 14.1602 1.54002 14.1602H0.320017C0.21335 14.1602 0.13335 14.1202 0.0800171 14.0402C0.0266838 13.9468 0.0200171 13.8468 0.0600171 13.7402L4.82002 0.320156C4.86002 0.200156 4.91335 0.120155 4.98002 0.0801551C5.06002 0.0268225 5.16668 0.000156164 5.30002 0.000156164H7.14002C7.27335 0.000156164 7.37335 0.0268225 7.44002 0.0801551C7.52002 0.120155 7.58002 0.200156 7.62002 0.320156L12.38 13.7402ZM6.18002 1.64016L3.64002 8.96016H8.80002L6.26002 1.64016H6.18002ZM19.5813 3.80016C21.1013 3.80016 22.2746 4.26016 23.1013 5.18016C23.9413 6.10016 24.3613 7.40682 24.3613 9.10016C24.3613 10.7935 23.9413 12.1002 23.1013 13.0202C22.2746 13.9402 21.1013 14.4002 19.5813 14.4002C18.0079 14.4002 16.8346 13.9135 16.0613 12.9402H16.0013L15.9813 13.8002C15.9679 13.9335 15.9346 14.0268 15.8813 14.0802C15.8413 14.1335 15.7546 14.1602 15.6213 14.1602H14.6613C14.5279 14.1602 14.4346 14.1335 14.3813 14.0802C14.3279 14.0268 14.3013 13.9335 14.3013 13.8002V0.360155C14.3013 0.226822 14.3279 0.133489 14.3813 0.0801551C14.4346 0.0268225 14.5279 0.000156164 14.6613 0.000156164H15.7013C15.8346 0.000156164 15.9279 0.0268225 15.9813 0.0801551C16.0346 0.133489 16.0613 0.226822 16.0613 0.360155V5.20016H16.1213C16.8679 4.26682 18.0213 3.80016 19.5813 3.80016ZM19.3013 12.7602C20.3679 12.7602 21.1746 12.4535 21.7213 11.8402C22.2679 11.2135 22.5413 10.3002 22.5413 9.10016C22.5413 7.90016 22.2679 6.99349 21.7213 6.38016C21.1746 5.75349 20.3679 5.44016 19.3013 5.44016C18.2346 5.44016 17.4279 5.75349 16.8813 6.38016C16.3346 6.99349 16.0613 7.90016 16.0613 9.10016C16.0613 10.3002 16.3346 11.2135 16.8813 11.8402C17.4279 12.4535 18.2346 12.7602 19.3013 12.7602ZM31.3422 3.80016C32.9555 3.80016 34.2022 4.25349 35.0822 5.16016C35.9622 6.06682 36.4022 7.38016 36.4022 9.10016C36.4022 10.8202 35.9622 12.1335 35.0822 13.0402C34.2022 13.9468 32.9555 14.4002 31.3422 14.4002C29.7289 14.4002 28.4822 13.9468 27.6022 13.0402C26.7222 12.1335 26.2822 10.8202 26.2822 9.10016C26.2822 7.38016 26.7222 6.06682 27.6022 5.16016C28.4822 4.25349 29.7289 3.80016 31.3422 3.80016ZM31.3422 12.7602C32.4089 12.7602 33.2155 12.4535 33.7622 11.8402C34.3089 11.2135 34.5822 10.3002 34.5822 9.10016C34.5822 7.90016 34.3089 6.99349 33.7622 6.38016C33.2155 5.75349 32.4089 5.44016 31.3422 5.44016C30.2755 5.44016 29.4689 5.75349 28.9222 6.38016C28.3755 6.99349 28.1022 7.90016 28.1022 9.10016C28.1022 10.3002 28.3755 11.2135 28.9222 11.8402C29.4689 12.4535 30.2755 12.7602 31.3422 12.7602ZM47.1535 4.04016C47.2868 4.04016 47.3801 4.06682 47.4335 4.12016C47.4868 4.17349 47.5135 4.26682 47.5135 4.40016V13.8002C47.5135 13.9335 47.4868 14.0268 47.4335 14.0802C47.3801 14.1335 47.2868 14.1602 47.1535 14.1602H46.2335C45.9801 14.1602 45.8468 14.0535 45.8335 13.8402L45.7935 12.9402H45.7135C45.4335 13.3802 45.0135 13.7268 44.4535 13.9802C43.9068 14.2335 43.2535 14.3602 42.4935 14.3602C41.2135 14.3602 40.2535 14.0135 39.6135 13.3202C38.9868 12.6268 38.6735 11.6135 38.6735 10.2802V4.40016C38.6735 4.26682 38.7001 4.17349 38.7535 4.12016C38.8068 4.06682 38.9001 4.04016 39.0335 4.04016H40.0735C40.2068 4.04016 40.3001 4.06682 40.3535 4.12016C40.4068 4.17349 40.4335 4.26682 40.4335 4.40016V10.0402C40.4335 11.0002 40.6268 11.6868 41.0135 12.1002C41.4001 12.5135 42.0335 12.7202 42.9135 12.7202C43.8201 12.7202 44.5201 12.4668 45.0135 11.9602C45.5068 11.4535 45.7535 10.7468 45.7535 9.84016V4.40016C45.7535 4.26682 45.7801 4.17349 45.8335 4.12016C45.8868 4.06682 45.9801 4.04016 46.1135 4.04016H47.1535ZM55.656 12.6202C55.8293 12.6202 55.916 12.7135 55.916 12.9002V13.8202C55.916 14.0068 55.8293 14.1202 55.656 14.1602C55.2293 14.2935 54.7226 14.3602 54.136 14.3602C53.0426 14.3602 52.2693 14.1202 51.816 13.6402C51.376 13.1602 51.156 12.3735 51.156 11.2802V5.68016H49.656C49.4293 5.68016 49.316 5.56682 49.316 5.34016V4.40016C49.316 4.16016 49.4293 4.04016 49.656 4.04016H51.156V1.40016C51.156 1.26682 51.1826 1.17349 51.236 1.12016C51.2893 1.06682 51.3826 1.04016 51.516 1.04016H52.556C52.6893 1.04016 52.7826 1.06682 52.836 1.12016C52.8893 1.17349 52.916 1.26682 52.916 1.40016V4.04016H55.536C55.7626 4.04016 55.876 4.16016 55.876 4.40016V5.34016C55.876 5.56682 55.7626 5.68016 55.536 5.68016H52.916V11.1202C52.916 11.7602 53.0226 12.1868 53.236 12.4002C53.4626 12.6135 53.8693 12.7202 54.456 12.7202C54.8426 12.7202 55.216 12.6868 55.576 12.6202H55.656Z" fill="#1F1F1F"/>
</svg>
