<svg width="71" height="15" viewBox="0 0 71 15" fill="none" xmlns="http://www.w3.org/2000/svg">
<path d="M6.62001 0.000390053C7.35334 0.000390053 8.08001 0.0870568 8.80001 0.26039C9.53334 0.42039 10.06 0.613723 10.38 0.84039C10.5133 0.933724 10.58 1.02706 10.58 1.12039C10.58 1.16039 10.5667 1.22039 10.54 1.30039L10.12 2.22039C10.0667 2.35372 9.96667 2.42039 9.82001 2.42039C9.75334 2.42039 9.68667 2.40039 9.62 2.36039C8.74001 1.93372 7.76667 1.72039 6.70001 1.72039C5.11334 1.72039 3.90667 2.20039 3.08001 3.16039C2.26667 4.10706 1.86 5.49372 1.86 7.32039C1.86 9.14706 2.26667 10.5404 3.08001 11.5004C3.90667 12.4471 5.12001 12.9204 6.72001 12.9204C7.80001 12.9204 8.78001 12.7071 9.66001 12.2804C9.72667 12.2404 9.79334 12.2204 9.86001 12.2204C10.0067 12.2204 10.1067 12.2871 10.16 12.4204L10.58 13.3404C10.6067 13.4204 10.62 13.4804 10.62 13.5204C10.62 13.6137 10.5533 13.7071 10.42 13.8004C10.1 14.0271 9.57334 14.2271 8.84001 14.4004C8.12001 14.5604 7.38667 14.6404 6.64001 14.6404C4.49334 14.6404 2.84667 14.0137 1.7 12.7604C0.566672 11.5071 4.91738e-06 9.69372 4.91738e-06 7.32039C4.91738e-06 4.94706 0.566672 3.13372 1.7 1.88039C2.83334 0.627057 4.47334 0.000390053 6.62001 0.000390053ZM17.2438 4.04039C18.8571 4.04039 20.1038 4.49372 20.9838 5.40039C21.8638 6.30706 22.3038 7.62039 22.3038 9.34039C22.3038 11.0604 21.8638 12.3737 20.9838 13.2804C20.1038 14.1871 18.8571 14.6404 17.2438 14.6404C15.6304 14.6404 14.3838 14.1871 13.5038 13.2804C12.6238 12.3737 12.1838 11.0604 12.1838 9.34039C12.1838 7.62039 12.6238 6.30706 13.5038 5.40039C14.3838 4.49372 15.6304 4.04039 17.2438 4.04039ZM17.2438 13.0004C18.3104 13.0004 19.1171 12.6937 19.6638 12.0804C20.2104 11.4537 20.4838 10.5404 20.4838 9.34039C20.4838 8.14039 20.2104 7.23372 19.6638 6.62039C19.1171 5.99372 18.3104 5.68039 17.2438 5.68039C16.1771 5.68039 15.3704 5.99372 14.8238 6.62039C14.2771 7.23372 14.0038 8.14039 14.0038 9.34039C14.0038 10.5404 14.2771 11.4537 14.8238 12.0804C15.3704 12.6937 16.1771 13.0004 17.2438 13.0004ZM29.695 4.08039C30.975 4.08039 31.935 4.43372 32.575 5.14039C33.215 5.84706 33.535 6.86706 33.535 8.20039V14.0404C33.535 14.1737 33.5083 14.2671 33.455 14.3204C33.4017 14.3737 33.3083 14.4004 33.175 14.4004H32.135C32.0017 14.4004 31.9083 14.3737 31.855 14.3204C31.8017 14.2671 31.775 14.1737 31.775 14.0404V8.44039C31.775 7.48039 31.575 6.78706 31.175 6.36039C30.775 5.93372 30.1417 5.72039 29.275 5.72039C28.3683 5.72039 27.6617 5.98039 27.155 6.50039C26.6617 7.00706 26.415 7.70706 26.415 8.60039V14.0404C26.415 14.1737 26.3883 14.2671 26.335 14.3204C26.2817 14.3737 26.1883 14.4004 26.055 14.4004H25.015C24.8817 14.4004 24.7883 14.3737 24.735 14.3204C24.6817 14.2671 24.655 14.1737 24.655 14.0404V4.64039C24.655 4.50706 24.6817 4.41372 24.735 4.36039C24.7883 4.30706 24.8817 4.28039 25.015 4.28039H25.935C26.1883 4.28039 26.3217 4.38706 26.335 4.60039L26.375 5.50039H26.455C26.735 5.06039 27.155 4.71372 27.715 4.46039C28.275 4.20706 28.935 4.08039 29.695 4.08039ZM41.5575 12.8604C41.7308 12.8604 41.8175 12.9537 41.8175 13.1404V14.0604C41.8175 14.2471 41.7308 14.3604 41.5575 14.4004C41.1308 14.5337 40.6242 14.6004 40.0375 14.6004C38.9442 14.6004 38.1708 14.3604 37.7175 13.8804C37.2775 13.4004 37.0575 12.6137 37.0575 11.5204V5.92039H35.5575C35.3308 5.92039 35.2175 5.80706 35.2175 5.58039V4.64039C35.2175 4.40039 35.3308 4.28039 35.5575 4.28039H37.0575V1.64039C37.0575 1.50706 37.0842 1.41372 37.1375 1.36039C37.1908 1.30706 37.2842 1.28039 37.4175 1.28039H38.4575C38.5908 1.28039 38.6842 1.30706 38.7375 1.36039C38.7908 1.41372 38.8175 1.50706 38.8175 1.64039V4.28039H41.4375C41.6642 4.28039 41.7775 4.40039 41.7775 4.64039V5.58039C41.7775 5.80706 41.6642 5.92039 41.4375 5.92039H38.8175V11.3604C38.8175 12.0004 38.9242 12.4271 39.1375 12.6404C39.3642 12.8537 39.7708 12.9604 40.3575 12.9604C40.7442 12.9604 41.1175 12.9271 41.4775 12.8604H41.5575ZM48.0561 4.04039C49.4028 4.04039 50.4428 4.34039 51.1761 4.94039C51.9228 5.54039 52.2961 6.44039 52.2961 7.64039V14.0404C52.2961 14.1737 52.2694 14.2671 52.2161 14.3204C52.1628 14.3737 52.0694 14.4004 51.9361 14.4004H51.0161C50.7628 14.4004 50.6294 14.2937 50.6161 14.0804L50.5761 13.1404H50.4961C50.2428 13.5671 49.8294 13.9271 49.2561 14.2204C48.6828 14.5004 47.9628 14.6404 47.0961 14.6404C45.8961 14.6404 44.9694 14.3737 44.3161 13.8404C43.6628 13.2937 43.3361 12.4937 43.3361 11.4404C43.3361 10.2937 43.7628 9.48706 44.6161 9.02039C45.4694 8.55372 46.7694 8.32039 48.5161 8.32039H50.5361V7.76039C50.5361 7.00039 50.3094 6.46039 49.8561 6.14039C49.4161 5.80706 48.7561 5.64039 47.8761 5.64039C46.8094 5.64039 45.7561 5.86039 44.7161 6.30039C44.6628 6.32706 44.5961 6.34039 44.5161 6.34039C44.3961 6.34039 44.3028 6.28039 44.2361 6.16039L43.8561 5.28039C43.8294 5.20039 43.8161 5.15372 43.8161 5.14039C43.8161 4.98039 44.0494 4.81372 44.5161 4.64039C44.9828 4.46706 45.5494 4.32706 46.2161 4.22039C46.8961 4.10039 47.5094 4.04039 48.0561 4.04039ZM47.3761 13.0804C48.3894 13.0804 49.1694 12.8204 49.7161 12.3004C50.2628 11.7804 50.5361 11.1004 50.5361 10.2604V9.84039H48.7161C47.8494 9.84039 47.1628 9.88039 46.6561 9.96039C46.1494 10.0404 45.7628 10.2004 45.4961 10.4404C45.2294 10.6671 45.0961 11.0137 45.0961 11.4804C45.0961 12.0671 45.2894 12.4804 45.6761 12.7204C46.0628 12.9604 46.6294 13.0804 47.3761 13.0804ZM59.7066 4.04039C60.3199 4.04039 60.9132 4.11372 61.4866 4.26039C62.0599 4.40706 62.4932 4.57372 62.7866 4.76039C62.9199 4.85372 62.9866 4.94706 62.9866 5.04039C62.9866 5.08039 62.9732 5.14039 62.9466 5.22039L62.5666 6.06039C62.4999 6.20706 62.3999 6.28039 62.2666 6.28039C62.1999 6.28039 62.1399 6.26039 62.0866 6.22039C61.7932 6.06039 61.4466 5.93372 61.0466 5.84039C60.6466 5.73372 60.2266 5.68039 59.7866 5.68039C58.6666 5.68039 57.8199 5.99372 57.2466 6.62039C56.6732 7.23372 56.3866 8.14039 56.3866 9.34039C56.3866 10.5404 56.6732 11.4537 57.2466 12.0804C57.8199 12.6937 58.6666 13.0004 59.7866 13.0004C60.2266 13.0004 60.6466 12.9537 61.0466 12.8604C61.4466 12.7537 61.7932 12.6204 62.0866 12.4604C62.1399 12.4204 62.1999 12.4004 62.2666 12.4004C62.3999 12.4004 62.4999 12.4737 62.5666 12.6204L62.9466 13.4604C62.9732 13.5404 62.9866 13.6004 62.9866 13.6404C62.9866 13.7337 62.9199 13.8271 62.7866 13.9204C62.4932 14.1071 62.0599 14.2737 61.4866 14.4204C60.9132 14.5671 60.3199 14.6404 59.7066 14.6404C58.0799 14.6404 56.8132 14.1871 55.9066 13.2804C55.0132 12.3604 54.5666 11.0471 54.5666 9.34039C54.5666 7.63372 55.0132 6.32706 55.9066 5.42039C56.8132 4.50039 58.0799 4.04039 59.7066 4.04039ZM70.6591 12.8604C70.8324 12.8604 70.9191 12.9537 70.9191 13.1404V14.0604C70.9191 14.2471 70.8324 14.3604 70.6591 14.4004C70.2324 14.5337 69.7257 14.6004 69.1391 14.6004C68.0457 14.6004 67.2724 14.3604 66.8191 13.8804C66.3791 13.4004 66.1591 12.6137 66.1591 11.5204V5.92039H64.6591C64.4324 5.92039 64.3191 5.80706 64.3191 5.58039V4.64039C64.3191 4.40039 64.4324 4.28039 64.6591 4.28039H66.1591V1.64039C66.1591 1.50706 66.1857 1.41372 66.2391 1.36039C66.2924 1.30706 66.3857 1.28039 66.5191 1.28039H67.5591C67.6924 1.28039 67.7857 1.30706 67.8391 1.36039C67.8924 1.41372 67.9191 1.50706 67.9191 1.64039V4.28039H70.5391C70.7657 4.28039 70.8791 4.40039 70.8791 4.64039V5.58039C70.8791 5.80706 70.7657 5.92039 70.5391 5.92039H67.9191V11.3604C67.9191 12.0004 68.0257 12.4271 68.2391 12.6404C68.4657 12.8537 68.8724 12.9604 69.4591 12.9604C69.8457 12.9604 70.2191 12.9271 70.5791 12.8604H70.6591Z" fill="#1F1F1F"/>
</svg>
