<svg width="164" height="50" viewBox="0 0 164 50" fill="none" xmlns="http://www.w3.org/2000/svg">
<rect width="164" height="50" rx="25" fill="#F9F4EA"/>
<path d="M43.0869 17.84C43.2202 17.84 43.3135 17.8667 43.3669 17.92C43.4202 17.9733 43.4469 18.0667 43.4469 18.2V30.28H49.9869C50.2135 30.28 50.3269 30.3933 50.3269 30.62V31.64C50.3269 31.88 50.2135 32 49.9869 32H42.0069C41.8735 32 41.7802 31.9733 41.7269 31.92C41.6735 31.8667 41.6469 31.7733 41.6469 31.64V18.2C41.6469 18.0667 41.6735 17.9733 41.7269 17.92C41.7802 17.8667 41.8735 17.84 42.0069 17.84H43.0869ZM56.9248 21.64C58.3782 21.64 59.5182 22.08 60.3448 22.96C61.1848 23.84 61.6048 25.04 61.6048 26.56V27.38C61.6048 27.6067 61.4848 27.72 61.2448 27.72H53.7648C53.8582 28.76 54.1848 29.5133 54.7448 29.98C55.3182 30.4467 56.1515 30.68 57.2448 30.68C58.3782 30.68 59.3715 30.4467 60.2248 29.98C60.3048 29.94 60.3715 29.92 60.4248 29.92C60.5315 29.92 60.6182 29.9867 60.6848 30.12L61.0448 30.9L61.0848 31.06C61.0848 31.18 61.0182 31.2867 60.8848 31.38C60.5648 31.5933 60.0515 31.7933 59.3448 31.98C58.6382 32.1533 57.9248 32.24 57.2048 32.24C55.5115 32.24 54.2048 31.7933 53.2848 30.9C52.3782 30.0067 51.9248 28.6867 51.9248 26.94C51.9248 25.2333 52.3648 23.9267 53.2448 23.02C54.1248 22.1 55.3515 21.64 56.9248 21.64ZM56.9248 23.24C55.9382 23.24 55.1848 23.4733 54.6648 23.94C54.1582 24.4067 53.8582 25.16 53.7648 26.2H59.8448C59.7648 24.2267 58.7915 23.24 56.9248 23.24ZM69.1111 30.46C69.2844 30.46 69.3711 30.5533 69.3711 30.74V31.66C69.3711 31.8467 69.2844 31.96 69.1111 32C68.6844 32.1333 68.1778 32.2 67.5911 32.2C66.4978 32.2 65.7244 31.96 65.2711 31.48C64.8311 31 64.6111 30.2133 64.6111 29.12V23.52H63.1111C62.8844 23.52 62.7711 23.4067 62.7711 23.18V22.24C62.7711 22 62.8844 21.88 63.1111 21.88H64.6111V19.24C64.6111 19.1067 64.6378 19.0133 64.6911 18.96C64.7444 18.9067 64.8378 18.88 64.9711 18.88H66.0111C66.1444 18.88 66.2378 18.9067 66.2911 18.96C66.3444 19.0133 66.3711 19.1067 66.3711 19.24V21.88H68.9911C69.2178 21.88 69.3311 22 69.3311 22.24V23.18C69.3311 23.4067 69.2178 23.52 68.9911 23.52H66.3711V28.96C66.3711 29.6 66.4778 30.0267 66.6911 30.24C66.9178 30.4533 67.3244 30.56 67.9111 30.56C68.2978 30.56 68.6711 30.5267 69.0311 30.46H69.1111ZM73.4841 17.84C73.6174 17.84 73.7041 17.88 73.7441 17.96C73.7974 18.04 73.8041 18.1333 73.7641 18.24L72.3241 23.3C72.2974 23.4067 72.2574 23.4867 72.2041 23.54C72.1507 23.58 72.0641 23.6 71.9441 23.6H71.2041C70.9907 23.6 70.9041 23.4867 70.9441 23.26L71.9041 18.2C71.9307 18.0667 71.9707 17.9733 72.0241 17.92C72.0774 17.8667 72.1641 17.84 72.2841 17.84H73.4841ZM79.3186 21.66C79.9719 21.66 80.6053 21.72 81.2186 21.84C81.8453 21.96 82.3053 22.1067 82.5986 22.28C82.7186 22.3333 82.7786 22.4133 82.7786 22.52C82.7786 22.56 82.7653 22.62 82.7386 22.7L82.4386 23.48C82.3719 23.6267 82.2853 23.7 82.1786 23.7C82.1253 23.7 82.0586 23.68 81.9786 23.64C81.2719 23.3333 80.4186 23.18 79.4186 23.18C78.7253 23.18 78.1919 23.2733 77.8186 23.46C77.4453 23.6467 77.2586 23.9733 77.2586 24.44C77.2586 24.8 77.3586 25.0933 77.5586 25.32C77.7719 25.5333 78.0319 25.6933 78.3386 25.8C78.6453 25.9067 79.0786 26.0333 79.6386 26.18C80.4653 26.3933 81.1253 26.6067 81.6186 26.82C82.1119 27.02 82.5053 27.3267 82.7986 27.74C83.0919 28.14 83.2386 28.68 83.2386 29.36C83.2386 30.3867 82.8919 31.12 82.1986 31.56C81.5053 32 80.5053 32.22 79.1986 32.22C78.4919 32.22 77.7919 32.1533 77.0986 32.02C76.4053 31.8867 75.9119 31.7267 75.6186 31.54C75.5119 31.4733 75.4586 31.3867 75.4586 31.28L75.4986 31.12L75.8186 30.32C75.8986 30.1733 75.9853 30.1 76.0786 30.1C76.1319 30.1 76.1986 30.12 76.2786 30.16C76.6253 30.32 77.0519 30.4533 77.5586 30.56C78.0653 30.6533 78.6119 30.7 79.1986 30.7C79.9186 30.7 80.4719 30.6067 80.8586 30.42C81.2586 30.22 81.4586 29.8533 81.4586 29.32C81.4586 28.84 81.2519 28.4867 80.8386 28.26C80.4386 28.02 79.8453 27.8067 79.0586 27.62C78.2853 27.4333 77.6653 27.2533 77.1986 27.08C76.7319 26.8933 76.3253 26.5933 75.9786 26.18C75.6453 25.7667 75.4786 25.2 75.4786 24.48C75.4786 22.6 76.7586 21.66 79.3186 21.66ZM99.0272 17.84C99.2539 17.84 99.3672 17.9533 99.3672 18.18V19.2C99.3672 19.44 99.2539 19.56 99.0272 19.56H95.0872V31.64C95.0872 31.7733 95.0605 31.8667 95.0072 31.92C94.9539 31.9733 94.8605 32 94.7272 32H93.6472C93.5139 32 93.4205 31.9733 93.3672 31.92C93.3139 31.8667 93.2872 31.7733 93.2872 31.64V19.56H89.3472C89.1205 19.56 89.0072 19.44 89.0072 19.2V18.18C89.0072 17.9533 89.1205 17.84 89.3472 17.84H99.0272ZM103.481 21.64C104.827 21.64 105.867 21.94 106.601 22.54C107.347 23.14 107.721 24.04 107.721 25.24V31.64C107.721 31.7733 107.694 31.8667 107.641 31.92C107.587 31.9733 107.494 32 107.361 32H106.441C106.187 32 106.054 31.8933 106.041 31.68L106.001 30.74H105.921C105.667 31.1667 105.254 31.5267 104.681 31.82C104.107 32.1 103.387 32.24 102.521 32.24C101.321 32.24 100.394 31.9733 99.7408 31.44C99.0874 30.8933 98.7608 30.0933 98.7608 29.04C98.7608 27.8933 99.1874 27.0867 100.041 26.62C100.894 26.1533 102.194 25.92 103.941 25.92H105.961V25.36C105.961 24.6 105.734 24.06 105.281 23.74C104.841 23.4067 104.181 23.24 103.301 23.24C102.234 23.24 101.181 23.46 100.141 23.9C100.087 23.9267 100.021 23.94 99.9408 23.94C99.8208 23.94 99.7274 23.88 99.6608 23.76L99.2808 22.88C99.2541 22.8 99.2408 22.7533 99.2408 22.74C99.2408 22.58 99.4741 22.4133 99.9408 22.24C100.407 22.0667 100.974 21.9267 101.641 21.82C102.321 21.7 102.934 21.64 103.481 21.64ZM102.801 30.68C103.814 30.68 104.594 30.42 105.141 29.9C105.687 29.38 105.961 28.7 105.961 27.86V27.44H104.141C103.274 27.44 102.587 27.48 102.081 27.56C101.574 27.64 101.187 27.8 100.921 28.04C100.654 28.2667 100.521 28.6133 100.521 29.08C100.521 29.6667 100.714 30.08 101.101 30.32C101.487 30.56 102.054 30.68 102.801 30.68ZM111.871 17.84C112.005 17.84 112.098 17.8667 112.151 17.92C112.205 17.9733 112.231 18.0667 112.231 18.2V31.64C112.231 31.7733 112.205 31.8667 112.151 31.92C112.098 31.9733 112.005 32 111.871 32H110.831C110.698 32 110.605 31.9733 110.551 31.92C110.498 31.8667 110.471 31.7733 110.471 31.64V18.2C110.471 18.0667 110.498 17.9733 110.551 17.92C110.605 17.8667 110.698 17.84 110.831 17.84H111.871ZM123.52 31.58C123.573 31.6333 123.6 31.7 123.6 31.78C123.6 31.9267 123.52 32 123.36 32H121.96C121.853 32 121.766 31.98 121.7 31.94C121.633 31.9 121.553 31.8333 121.46 31.74L117.9 27.68H116.9V31.64C116.9 31.88 116.773 32 116.52 32H115.48C115.346 32 115.253 31.9733 115.2 31.92C115.146 31.8667 115.12 31.7733 115.12 31.64V18.2C115.12 18.0667 115.146 17.9733 115.2 17.92C115.253 17.8667 115.346 17.84 115.48 17.84H116.52C116.653 17.84 116.746 17.8667 116.8 17.92C116.853 17.9733 116.88 18.0667 116.88 18.2L116.9 26.04H117.88L121.34 22.14C121.433 22.0467 121.513 21.98 121.58 21.94C121.646 21.9 121.733 21.88 121.84 21.88H123.24C123.306 21.88 123.36 21.9 123.4 21.94C123.453 21.98 123.48 22.0333 123.48 22.1C123.48 22.18 123.453 22.2467 123.4 22.3L119.32 26.86L123.52 31.58Z" fill="#1F1F1F" fill-opacity="0.5"/>
</svg>
