<svg width="192" height="62" viewBox="0 0 192 62" fill="none" xmlns="http://www.w3.org/2000/svg">
<rect width="192" height="62" rx="31" fill="#FF6600"/>
<path d="M34.476 23.2C34.588 23.2 34.7 23.224 34.812 23.272C34.94 23.32 35.044 23.4 35.124 23.512L41.748 33.448L41.1 33.424L47.748 23.512C47.924 23.272 48.14 23.168 48.396 23.2C48.588 23.2 48.748 23.272 48.876 23.416C49.02 23.544 49.092 23.712 49.092 23.92V39.28C49.092 39.472 49.02 39.64 48.876 39.784C48.732 39.928 48.556 40 48.348 40C48.124 40 47.94 39.928 47.796 39.784C47.652 39.64 47.58 39.472 47.58 39.28V25.384L48.012 25.432L41.94 34.624C41.892 34.72 41.82 34.8 41.724 34.864C41.628 34.912 41.516 34.928 41.388 34.912C41.276 34.928 41.164 34.912 41.052 34.864C40.956 34.8 40.876 34.72 40.812 34.624L34.716 25.336L35.172 25.024V39.28C35.172 39.472 35.1 39.64 34.956 39.784C34.828 39.928 34.66 40 34.452 40C34.244 40 34.076 39.928 33.948 39.784C33.82 39.64 33.756 39.472 33.756 39.28V23.92C33.756 23.728 33.82 23.56 33.948 23.416C34.092 23.272 34.268 23.2 34.476 23.2ZM63.2076 27.736C63.4156 27.736 63.5836 27.808 63.7116 27.952C63.8556 28.096 63.9276 28.272 63.9276 28.48V39.28C63.9276 39.472 63.8556 39.64 63.7116 39.784C63.5676 39.928 63.3996 40 63.2076 40C62.9836 40 62.8076 39.928 62.6796 39.784C62.5516 39.64 62.4876 39.472 62.4876 39.28V36.424L62.8956 36.232C62.8956 36.68 62.7676 37.136 62.5116 37.6C62.2716 38.064 61.9356 38.496 61.5036 38.896C61.0716 39.296 60.5596 39.624 59.9676 39.88C59.3916 40.12 58.7596 40.24 58.0716 40.24C56.9996 40.24 56.0316 39.96 55.1676 39.4C54.3196 38.84 53.6476 38.072 53.1516 37.096C52.6716 36.12 52.4316 35.024 52.4316 33.808C52.4316 32.56 52.6796 31.464 53.1756 30.52C53.6716 29.56 54.3436 28.808 55.1916 28.264C56.0396 27.72 56.9916 27.448 58.0476 27.448C58.7356 27.448 59.3756 27.568 59.9676 27.808C60.5756 28.048 61.1036 28.376 61.5516 28.792C61.9996 29.208 62.3516 29.688 62.6076 30.232C62.8636 30.76 62.9916 31.312 62.9916 31.888L62.4876 31.528V28.48C62.4876 28.272 62.5516 28.096 62.6796 27.952C62.8076 27.808 62.9836 27.736 63.2076 27.736ZM58.2156 38.896C59.0636 38.896 59.8156 38.68 60.4716 38.248C61.1276 37.8 61.6396 37.192 62.0076 36.424C62.3916 35.64 62.5836 34.768 62.5836 33.808C62.5836 32.864 62.3916 32.016 62.0076 31.264C61.6396 30.512 61.1276 29.912 60.4716 29.464C59.8156 29.016 59.0636 28.792 58.2156 28.792C57.3836 28.792 56.6316 29.008 55.9596 29.44C55.3036 29.872 54.7836 30.464 54.3996 31.216C54.0316 31.968 53.8476 32.832 53.8476 33.808C53.8476 34.768 54.0316 35.64 54.3996 36.424C54.7676 37.192 55.2796 37.8 55.9356 38.248C56.6076 38.68 57.3676 38.896 58.2156 38.896ZM68.5491 40C68.3411 40 68.1651 39.928 68.0211 39.784C67.8931 39.64 67.8291 39.472 67.8291 39.28V22.96C67.8291 22.768 67.8931 22.6 68.0211 22.456C68.1651 22.312 68.3411 22.24 68.5491 22.24C68.7571 22.24 68.9251 22.312 69.0531 22.456C69.1971 22.6 69.2691 22.768 69.2691 22.96V39.28C69.2691 39.472 69.1971 39.64 69.0531 39.784C68.9251 39.928 68.7571 40 68.5491 40ZM76.7091 27.688C76.8851 27.688 77.0451 27.768 77.1891 27.928C77.3331 28.072 77.4051 28.232 77.4051 28.408C77.4051 28.616 77.3171 28.8 77.1411 28.96L69.0771 35.824L69.0051 34.12L76.2051 27.928C76.3491 27.768 76.5171 27.688 76.7091 27.688ZM76.9011 40C76.6931 40 76.5171 39.912 76.3731 39.736L70.9011 33.928L71.9811 32.944L77.4051 38.728C77.5491 38.888 77.6211 39.072 77.6211 39.28C77.6211 39.504 77.5331 39.68 77.3571 39.808C77.1811 39.936 77.0291 40 76.9011 40ZM85.4378 40.24C84.2058 40.24 83.1178 39.976 82.1738 39.448C81.2298 38.92 80.4938 38.184 79.9658 37.24C79.4378 36.296 79.1738 35.192 79.1738 33.928C79.1738 32.568 79.4378 31.408 79.9658 30.448C80.5098 29.488 81.2058 28.752 82.0538 28.24C82.9178 27.712 83.8298 27.448 84.7898 27.448C85.4938 27.448 86.1738 27.576 86.8298 27.832C87.5018 28.072 88.0938 28.44 88.6058 28.936C89.1178 29.416 89.5338 30.008 89.8538 30.712C90.1738 31.416 90.3418 32.232 90.3578 33.16C90.3578 33.352 90.2858 33.52 90.1418 33.664C89.9978 33.792 89.8298 33.856 89.6378 33.856H80.0138L79.7258 32.56H89.1818L88.8698 32.848V32.368C88.7898 31.616 88.5418 30.976 88.1258 30.448C87.7098 29.92 87.2058 29.52 86.6138 29.248C86.0378 28.976 85.4298 28.84 84.7898 28.84C84.3098 28.84 83.8138 28.936 83.3018 29.128C82.8058 29.32 82.3498 29.624 81.9338 30.04C81.5338 30.44 81.2058 30.96 80.9498 31.6C80.6938 32.224 80.5658 32.968 80.5658 33.832C80.5658 34.776 80.7578 35.632 81.1418 36.4C81.5258 37.168 82.0778 37.776 82.7978 38.224C83.5178 38.672 84.3898 38.896 85.4138 38.896C85.9578 38.896 86.4538 38.816 86.9018 38.656C87.3498 38.496 87.7418 38.288 88.0778 38.032C88.4298 37.76 88.7178 37.48 88.9418 37.192C89.1178 37.048 89.2858 36.976 89.4458 36.976C89.6218 36.976 89.7658 37.04 89.8778 37.168C90.0058 37.296 90.0698 37.44 90.0698 37.6C90.0698 37.792 89.9898 37.96 89.8298 38.104C89.3498 38.68 88.7258 39.184 87.9578 39.616C87.1898 40.032 86.3498 40.24 85.4378 40.24ZM101.28 39.28C101.28 39.472 101.208 39.64 101.064 39.784C100.92 39.928 100.752 40 100.56 40C100.352 40 100.176 39.928 100.032 39.784C99.9042 39.64 99.8402 39.472 99.8402 39.28V28.24C99.8402 28.048 99.9042 27.88 100.032 27.736C100.176 27.592 100.352 27.52 100.56 27.52C100.768 27.52 100.936 27.592 101.064 27.736C101.208 27.88 101.28 28.048 101.28 28.24V39.28ZM100.56 25.912C100.224 25.912 99.9682 25.84 99.7922 25.696C99.6322 25.536 99.5522 25.312 99.5522 25.024V24.784C99.5522 24.496 99.6402 24.28 99.8162 24.136C100.008 23.976 100.264 23.896 100.584 23.896C100.888 23.896 101.12 23.976 101.28 24.136C101.456 24.28 101.544 24.496 101.544 24.784V25.024C101.544 25.312 101.456 25.536 101.28 25.696C101.12 25.84 100.88 25.912 100.56 25.912ZM104.229 27.784H109.821C110.013 27.784 110.173 27.856 110.301 28C110.429 28.128 110.493 28.288 110.493 28.48C110.493 28.656 110.429 28.808 110.301 28.936C110.173 29.064 110.013 29.128 109.821 29.128H104.229C104.037 29.128 103.869 29.064 103.725 28.936C103.597 28.792 103.533 28.632 103.533 28.456C103.533 28.264 103.597 28.104 103.725 27.976C103.869 27.848 104.037 27.784 104.229 27.784ZM106.701 24.4C106.909 24.4 107.077 24.472 107.205 24.616C107.349 24.76 107.421 24.928 107.421 25.12V37.168C107.421 37.616 107.477 37.952 107.589 38.176C107.717 38.4 107.877 38.552 108.069 38.632C108.261 38.696 108.453 38.728 108.645 38.728C108.773 38.728 108.885 38.712 108.981 38.68C109.093 38.632 109.213 38.608 109.341 38.608C109.485 38.608 109.605 38.664 109.701 38.776C109.813 38.888 109.869 39.032 109.869 39.208C109.869 39.432 109.741 39.624 109.485 39.784C109.229 39.928 108.925 40 108.573 40C108.429 40 108.213 39.992 107.925 39.976C107.637 39.944 107.341 39.856 107.037 39.712C106.733 39.552 106.477 39.28 106.269 38.896C106.077 38.512 105.981 37.96 105.981 37.24V25.12C105.981 24.928 106.045 24.76 106.173 24.616C106.317 24.472 106.493 24.4 106.701 24.4ZM120.436 40C120.212 40 120.036 39.928 119.908 39.784C119.78 39.64 119.716 39.472 119.716 39.28V28.528C119.716 28.336 119.78 28.168 119.908 28.024C120.052 27.88 120.228 27.808 120.436 27.808C120.644 27.808 120.812 27.88 120.94 28.024C121.084 28.168 121.156 28.336 121.156 28.528V32.128L120.796 32.2C120.844 31.64 120.98 31.088 121.204 30.544C121.444 29.984 121.764 29.472 122.164 29.008C122.564 28.544 123.036 28.168 123.58 27.88C124.14 27.592 124.764 27.448 125.452 27.448C125.74 27.448 126.02 27.512 126.292 27.64C126.564 27.752 126.7 27.944 126.7 28.216C126.7 28.456 126.636 28.64 126.508 28.768C126.38 28.896 126.228 28.96 126.052 28.96C125.908 28.96 125.748 28.92 125.572 28.84C125.412 28.76 125.196 28.72 124.924 28.72C124.476 28.72 124.028 28.856 123.58 29.128C123.132 29.384 122.724 29.736 122.356 30.184C121.988 30.632 121.692 31.136 121.468 31.696C121.26 32.24 121.156 32.792 121.156 33.352V39.28C121.156 39.472 121.084 39.64 120.94 39.784C120.796 39.928 120.628 40 120.436 40ZM133.86 40.24C132.628 40.24 131.54 39.976 130.596 39.448C129.652 38.92 128.916 38.184 128.388 37.24C127.86 36.296 127.596 35.192 127.596 33.928C127.596 32.568 127.86 31.408 128.388 30.448C128.932 29.488 129.628 28.752 130.476 28.24C131.34 27.712 132.252 27.448 133.212 27.448C133.916 27.448 134.596 27.576 135.252 27.832C135.924 28.072 136.516 28.44 137.028 28.936C137.54 29.416 137.956 30.008 138.276 30.712C138.596 31.416 138.764 32.232 138.78 33.16C138.78 33.352 138.708 33.52 138.564 33.664C138.42 33.792 138.252 33.856 138.06 33.856H128.436L128.148 32.56H137.604L137.292 32.848V32.368C137.212 31.616 136.964 30.976 136.548 30.448C136.132 29.92 135.628 29.52 135.036 29.248C134.46 28.976 133.852 28.84 133.212 28.84C132.732 28.84 132.236 28.936 131.724 29.128C131.228 29.32 130.772 29.624 130.356 30.04C129.956 30.44 129.628 30.96 129.372 31.6C129.116 32.224 128.988 32.968 128.988 33.832C128.988 34.776 129.18 35.632 129.564 36.4C129.948 37.168 130.5 37.776 131.22 38.224C131.94 38.672 132.812 38.896 133.836 38.896C134.38 38.896 134.876 38.816 135.324 38.656C135.772 38.496 136.164 38.288 136.5 38.032C136.852 37.76 137.14 37.48 137.364 37.192C137.54 37.048 137.708 36.976 137.868 36.976C138.044 36.976 138.188 37.04 138.3 37.168C138.428 37.296 138.492 37.44 138.492 37.6C138.492 37.792 138.412 37.96 138.252 38.104C137.772 38.68 137.148 39.184 136.38 39.616C135.612 40.032 134.772 40.24 133.86 40.24ZM151.801 27.736C152.009 27.736 152.177 27.808 152.305 27.952C152.449 28.096 152.521 28.272 152.521 28.48V39.28C152.521 39.472 152.449 39.64 152.305 39.784C152.161 39.928 151.993 40 151.801 40C151.577 40 151.401 39.928 151.273 39.784C151.145 39.64 151.081 39.472 151.081 39.28V36.424L151.489 36.232C151.489 36.68 151.361 37.136 151.105 37.6C150.865 38.064 150.529 38.496 150.097 38.896C149.665 39.296 149.153 39.624 148.561 39.88C147.985 40.12 147.353 40.24 146.665 40.24C145.593 40.24 144.625 39.96 143.761 39.4C142.913 38.84 142.241 38.072 141.745 37.096C141.265 36.12 141.025 35.024 141.025 33.808C141.025 32.56 141.273 31.464 141.769 30.52C142.265 29.56 142.937 28.808 143.785 28.264C144.633 27.72 145.585 27.448 146.641 27.448C147.329 27.448 147.969 27.568 148.561 27.808C149.169 28.048 149.697 28.376 150.145 28.792C150.593 29.208 150.945 29.688 151.201 30.232C151.457 30.76 151.585 31.312 151.585 31.888L151.081 31.528V28.48C151.081 28.272 151.145 28.096 151.273 27.952C151.401 27.808 151.577 27.736 151.801 27.736ZM146.809 38.896C147.657 38.896 148.409 38.68 149.065 38.248C149.721 37.8 150.233 37.192 150.601 36.424C150.985 35.64 151.177 34.768 151.177 33.808C151.177 32.864 150.985 32.016 150.601 31.264C150.233 30.512 149.721 29.912 149.065 29.464C148.409 29.016 147.657 28.792 146.809 28.792C145.977 28.792 145.225 29.008 144.553 29.44C143.897 29.872 143.377 30.464 142.993 31.216C142.625 31.968 142.441 32.832 142.441 33.808C142.441 34.768 142.625 35.64 142.993 36.424C143.361 37.192 143.873 37.8 144.529 38.248C145.201 38.68 145.961 38.896 146.809 38.896ZM157.863 39.28C157.863 39.472 157.791 39.64 157.647 39.784C157.503 39.928 157.335 40 157.143 40C156.935 40 156.759 39.928 156.615 39.784C156.487 39.64 156.423 39.472 156.423 39.28V22.96C156.423 22.768 156.495 22.6 156.639 22.456C156.783 22.312 156.951 22.24 157.143 22.24C157.351 22.24 157.519 22.312 157.647 22.456C157.791 22.6 157.863 22.768 157.863 22.96V39.28Z" fill="#1F1F1F"/>
</svg>
