<svg width="124" height="15" viewBox="0 0 124 15" fill="none" xmlns="http://www.w3.org/2000/svg">
<path d="M6.50001 0.000390053C8.60667 0.000390053 10.2133 0.633724 11.32 1.90039C12.44 3.15372 13 4.96039 13 7.32039C13 9.68039 12.44 11.4937 11.32 12.7604C10.2133 14.0137 8.60667 14.6404 6.50001 14.6404C4.39334 14.6404 2.78001 14.0137 1.66001 12.7604C0.553338 11.4937 4.91738e-06 9.68039 4.91738e-06 7.32039C4.91738e-06 4.96039 0.553338 3.15372 1.66001 1.90039C2.78001 0.633724 4.39334 0.000390053 6.50001 0.000390053ZM6.50001 12.9204C8.02001 12.9204 9.17334 12.4471 9.96001 11.5004C10.7467 10.5404 11.14 9.14706 11.14 7.32039C11.14 5.49372 10.7467 4.10706 9.96001 3.16039C9.17334 2.20039 8.02001 1.72039 6.50001 1.72039C4.98001 1.72039 3.82667 2.20039 3.04 3.16039C2.25334 4.10706 1.86 5.49372 1.86 7.32039C1.86 9.14706 2.25334 10.5404 3.04 11.5004C3.82667 12.4471 4.98001 12.9204 6.50001 12.9204ZM23.9144 4.28039C24.0477 4.28039 24.141 4.30706 24.1944 4.36039C24.2477 4.41372 24.2744 4.50706 24.2744 4.64039V14.0404C24.2744 14.1737 24.2477 14.2671 24.1944 14.3204C24.141 14.3737 24.0477 14.4004 23.9144 14.4004H22.9944C22.741 14.4004 22.6077 14.2937 22.5944 14.0804L22.5544 13.1804H22.4744C22.1944 13.6204 21.7744 13.9671 21.2144 14.2204C20.6677 14.4737 20.0144 14.6004 19.2544 14.6004C17.9744 14.6004 17.0144 14.2537 16.3744 13.5604C15.7477 12.8671 15.4344 11.8537 15.4344 10.5204V4.64039C15.4344 4.50706 15.461 4.41372 15.5144 4.36039C15.5677 4.30706 15.661 4.28039 15.7944 4.28039H16.8344C16.9677 4.28039 17.061 4.30706 17.1144 4.36039C17.1677 4.41372 17.1944 4.50706 17.1944 4.64039V10.2804C17.1944 11.2404 17.3877 11.9271 17.7744 12.3404C18.161 12.7537 18.7944 12.9604 19.6744 12.9604C20.581 12.9604 21.281 12.7071 21.7744 12.2004C22.2677 11.6937 22.5144 10.9871 22.5144 10.0804V4.64039C22.5144 4.50706 22.541 4.41372 22.5944 4.36039C22.6477 4.30706 22.741 4.28039 22.8744 4.28039H23.9144ZM32.0569 4.20039C32.2035 4.20039 32.3102 4.22706 32.3769 4.28039C32.4435 4.32039 32.4769 4.40706 32.4769 4.54039V5.62039C32.4769 5.83372 32.3702 5.94039 32.1569 5.94039L31.6369 5.92039C30.7702 5.92039 30.0835 6.18706 29.5769 6.72039C29.0835 7.24039 28.8369 7.93372 28.8369 8.80039V14.0404C28.8369 14.1737 28.8102 14.2671 28.7569 14.3204C28.7035 14.3737 28.6102 14.4004 28.4769 14.4004H27.4369C27.3035 14.4004 27.2102 14.3737 27.1569 14.3204C27.1035 14.2671 27.0769 14.1737 27.0769 14.0404V4.64039C27.0769 4.50706 27.1035 4.41372 27.1569 4.36039C27.2102 4.30706 27.3035 4.28039 27.4369 4.28039H28.3569C28.6102 4.28039 28.7435 4.38706 28.7569 4.60039L28.7969 5.70039H28.8769C29.1569 5.24706 29.5769 4.88706 30.1369 4.62039C30.6969 4.34039 31.3369 4.20039 32.0569 4.20039ZM40.5984 0.240391C40.7184 0.240391 40.8118 0.26039 40.8784 0.30039C40.9451 0.34039 40.9984 0.40039 41.0384 0.48039L45.1384 7.48039H45.2184L49.3184 0.48039C49.3584 0.40039 49.4118 0.34039 49.4784 0.30039C49.5451 0.26039 49.6384 0.240391 49.7584 0.240391H51.1184C51.2518 0.240391 51.3451 0.267057 51.3984 0.32039C51.4518 0.373723 51.4784 0.467056 51.4784 0.600389V14.0404C51.4784 14.1737 51.4518 14.2671 51.3984 14.3204C51.3451 14.3737 51.2518 14.4004 51.1184 14.4004H50.0384C49.9051 14.4004 49.8118 14.3737 49.7584 14.3204C49.7051 14.2671 49.6784 14.1737 49.6784 14.0404V3.24039H49.5984L45.5384 10.1404C45.4718 10.2604 45.3718 10.3204 45.2384 10.3204H45.1184C44.9851 10.3204 44.8851 10.2604 44.8184 10.1404L40.7584 3.24039H40.6784V14.0404C40.6784 14.1737 40.6518 14.2671 40.5984 14.3204C40.5451 14.3737 40.4518 14.4004 40.3184 14.4004H39.2384C39.1051 14.4004 39.0118 14.3737 38.9584 14.3204C38.9051 14.2671 38.8784 14.1737 38.8784 14.0404V0.600389C38.8784 0.467056 38.9051 0.373723 38.9584 0.32039C39.0118 0.267057 39.1051 0.240391 39.2384 0.240391H40.5984ZM59.0392 4.04039C60.4926 4.04039 61.6326 4.48039 62.4592 5.36039C63.2992 6.24039 63.7192 7.44039 63.7192 8.96039V9.78039C63.7192 10.0071 63.5992 10.1204 63.3592 10.1204H55.8792C55.9726 11.1604 56.2992 11.9137 56.8592 12.3804C57.4326 12.8471 58.2659 13.0804 59.3592 13.0804C60.4926 13.0804 61.4859 12.8471 62.3392 12.3804C62.4192 12.3404 62.4859 12.3204 62.5392 12.3204C62.6459 12.3204 62.7326 12.3871 62.7992 12.5204L63.1592 13.3004L63.1992 13.4604C63.1992 13.5804 63.1326 13.6871 62.9992 13.7804C62.6792 13.9937 62.1659 14.1937 61.4592 14.3804C60.7526 14.5537 60.0392 14.6404 59.3192 14.6404C57.6259 14.6404 56.3192 14.1937 55.3992 13.3004C54.4926 12.4071 54.0392 11.0871 54.0392 9.34039C54.0392 7.63372 54.4792 6.32706 55.3592 5.42039C56.2392 4.50039 57.4659 4.04039 59.0392 4.04039ZM59.0392 5.64039C58.0526 5.64039 57.2992 5.87372 56.7792 6.34039C56.2726 6.80706 55.9726 7.56039 55.8792 8.60039H61.9592C61.8792 6.62706 60.9059 5.64039 59.0392 5.64039ZM77.8417 4.08039C80.5351 4.08039 81.8817 5.45372 81.8817 8.20039V14.0404C81.8817 14.1737 81.8551 14.2671 81.8017 14.3204C81.7484 14.3737 81.6551 14.4004 81.5217 14.4004H80.4817C80.3484 14.4004 80.2551 14.3737 80.2017 14.3204C80.1484 14.2671 80.1217 14.1737 80.1217 14.0404V8.44039C80.1217 7.48039 79.9284 6.78706 79.5417 6.36039C79.1551 5.93372 78.5284 5.72039 77.6617 5.72039C76.7684 5.72039 76.0751 5.98039 75.5817 6.50039C75.0884 7.00706 74.8417 7.70706 74.8417 8.60039V14.0404C74.8417 14.1737 74.8151 14.2671 74.7617 14.3204C74.7084 14.3737 74.6151 14.4004 74.4817 14.4004H73.4417C73.3084 14.4004 73.2151 14.3737 73.1617 14.3204C73.1084 14.2671 73.0817 14.1737 73.0817 14.0404V8.44039C73.0817 7.48039 72.8884 6.78706 72.5017 6.36039C72.1151 5.93372 71.4884 5.72039 70.6217 5.72039C69.7284 5.72039 69.0351 5.98039 68.5417 6.50039C68.0484 7.00706 67.8017 7.70706 67.8017 8.60039V14.0404C67.8017 14.1737 67.7751 14.2671 67.7217 14.3204C67.6684 14.3737 67.5751 14.4004 67.4417 14.4004H66.4017C66.2684 14.4004 66.1751 14.3737 66.1217 14.3204C66.0684 14.2671 66.0417 14.1737 66.0417 14.0404V4.64039C66.0417 4.50706 66.0684 4.41372 66.1217 4.36039C66.1751 4.30706 66.2684 4.28039 66.4017 4.28039H67.3217C67.5751 4.28039 67.7084 4.38706 67.7217 4.60039L67.7617 5.48039H67.8617C68.1284 5.05372 68.5351 4.71372 69.0817 4.46039C69.6284 4.20706 70.2817 4.08039 71.0417 4.08039C71.8817 4.08039 72.5684 4.21372 73.1017 4.48039C73.6484 4.73372 74.0684 5.12039 74.3617 5.64039H74.4217C74.7151 5.17372 75.1484 4.80039 75.7217 4.52039C76.3084 4.22706 77.0151 4.08039 77.8417 4.08039ZM89.9164 4.04039C91.4364 4.04039 92.6097 4.50039 93.4364 5.42039C94.2764 6.34039 94.6964 7.64706 94.6964 9.34039C94.6964 11.0337 94.2764 12.3404 93.4364 13.2604C92.6097 14.1804 91.4364 14.6404 89.9164 14.6404C88.3431 14.6404 87.1697 14.1537 86.3964 13.1804H86.3364L86.3164 14.0404C86.3031 14.1737 86.2697 14.2671 86.2164 14.3204C86.1764 14.3737 86.0897 14.4004 85.9564 14.4004H84.9964C84.8631 14.4004 84.7697 14.3737 84.7164 14.3204C84.6631 14.2671 84.6364 14.1737 84.6364 14.0404V0.600389C84.6364 0.467056 84.6631 0.373723 84.7164 0.32039C84.7697 0.267057 84.8631 0.240391 84.9964 0.240391H86.0364C86.1697 0.240391 86.2631 0.267057 86.3164 0.32039C86.3697 0.373723 86.3964 0.467056 86.3964 0.600389V5.44039H86.4564C87.2031 4.50706 88.3564 4.04039 89.9164 4.04039ZM89.6364 13.0004C90.7031 13.0004 91.5097 12.6937 92.0564 12.0804C92.6031 11.4537 92.8764 10.5404 92.8764 9.34039C92.8764 8.14039 92.6031 7.23372 92.0564 6.62039C91.5097 5.99372 90.7031 5.68039 89.6364 5.68039C88.5697 5.68039 87.7631 5.99372 87.2164 6.62039C86.6697 7.23372 86.3964 8.14039 86.3964 9.34039C86.3964 10.5404 86.6697 11.4537 87.2164 12.0804C87.7631 12.6937 88.5697 13.0004 89.6364 13.0004ZM101.617 4.04039C103.071 4.04039 104.211 4.48039 105.037 5.36039C105.877 6.24039 106.297 7.44039 106.297 8.96039V9.78039C106.297 10.0071 106.177 10.1204 105.937 10.1204H98.4573C98.5507 11.1604 98.8773 11.9137 99.4373 12.3804C100.011 12.8471 100.844 13.0804 101.937 13.0804C103.071 13.0804 104.064 12.8471 104.917 12.3804C104.997 12.3404 105.064 12.3204 105.117 12.3204C105.224 12.3204 105.311 12.3871 105.377 12.5204L105.737 13.3004L105.777 13.4604C105.777 13.5804 105.711 13.6871 105.577 13.7804C105.257 13.9937 104.744 14.1937 104.037 14.3804C103.331 14.5537 102.617 14.6404 101.897 14.6404C100.204 14.6404 98.8973 14.1937 97.9773 13.3004C97.0707 12.4071 96.6173 11.0871 96.6173 9.34039C96.6173 7.63372 97.0573 6.32706 97.9373 5.42039C98.8173 4.50039 100.044 4.04039 101.617 4.04039ZM101.617 5.64039C100.631 5.64039 99.8773 5.87372 99.3573 6.34039C98.8507 6.80706 98.5507 7.56039 98.4573 8.60039H104.537C104.457 6.62706 103.484 5.64039 101.617 5.64039ZM113.6 4.20039C113.747 4.20039 113.853 4.22706 113.92 4.28039C113.987 4.32039 114.02 4.40706 114.02 4.54039V5.62039C114.02 5.83372 113.913 5.94039 113.7 5.94039L113.18 5.92039C112.313 5.92039 111.627 6.18706 111.12 6.72039C110.627 7.24039 110.38 7.93372 110.38 8.80039V14.0404C110.38 14.1737 110.353 14.2671 110.3 14.3204C110.247 14.3737 110.153 14.4004 110.02 14.4004H108.98C108.847 14.4004 108.753 14.3737 108.7 14.3204C108.647 14.2671 108.62 14.1737 108.62 14.0404V4.64039C108.62 4.50706 108.647 4.41372 108.7 4.36039C108.753 4.30706 108.847 4.28039 108.98 4.28039H109.9C110.153 4.28039 110.287 4.38706 110.3 4.60039L110.34 5.70039H110.42C110.7 5.24706 111.12 4.88706 111.68 4.62039C112.24 4.34039 112.88 4.20039 113.6 4.20039ZM119.265 4.06039C119.918 4.06039 120.552 4.12039 121.165 4.24039C121.792 4.36039 122.252 4.50706 122.545 4.68039C122.665 4.73372 122.725 4.81372 122.725 4.92039C122.725 4.96039 122.712 5.02039 122.685 5.10039L122.385 5.88039C122.318 6.02706 122.232 6.10039 122.125 6.10039C122.072 6.10039 122.005 6.08039 121.925 6.04039C121.218 5.73372 120.365 5.58039 119.365 5.58039C118.672 5.58039 118.138 5.67372 117.765 5.86039C117.392 6.04706 117.205 6.37372 117.205 6.84039C117.205 7.20039 117.305 7.49372 117.505 7.72039C117.718 7.93372 117.978 8.09372 118.285 8.20039C118.592 8.30706 119.025 8.43372 119.585 8.58039C120.412 8.79372 121.072 9.00706 121.565 9.22039C122.058 9.42039 122.452 9.72706 122.745 10.1404C123.038 10.5404 123.185 11.0804 123.185 11.7604C123.185 12.7871 122.838 13.5204 122.145 13.9604C121.452 14.4004 120.452 14.6204 119.145 14.6204C118.438 14.6204 117.738 14.5537 117.045 14.4204C116.352 14.2871 115.858 14.1271 115.565 13.9404C115.458 13.8737 115.405 13.7871 115.405 13.6804L115.445 13.5204L115.765 12.7204C115.845 12.5737 115.932 12.5004 116.025 12.5004C116.078 12.5004 116.145 12.5204 116.225 12.5604C116.572 12.7204 116.998 12.8537 117.505 12.9604C118.012 13.0537 118.558 13.1004 119.145 13.1004C119.865 13.1004 120.418 13.0071 120.805 12.8204C121.205 12.6204 121.405 12.2537 121.405 11.7204C121.405 11.2404 121.198 10.8871 120.785 10.6604C120.385 10.4204 119.792 10.2071 119.005 10.0204C118.232 9.83372 117.612 9.65372 117.145 9.48039C116.678 9.29372 116.272 8.99372 115.925 8.58039C115.592 8.16706 115.425 7.60039 115.425 6.88039C115.425 5.00039 116.705 4.06039 119.265 4.06039Z" fill="#1F1F1F"/>
</svg>
