<svg width="74" height="17" viewBox="0 0 74 17" fill="none" xmlns="http://www.w3.org/2000/svg">
<path d="M4.70002 0.000156164C6.60669 0.000156164 8.00669 0.380156 8.90003 1.14016C9.79336 1.88682 10.24 3.06016 10.24 4.66016C10.24 6.27349 9.79336 7.46016 8.90003 8.22016C8.00669 8.98016 6.60669 9.36016 4.70002 9.36016H1.80002V13.8002C1.80002 13.9335 1.77336 14.0268 1.72002 14.0802C1.66669 14.1335 1.57336 14.1602 1.44002 14.1602H0.360025C0.226691 14.1602 0.133358 14.1335 0.0800245 14.0802C0.0266912 14.0268 2.45273e-05 13.9335 2.45273e-05 13.8002V0.360155C2.45273e-05 0.226822 0.0266912 0.133489 0.0800245 0.0801551C0.133358 0.0268225 0.226691 0.000156164 0.360025 0.000156164H4.70002ZM4.50002 7.68016C5.46002 7.68016 6.22002 7.58682 6.78003 7.40016C7.35336 7.20016 7.76669 6.88682 8.02003 6.46016C8.28669 6.02016 8.42003 5.43349 8.42003 4.70016C8.42003 3.96682 8.28669 3.38682 8.02003 2.96016C7.76669 2.52016 7.35336 2.20682 6.78003 2.02016C6.22002 1.82016 5.46002 1.72016 4.50002 1.72016H1.80002V7.68016H4.50002ZM17.7488 3.96016C17.8954 3.96016 18.0021 3.98682 18.0688 4.04016C18.1354 4.08016 18.1688 4.16682 18.1688 4.30016V5.38016C18.1688 5.59349 18.0621 5.70016 17.8488 5.70016L17.3288 5.68016C16.4621 5.68016 15.7754 5.94682 15.2688 6.48016C14.7754 7.00016 14.5288 7.69349 14.5288 8.56016V13.8002C14.5288 13.9335 14.5021 14.0268 14.4488 14.0802C14.3954 14.1335 14.3021 14.1602 14.1688 14.1602H13.1288C12.9954 14.1602 12.9021 14.1335 12.8488 14.0802C12.7954 14.0268 12.7688 13.9335 12.7688 13.8002V4.40016C12.7688 4.26682 12.7954 4.17349 12.8488 4.12016C12.9021 4.06682 12.9954 4.04016 13.1288 4.04016H14.0488C14.3021 4.04016 14.4354 4.14682 14.4488 4.36016L14.4888 5.46016H14.5688C14.8488 5.00682 15.2688 4.64682 15.8288 4.38016C16.3888 4.10016 17.0288 3.96016 17.7488 3.96016ZM24.5567 3.80016C26.1701 3.80016 27.4167 4.25349 28.2967 5.16016C29.1767 6.06682 29.6167 7.38016 29.6167 9.10016C29.6167 10.8202 29.1767 12.1335 28.2967 13.0402C27.4167 13.9468 26.1701 14.4002 24.5567 14.4002C22.9434 14.4002 21.6967 13.9468 20.8167 13.0402C19.9367 12.1335 19.4967 10.8202 19.4967 9.10016C19.4967 7.38016 19.9367 6.06682 20.8167 5.16016C21.6967 4.25349 22.9434 3.80016 24.5567 3.80016ZM24.5567 12.7602C25.6234 12.7602 26.4301 12.4535 26.9767 11.8402C27.5234 11.2135 27.7967 10.3002 27.7967 9.10016C27.7967 7.90016 27.5234 6.99349 26.9767 6.38016C26.4301 5.75349 25.6234 5.44016 24.5567 5.44016C23.4901 5.44016 22.6834 5.75349 22.1367 6.38016C21.5901 6.99349 21.3167 7.90016 21.3167 9.10016C21.3167 10.3002 21.5901 11.2135 22.1367 11.8402C22.6834 12.4535 23.4901 12.7602 24.5567 12.7602ZM33.3308 0.000156164C33.4641 0.000156164 33.5575 0.0268225 33.6108 0.0801551C33.6641 0.133489 33.6908 0.226822 33.6908 0.360155V2.44016C33.6908 2.57349 33.6641 2.66682 33.6108 2.72016C33.5575 2.77349 33.4641 2.80016 33.3308 2.80016H32.2908C32.1575 2.80016 32.0641 2.77349 32.0108 2.72016C31.9575 2.66682 31.9308 2.57349 31.9308 2.44016V0.360155C31.9308 0.226822 31.9575 0.133489 32.0108 0.0801551C32.0641 0.0268225 32.1575 0.000156164 32.2908 0.000156164H33.3308ZM33.3308 4.04016C33.4641 4.04016 33.5575 4.06682 33.6108 4.12016C33.6641 4.17349 33.6908 4.26682 33.6908 4.40016V14.5802C33.6908 15.4735 33.5175 16.0935 33.1708 16.4402C32.8375 16.7868 32.2508 16.9602 31.4108 16.9602C30.8641 16.9602 30.4575 16.9068 30.1908 16.8002C30.0308 16.7468 29.9508 16.6268 29.9508 16.4402V15.5202C29.9641 15.3468 30.0641 15.2602 30.2508 15.2602C30.3575 15.2602 30.4775 15.2668 30.6108 15.2802C30.7441 15.3068 30.8775 15.3202 31.0108 15.3202C31.3575 15.3202 31.5975 15.2535 31.7308 15.1202C31.8641 14.9868 31.9308 14.7402 31.9308 14.3802V4.40016C31.9308 4.26682 31.9575 4.17349 32.0108 4.12016C32.0641 4.06682 32.1575 4.04016 32.2908 4.04016H33.3308ZM41.1374 3.80016C42.5907 3.80016 43.7307 4.24016 44.5574 5.12016C45.3974 6.00016 45.8174 7.20016 45.8174 8.72016V9.54016C45.8174 9.76682 45.6974 9.88016 45.4574 9.88016H37.9774C38.0707 10.9202 38.3974 11.6735 38.9574 12.1402C39.5307 12.6068 40.364 12.8402 41.4574 12.8402C42.5907 12.8402 43.584 12.6068 44.4374 12.1402C44.5174 12.1002 44.584 12.0802 44.6374 12.0802C44.744 12.0802 44.8307 12.1468 44.8974 12.2802L45.2574 13.0602L45.2974 13.2202C45.2974 13.3402 45.2307 13.4468 45.0974 13.5402C44.7774 13.7535 44.264 13.9535 43.5574 14.1402C42.8507 14.3135 42.1374 14.4002 41.4174 14.4002C39.724 14.4002 38.4174 13.9535 37.4974 13.0602C36.5907 12.1668 36.1374 10.8468 36.1374 9.10016C36.1374 7.39349 36.5774 6.08682 37.4574 5.18016C38.3374 4.26016 39.564 3.80016 41.1374 3.80016ZM41.1374 5.40016C40.1507 5.40016 39.3974 5.63349 38.8774 6.10016C38.3707 6.56682 38.0707 7.32016 37.9774 8.36016H44.0574C43.9774 6.38682 43.004 5.40016 41.1374 5.40016ZM52.8399 3.80016C53.4532 3.80016 54.0465 3.87349 54.6199 4.02016C55.1932 4.16682 55.6265 4.33349 55.9199 4.52016C56.0532 4.61349 56.1199 4.70682 56.1199 4.80016C56.1199 4.84016 56.1065 4.90016 56.0799 4.98016L55.6999 5.82016C55.6332 5.96682 55.5332 6.04016 55.3999 6.04016C55.3332 6.04016 55.2732 6.02016 55.2199 5.98016C54.9265 5.82016 54.5799 5.69349 54.1799 5.60016C53.7799 5.49349 53.3599 5.44016 52.9199 5.44016C51.7999 5.44016 50.9532 5.75349 50.3799 6.38016C49.8065 6.99349 49.5199 7.90016 49.5199 9.10016C49.5199 10.3002 49.8065 11.2135 50.3799 11.8402C50.9532 12.4535 51.7999 12.7602 52.9199 12.7602C53.3599 12.7602 53.7799 12.7135 54.1799 12.6202C54.5799 12.5135 54.9265 12.3802 55.2199 12.2202C55.2732 12.1802 55.3332 12.1602 55.3999 12.1602C55.5332 12.1602 55.6332 12.2335 55.6999 12.3802L56.0799 13.2202C56.1065 13.3002 56.1199 13.3602 56.1199 13.4002C56.1199 13.4935 56.0532 13.5868 55.9199 13.6802C55.6265 13.8668 55.1932 14.0335 54.6199 14.1802C54.0465 14.3268 53.4532 14.4002 52.8399 14.4002C51.2132 14.4002 49.9465 13.9468 49.0399 13.0402C48.1465 12.1202 47.6999 10.8068 47.6999 9.10016C47.6999 7.39349 48.1465 6.08682 49.0399 5.18016C49.9465 4.26016 51.2132 3.80016 52.8399 3.80016ZM63.7924 12.6202C63.9657 12.6202 64.0524 12.7135 64.0524 12.9002V13.8202C64.0524 14.0068 63.9657 14.1202 63.7924 14.1602C63.3657 14.2935 62.859 14.3602 62.2724 14.3602C61.179 14.3602 60.4057 14.1202 59.9524 13.6402C59.5124 13.1602 59.2924 12.3735 59.2924 11.2802V5.68016H57.7924C57.5657 5.68016 57.4524 5.56682 57.4524 5.34016V4.40016C57.4524 4.16016 57.5657 4.04016 57.7924 4.04016H59.2924V1.40016C59.2924 1.26682 59.319 1.17349 59.3724 1.12016C59.4257 1.06682 59.519 1.04016 59.6524 1.04016H60.6924C60.8257 1.04016 60.919 1.06682 60.9724 1.12016C61.0257 1.17349 61.0524 1.26682 61.0524 1.40016V4.04016H63.6724C63.899 4.04016 64.0124 4.16016 64.0124 4.40016V5.34016C64.0124 5.56682 63.899 5.68016 63.6724 5.68016H61.0524V11.1202C61.0524 11.7602 61.159 12.1868 61.3724 12.4002C61.599 12.6135 62.0057 12.7202 62.5924 12.7202C62.979 12.7202 63.3524 12.6868 63.7124 12.6202H63.7924ZM69.5272 3.82016C70.1805 3.82016 70.8139 3.88016 71.4272 4.00016C72.0539 4.12016 72.5139 4.26682 72.8072 4.44016C72.9272 4.49349 72.9872 4.57349 72.9872 4.68016C72.9872 4.72016 72.9739 4.78016 72.9472 4.86016L72.6472 5.64016C72.5805 5.78682 72.4939 5.86016 72.3872 5.86016C72.3339 5.86016 72.2672 5.84016 72.1872 5.80016C71.4805 5.49349 70.6272 5.34016 69.6272 5.34016C68.9339 5.34016 68.4005 5.43349 68.0272 5.62016C67.6539 5.80682 67.4672 6.13349 67.4672 6.60016C67.4672 6.96016 67.5672 7.25349 67.7672 7.48016C67.9805 7.69349 68.2405 7.85349 68.5472 7.96016C68.8539 8.06682 69.2872 8.19349 69.8472 8.34016C70.6739 8.55349 71.3339 8.76682 71.8272 8.98016C72.3205 9.18016 72.7139 9.48682 73.0072 9.90016C73.3005 10.3002 73.4472 10.8402 73.4472 11.5202C73.4472 12.5468 73.1005 13.2802 72.4072 13.7202C71.7139 14.1602 70.7139 14.3802 69.4072 14.3802C68.7005 14.3802 68.0005 14.3135 67.3072 14.1802C66.6139 14.0468 66.1205 13.8868 65.8272 13.7002C65.7205 13.6335 65.6672 13.5468 65.6672 13.4402L65.7072 13.2802L66.0272 12.4802C66.1072 12.3335 66.1939 12.2602 66.2872 12.2602C66.3405 12.2602 66.4072 12.2802 66.4872 12.3202C66.8339 12.4802 67.2605 12.6135 67.7672 12.7202C68.2739 12.8135 68.8205 12.8602 69.4072 12.8602C70.1272 12.8602 70.6805 12.7668 71.0672 12.5802C71.4672 12.3802 71.6672 12.0135 71.6672 11.4802C71.6672 11.0002 71.4605 10.6468 71.0472 10.4202C70.6472 10.1802 70.0539 9.96682 69.2672 9.78016C68.4939 9.59349 67.8739 9.41349 67.4072 9.24016C66.9405 9.05349 66.5339 8.75349 66.1872 8.34016C65.8539 7.92682 65.6872 7.36016 65.6872 6.64016C65.6872 4.76016 66.9672 3.82016 69.5272 3.82016Z" fill="#1F1F1F"/>
</svg>
