<svg width="385" height="123" viewBox="0 0 385 123" fill="none" xmlns="http://www.w3.org/2000/svg">
<mask id="path-1-outside-1_220_39" maskUnits="userSpaceOnUse" x="-0.320007" y="-0.280273" width="386" height="123" fill="black">
<rect fill="white" x="-0.320007" y="-0.280273" width="386" height="123"/>
<path d="M8.67999 95.7197C6.46133 95.7197 4.62666 94.9944 3.17599 93.5437C1.72533 92.0077 0.999993 90.1304 0.999993 87.9117V35.0477C0.999993 32.8291 1.72533 30.9944 3.17599 29.5437C4.62666 28.0077 6.46133 27.2397 8.67999 27.2397C10.8987 27.2397 12.7333 28.0077 14.184 29.5437C15.6347 30.9944 16.36 32.8291 16.36 35.0477V47.0797L15.464 38.5037C16.4027 36.4557 17.5973 34.6637 19.048 33.1277C20.584 31.5064 22.2907 30.1837 24.168 29.1597C26.0453 28.0504 28.0507 27.2397 30.184 26.7277C32.3173 26.2157 34.4507 25.9597 36.584 25.9597C39.144 25.9597 41.2773 26.6851 42.984 28.1357C44.776 29.5864 45.672 31.2931 45.672 33.2557C45.672 36.0717 44.9467 38.1197 43.496 39.3997C42.0453 40.5944 40.4667 41.1917 38.76 41.1917C37.1387 41.1917 35.6453 40.8931 34.28 40.2957C33 39.6984 31.5067 39.3997 29.8 39.3997C28.264 39.3997 26.6853 39.7837 25.064 40.5517C23.528 41.2344 22.0773 42.3437 20.712 43.8797C19.432 45.4157 18.3653 47.3357 17.512 49.6397C16.744 51.8584 16.36 54.5037 16.36 57.5757V87.9117C16.36 90.1304 15.6347 92.0077 14.184 93.5437C12.7333 94.9944 10.8987 95.7197 8.67999 95.7197ZM85.241 96.9997C77.9877 96.9997 71.673 95.5064 66.297 92.5197C61.0063 89.4477 56.9103 85.3091 54.009 80.1037C51.193 74.8984 49.785 69.0104 49.785 62.4397C49.785 54.7597 51.321 48.2317 54.393 42.8557C57.5503 37.3944 61.6463 33.2131 66.681 30.3117C71.7157 27.4104 77.049 25.9597 82.681 25.9597C87.033 25.9597 91.129 26.8557 94.969 28.6477C98.8943 30.4397 102.35 32.9144 105.337 36.0717C108.324 39.1437 110.67 42.7277 112.377 46.8237C114.169 50.9197 115.065 55.2717 115.065 59.8797C114.98 61.9277 114.169 63.5917 112.633 64.8717C111.097 66.1517 109.305 66.7917 107.257 66.7917H58.361L54.521 53.9917H101.497L98.681 56.5517V53.0957C98.5103 50.6211 97.6143 48.4024 95.993 46.4397C94.457 44.4771 92.4943 42.9411 90.105 41.8317C87.801 40.6371 85.3263 40.0397 82.681 40.0397C80.121 40.0397 77.7317 40.3811 75.513 41.0637C73.2943 41.7464 71.3743 42.8984 69.753 44.5197C68.1317 46.1411 66.8517 48.3171 65.913 51.0477C64.9743 53.7784 64.505 57.2344 64.505 61.4157C64.505 66.0237 65.4437 69.9491 67.321 73.1917C69.2837 76.3491 71.7583 78.7811 74.745 80.4877C77.817 82.1091 81.0597 82.9197 84.473 82.9197C87.6303 82.9197 90.1477 82.6637 92.025 82.1517C93.9023 81.6397 95.3957 81.0424 96.505 80.3597C97.6997 79.5917 98.7663 78.9517 99.705 78.4397C101.241 77.6717 102.692 77.2877 104.057 77.2877C105.934 77.2877 107.47 77.9277 108.665 79.2077C109.945 80.4877 110.585 81.9811 110.585 83.6877C110.585 85.9917 109.39 88.0824 107.001 89.9597C104.782 91.8371 101.668 93.5011 97.657 94.9517C93.6463 96.3171 89.5077 96.9997 85.241 96.9997ZM183.799 25.9597C186.018 25.9597 187.852 26.6851 189.303 28.1357C190.754 29.5864 191.479 31.4637 191.479 33.7677V87.9117C191.479 90.1304 190.754 92.0077 189.303 93.5437C187.852 94.9944 186.018 95.7197 183.799 95.7197C181.58 95.7197 179.746 94.9944 178.295 93.5437C176.844 92.0077 176.119 90.1304 176.119 87.9117V81.6397L178.935 82.7917C178.935 83.9011 178.338 85.2664 177.143 86.8877C175.948 88.4237 174.327 89.9597 172.279 91.4957C170.231 93.0317 167.799 94.3544 164.983 95.4637C162.252 96.4877 159.266 96.9997 156.023 96.9997C150.135 96.9997 144.802 95.5064 140.023 92.5197C135.244 89.4477 131.447 85.2664 128.631 79.9757C125.9 74.5997 124.535 68.4557 124.535 61.5437C124.535 54.5464 125.9 48.4024 128.631 43.1117C131.447 37.7357 135.202 33.5544 139.895 30.5677C144.588 27.4957 149.794 25.9597 155.511 25.9597C159.18 25.9597 162.551 26.5144 165.623 27.6237C168.695 28.7331 171.34 30.1411 173.559 31.8477C175.863 33.5544 177.612 35.3037 178.807 37.0957C180.087 38.8024 180.727 40.2531 180.727 41.4477L176.119 43.1117V33.7677C176.119 31.5491 176.844 29.7144 178.295 28.2637C179.746 26.7277 181.58 25.9597 183.799 25.9597ZM157.943 82.9197C161.698 82.9197 164.983 81.9811 167.799 80.1037C170.615 78.2264 172.791 75.6664 174.327 72.4237C175.948 69.1811 176.759 65.5544 176.759 61.5437C176.759 57.4477 175.948 53.7784 174.327 50.5357C172.791 47.2931 170.615 44.7331 167.799 42.8557C164.983 40.9784 161.698 40.0397 157.943 40.0397C154.274 40.0397 151.031 40.9784 148.215 42.8557C145.399 44.7331 143.18 47.2931 141.559 50.5357C140.023 53.7784 139.255 57.4477 139.255 61.5437C139.255 65.5544 140.023 69.1811 141.559 72.4237C143.18 75.6664 145.399 78.2264 148.215 80.1037C151.031 81.9811 154.274 82.9197 157.943 82.9197ZM224.765 87.9117C224.765 90.1304 223.997 92.0077 222.461 93.5437C221.01 94.9944 219.176 95.7197 216.957 95.7197C214.824 95.7197 213.032 94.9944 211.581 93.5437C210.13 92.0077 209.405 90.1304 209.405 87.9117V8.80772C209.405 6.58906 210.13 4.75439 211.581 3.30372C213.117 1.76772 214.994 0.999725 217.213 0.999725C219.432 0.999725 221.224 1.76772 222.589 3.30372C224.04 4.75439 224.765 6.58906 224.765 8.80772V87.9117ZM257.089 87.9117C257.089 90.1304 256.364 92.0077 254.913 93.5437C253.462 94.9944 251.628 95.7197 249.409 95.7197C247.19 95.7197 245.356 94.9944 243.905 93.5437C242.454 92.0077 241.729 90.1304 241.729 87.9117V35.0477C241.729 32.8291 242.454 30.9944 243.905 29.5437C245.356 28.0077 247.19 27.2397 249.409 27.2397C251.628 27.2397 253.462 28.0077 254.913 29.5437C256.364 30.9944 257.089 32.8291 257.089 35.0477V87.9117ZM249.281 18.9197C246.38 18.9197 244.332 18.4504 243.137 17.5117C241.942 16.5731 241.345 14.9091 241.345 12.5197V10.0877C241.345 7.61306 241.985 5.94906 243.265 5.09573C244.63 4.15706 246.678 3.68772 249.409 3.68772C252.396 3.68772 254.486 4.15706 255.681 5.09573C256.876 6.03439 257.473 7.69839 257.473 10.0877V12.5197C257.473 14.9944 256.833 16.7011 255.553 17.6397C254.273 18.4931 252.182 18.9197 249.281 18.9197ZM273.643 28.5197H303.979C306.027 28.5197 307.734 29.2024 309.099 30.5677C310.464 31.9331 311.147 33.6397 311.147 35.6877C311.147 37.6504 310.464 39.3144 309.099 40.6797C307.734 41.9597 306.027 42.5997 303.979 42.5997H273.643C271.595 42.5997 269.888 41.9171 268.523 40.5517C267.158 39.1864 266.475 37.4797 266.475 35.4317C266.475 33.4691 267.158 31.8477 268.523 30.5677C269.888 29.2024 271.595 28.5197 273.643 28.5197ZM287.339 12.5197C289.558 12.5197 291.35 13.2877 292.715 14.8237C294.166 16.2744 294.891 18.1091 294.891 20.3277V77.2877C294.891 78.4824 295.104 79.4637 295.531 80.2317C296.043 80.9997 296.683 81.5544 297.451 81.8957C298.304 82.2371 299.2 82.4077 300.139 82.4077C301.163 82.4077 302.102 82.2371 302.955 81.8957C303.808 81.4691 304.79 81.2557 305.899 81.2557C307.094 81.2557 308.16 81.8104 309.099 82.9197C310.123 84.0291 310.635 85.5651 310.635 87.5277C310.635 89.9171 309.312 91.8797 306.667 93.4157C304.107 94.9517 301.334 95.7197 298.347 95.7197C296.555 95.7197 294.55 95.5917 292.331 95.3357C290.198 94.9944 288.15 94.2691 286.187 93.1597C284.31 91.9651 282.731 90.1731 281.451 87.7837C280.171 85.3944 279.531 82.1091 279.531 77.9277V20.3277C279.531 18.1091 280.256 16.2744 281.707 14.8237C283.243 13.2877 285.12 12.5197 287.339 12.5197ZM376.066 27.2397C378.285 27.2397 380.119 28.0077 381.57 29.5437C383.021 30.9944 383.746 32.8291 383.746 35.0477V89.4477C383.746 97.2984 382.253 103.528 379.266 108.136C376.365 112.829 372.439 116.2 367.49 118.248C362.541 120.296 356.994 121.32 350.85 121.32C348.119 121.32 345.218 121.106 342.146 120.68C339.074 120.253 336.557 119.613 334.594 118.76C332.034 117.65 330.242 116.242 329.218 114.536C328.279 112.914 328.109 111.165 328.706 109.288C329.474 106.813 330.711 105.106 332.418 104.168C334.125 103.314 335.917 103.229 337.794 103.912C339.159 104.338 340.951 104.978 343.17 105.832C345.389 106.77 347.949 107.24 350.85 107.24C354.775 107.24 358.018 106.685 360.578 105.576C363.223 104.552 365.186 102.76 366.466 100.2C367.831 97.7251 368.514 94.3117 368.514 89.9597V81.3837L371.202 84.4557C369.751 87.2717 367.917 89.6184 365.698 91.4957C363.565 93.2877 361.005 94.6531 358.018 95.5917C355.031 96.5304 351.618 96.9997 347.778 96.9997C343.255 96.9997 339.287 95.9757 335.874 93.9277C332.546 91.7944 329.943 88.8931 328.066 85.2237C326.189 81.4691 325.25 77.2024 325.25 72.4237V35.0477C325.25 32.8291 325.975 30.9944 327.426 29.5437C328.877 28.0077 330.711 27.2397 332.93 27.2397C335.149 27.2397 336.983 28.0077 338.434 29.5437C339.885 30.9944 340.61 32.8291 340.61 35.0477V67.8157C340.61 73.3624 341.805 77.2877 344.194 79.5917C346.669 81.8104 350.082 82.9197 354.434 82.9197C357.421 82.9197 359.938 82.3651 361.986 81.2557C364.034 80.0611 365.613 78.3544 366.722 76.1357C367.831 73.8317 368.386 71.0584 368.386 67.8157V35.0477C368.386 32.8291 369.111 30.9944 370.562 29.5437C372.013 28.0077 373.847 27.2397 376.066 27.2397Z"/>
</mask>
<path d="M8.67999 95.7197C6.46133 95.7197 4.62666 94.9944 3.17599 93.5437C1.72533 92.0077 0.999993 90.1304 0.999993 87.9117V35.0477C0.999993 32.8291 1.72533 30.9944 3.17599 29.5437C4.62666 28.0077 6.46133 27.2397 8.67999 27.2397C10.8987 27.2397 12.7333 28.0077 14.184 29.5437C15.6347 30.9944 16.36 32.8291 16.36 35.0477V47.0797L15.464 38.5037C16.4027 36.4557 17.5973 34.6637 19.048 33.1277C20.584 31.5064 22.2907 30.1837 24.168 29.1597C26.0453 28.0504 28.0507 27.2397 30.184 26.7277C32.3173 26.2157 34.4507 25.9597 36.584 25.9597C39.144 25.9597 41.2773 26.6851 42.984 28.1357C44.776 29.5864 45.672 31.2931 45.672 33.2557C45.672 36.0717 44.9467 38.1197 43.496 39.3997C42.0453 40.5944 40.4667 41.1917 38.76 41.1917C37.1387 41.1917 35.6453 40.8931 34.28 40.2957C33 39.6984 31.5067 39.3997 29.8 39.3997C28.264 39.3997 26.6853 39.7837 25.064 40.5517C23.528 41.2344 22.0773 42.3437 20.712 43.8797C19.432 45.4157 18.3653 47.3357 17.512 49.6397C16.744 51.8584 16.36 54.5037 16.36 57.5757V87.9117C16.36 90.1304 15.6347 92.0077 14.184 93.5437C12.7333 94.9944 10.8987 95.7197 8.67999 95.7197ZM85.241 96.9997C77.9877 96.9997 71.673 95.5064 66.297 92.5197C61.0063 89.4477 56.9103 85.3091 54.009 80.1037C51.193 74.8984 49.785 69.0104 49.785 62.4397C49.785 54.7597 51.321 48.2317 54.393 42.8557C57.5503 37.3944 61.6463 33.2131 66.681 30.3117C71.7157 27.4104 77.049 25.9597 82.681 25.9597C87.033 25.9597 91.129 26.8557 94.969 28.6477C98.8943 30.4397 102.35 32.9144 105.337 36.0717C108.324 39.1437 110.67 42.7277 112.377 46.8237C114.169 50.9197 115.065 55.2717 115.065 59.8797C114.98 61.9277 114.169 63.5917 112.633 64.8717C111.097 66.1517 109.305 66.7917 107.257 66.7917H58.361L54.521 53.9917H101.497L98.681 56.5517V53.0957C98.5103 50.6211 97.6143 48.4024 95.993 46.4397C94.457 44.4771 92.4943 42.9411 90.105 41.8317C87.801 40.6371 85.3263 40.0397 82.681 40.0397C80.121 40.0397 77.7317 40.3811 75.513 41.0637C73.2943 41.7464 71.3743 42.8984 69.753 44.5197C68.1317 46.1411 66.8517 48.3171 65.913 51.0477C64.9743 53.7784 64.505 57.2344 64.505 61.4157C64.505 66.0237 65.4437 69.9491 67.321 73.1917C69.2837 76.3491 71.7583 78.7811 74.745 80.4877C77.817 82.1091 81.0597 82.9197 84.473 82.9197C87.6303 82.9197 90.1477 82.6637 92.025 82.1517C93.9023 81.6397 95.3957 81.0424 96.505 80.3597C97.6997 79.5917 98.7663 78.9517 99.705 78.4397C101.241 77.6717 102.692 77.2877 104.057 77.2877C105.934 77.2877 107.47 77.9277 108.665 79.2077C109.945 80.4877 110.585 81.9811 110.585 83.6877C110.585 85.9917 109.39 88.0824 107.001 89.9597C104.782 91.8371 101.668 93.5011 97.657 94.9517C93.6463 96.3171 89.5077 96.9997 85.241 96.9997ZM183.799 25.9597C186.018 25.9597 187.852 26.6851 189.303 28.1357C190.754 29.5864 191.479 31.4637 191.479 33.7677V87.9117C191.479 90.1304 190.754 92.0077 189.303 93.5437C187.852 94.9944 186.018 95.7197 183.799 95.7197C181.58 95.7197 179.746 94.9944 178.295 93.5437C176.844 92.0077 176.119 90.1304 176.119 87.9117V81.6397L178.935 82.7917C178.935 83.9011 178.338 85.2664 177.143 86.8877C175.948 88.4237 174.327 89.9597 172.279 91.4957C170.231 93.0317 167.799 94.3544 164.983 95.4637C162.252 96.4877 159.266 96.9997 156.023 96.9997C150.135 96.9997 144.802 95.5064 140.023 92.5197C135.244 89.4477 131.447 85.2664 128.631 79.9757C125.9 74.5997 124.535 68.4557 124.535 61.5437C124.535 54.5464 125.9 48.4024 128.631 43.1117C131.447 37.7357 135.202 33.5544 139.895 30.5677C144.588 27.4957 149.794 25.9597 155.511 25.9597C159.18 25.9597 162.551 26.5144 165.623 27.6237C168.695 28.7331 171.34 30.1411 173.559 31.8477C175.863 33.5544 177.612 35.3037 178.807 37.0957C180.087 38.8024 180.727 40.2531 180.727 41.4477L176.119 43.1117V33.7677C176.119 31.5491 176.844 29.7144 178.295 28.2637C179.746 26.7277 181.58 25.9597 183.799 25.9597ZM157.943 82.9197C161.698 82.9197 164.983 81.9811 167.799 80.1037C170.615 78.2264 172.791 75.6664 174.327 72.4237C175.948 69.1811 176.759 65.5544 176.759 61.5437C176.759 57.4477 175.948 53.7784 174.327 50.5357C172.791 47.2931 170.615 44.7331 167.799 42.8557C164.983 40.9784 161.698 40.0397 157.943 40.0397C154.274 40.0397 151.031 40.9784 148.215 42.8557C145.399 44.7331 143.18 47.2931 141.559 50.5357C140.023 53.7784 139.255 57.4477 139.255 61.5437C139.255 65.5544 140.023 69.1811 141.559 72.4237C143.18 75.6664 145.399 78.2264 148.215 80.1037C151.031 81.9811 154.274 82.9197 157.943 82.9197ZM224.765 87.9117C224.765 90.1304 223.997 92.0077 222.461 93.5437C221.01 94.9944 219.176 95.7197 216.957 95.7197C214.824 95.7197 213.032 94.9944 211.581 93.5437C210.13 92.0077 209.405 90.1304 209.405 87.9117V8.80772C209.405 6.58906 210.13 4.75439 211.581 3.30372C213.117 1.76772 214.994 0.999725 217.213 0.999725C219.432 0.999725 221.224 1.76772 222.589 3.30372C224.04 4.75439 224.765 6.58906 224.765 8.80772V87.9117ZM257.089 87.9117C257.089 90.1304 256.364 92.0077 254.913 93.5437C253.462 94.9944 251.628 95.7197 249.409 95.7197C247.19 95.7197 245.356 94.9944 243.905 93.5437C242.454 92.0077 241.729 90.1304 241.729 87.9117V35.0477C241.729 32.8291 242.454 30.9944 243.905 29.5437C245.356 28.0077 247.19 27.2397 249.409 27.2397C251.628 27.2397 253.462 28.0077 254.913 29.5437C256.364 30.9944 257.089 32.8291 257.089 35.0477V87.9117ZM249.281 18.9197C246.38 18.9197 244.332 18.4504 243.137 17.5117C241.942 16.5731 241.345 14.9091 241.345 12.5197V10.0877C241.345 7.61306 241.985 5.94906 243.265 5.09573C244.63 4.15706 246.678 3.68772 249.409 3.68772C252.396 3.68772 254.486 4.15706 255.681 5.09573C256.876 6.03439 257.473 7.69839 257.473 10.0877V12.5197C257.473 14.9944 256.833 16.7011 255.553 17.6397C254.273 18.4931 252.182 18.9197 249.281 18.9197ZM273.643 28.5197H303.979C306.027 28.5197 307.734 29.2024 309.099 30.5677C310.464 31.9331 311.147 33.6397 311.147 35.6877C311.147 37.6504 310.464 39.3144 309.099 40.6797C307.734 41.9597 306.027 42.5997 303.979 42.5997H273.643C271.595 42.5997 269.888 41.9171 268.523 40.5517C267.158 39.1864 266.475 37.4797 266.475 35.4317C266.475 33.4691 267.158 31.8477 268.523 30.5677C269.888 29.2024 271.595 28.5197 273.643 28.5197ZM287.339 12.5197C289.558 12.5197 291.35 13.2877 292.715 14.8237C294.166 16.2744 294.891 18.1091 294.891 20.3277V77.2877C294.891 78.4824 295.104 79.4637 295.531 80.2317C296.043 80.9997 296.683 81.5544 297.451 81.8957C298.304 82.2371 299.2 82.4077 300.139 82.4077C301.163 82.4077 302.102 82.2371 302.955 81.8957C303.808 81.4691 304.79 81.2557 305.899 81.2557C307.094 81.2557 308.16 81.8104 309.099 82.9197C310.123 84.0291 310.635 85.5651 310.635 87.5277C310.635 89.9171 309.312 91.8797 306.667 93.4157C304.107 94.9517 301.334 95.7197 298.347 95.7197C296.555 95.7197 294.55 95.5917 292.331 95.3357C290.198 94.9944 288.15 94.2691 286.187 93.1597C284.31 91.9651 282.731 90.1731 281.451 87.7837C280.171 85.3944 279.531 82.1091 279.531 77.9277V20.3277C279.531 18.1091 280.256 16.2744 281.707 14.8237C283.243 13.2877 285.12 12.5197 287.339 12.5197ZM376.066 27.2397C378.285 27.2397 380.119 28.0077 381.57 29.5437C383.021 30.9944 383.746 32.8291 383.746 35.0477V89.4477C383.746 97.2984 382.253 103.528 379.266 108.136C376.365 112.829 372.439 116.2 367.49 118.248C362.541 120.296 356.994 121.32 350.85 121.32C348.119 121.32 345.218 121.106 342.146 120.68C339.074 120.253 336.557 119.613 334.594 118.76C332.034 117.65 330.242 116.242 329.218 114.536C328.279 112.914 328.109 111.165 328.706 109.288C329.474 106.813 330.711 105.106 332.418 104.168C334.125 103.314 335.917 103.229 337.794 103.912C339.159 104.338 340.951 104.978 343.17 105.832C345.389 106.77 347.949 107.24 350.85 107.24C354.775 107.24 358.018 106.685 360.578 105.576C363.223 104.552 365.186 102.76 366.466 100.2C367.831 97.7251 368.514 94.3117 368.514 89.9597V81.3837L371.202 84.4557C369.751 87.2717 367.917 89.6184 365.698 91.4957C363.565 93.2877 361.005 94.6531 358.018 95.5917C355.031 96.5304 351.618 96.9997 347.778 96.9997C343.255 96.9997 339.287 95.9757 335.874 93.9277C332.546 91.7944 329.943 88.8931 328.066 85.2237C326.189 81.4691 325.25 77.2024 325.25 72.4237V35.0477C325.25 32.8291 325.975 30.9944 327.426 29.5437C328.877 28.0077 330.711 27.2397 332.93 27.2397C335.149 27.2397 336.983 28.0077 338.434 29.5437C339.885 30.9944 340.61 32.8291 340.61 35.0477V67.8157C340.61 73.3624 341.805 77.2877 344.194 79.5917C346.669 81.8104 350.082 82.9197 354.434 82.9197C357.421 82.9197 359.938 82.3651 361.986 81.2557C364.034 80.0611 365.613 78.3544 366.722 76.1357C367.831 73.8317 368.386 71.0584 368.386 67.8157V35.0477C368.386 32.8291 369.111 30.9944 370.562 29.5437C372.013 28.0077 373.847 27.2397 376.066 27.2397Z" fill="#080520"/>
<path d="M3.17599 93.5437L2.44898 94.2303L2.45879 94.2407L2.46889 94.2508L3.17599 93.5437ZM3.17599 29.5437L3.8831 30.2508L3.8932 30.2407L3.90301 30.2303L3.17599 29.5437ZM14.184 29.5437L13.457 30.2303L13.4668 30.2407L13.4769 30.2508L14.184 29.5437ZM16.36 47.0797L15.3654 47.1836L17.36 47.0797H16.36ZM15.464 38.5037L14.5549 38.0871L14.441 38.3357L14.4694 38.6076L15.464 38.5037ZM19.048 33.1277L18.322 32.44L18.321 32.4411L19.048 33.1277ZM24.168 29.1597L24.6468 30.0376L24.6619 30.0294L24.6767 30.0206L24.168 29.1597ZM42.984 28.1357L42.3363 28.8977L42.3455 28.9054L42.3548 28.913L42.984 28.1357ZM43.496 39.3997L44.1317 40.1717L44.1448 40.1608L44.1576 40.1496L43.496 39.3997ZM34.28 40.2957L33.8571 41.2019L33.8681 41.207L33.8792 41.2119L34.28 40.2957ZM25.064 40.5517L25.4701 41.4655L25.4812 41.4606L25.4921 41.4555L25.064 40.5517ZM20.712 43.8797L19.9646 43.2154L19.954 43.2273L19.9438 43.2395L20.712 43.8797ZM17.512 49.6397L16.5742 49.2924L16.5705 49.3025L16.567 49.3126L17.512 49.6397ZM14.184 93.5437L14.8911 94.2508L14.9012 94.2407L14.911 94.2303L14.184 93.5437ZM8.67999 95.7197V94.7197C6.70269 94.7197 5.13001 94.0835 3.8831 92.8366L3.17599 93.5437L2.46889 94.2508C4.12331 95.9053 6.21996 96.7197 8.67999 96.7197V95.7197ZM3.17599 93.5437L3.90301 92.8571C2.63712 91.5167 1.99999 89.8892 1.99999 87.9117H0.999993H-6.67572e-06C-6.67572e-06 90.3716 0.813536 92.4987 2.44898 94.2303L3.17599 93.5437ZM0.999993 87.9117H1.99999V35.0477H0.999993H-6.67572e-06V87.9117H0.999993ZM0.999993 35.0477H1.99999C1.99999 33.0704 2.63619 31.4977 3.8831 30.2508L3.17599 29.5437L2.46889 28.8366C0.814467 30.491 -6.67572e-06 32.5877 -6.67572e-06 35.0477H0.999993ZM3.17599 29.5437L3.90301 30.2303C5.15438 28.9054 6.72097 28.2397 8.67999 28.2397V27.2397V26.2397C6.20169 26.2397 4.09894 27.1101 2.44898 28.8571L3.17599 29.5437ZM8.67999 27.2397V28.2397C10.639 28.2397 12.2056 28.9054 13.457 30.2303L14.184 29.5437L14.911 28.8571C13.2611 27.1101 11.1583 26.2397 8.67999 26.2397V27.2397ZM14.184 29.5437L13.4769 30.2508C14.7238 31.4977 15.36 33.0704 15.36 35.0477H16.36H17.36C17.36 32.5877 16.5455 30.491 14.8911 28.8366L14.184 29.5437ZM16.36 35.0477H15.36V47.0797H16.36H17.36V35.0477H16.36ZM16.36 47.0797L17.3546 46.9758L16.4586 38.3998L15.464 38.5037L14.4694 38.6076L15.3654 47.1836L16.36 47.0797ZM15.464 38.5037L16.3731 38.9204C17.2692 36.9651 18.4042 35.2658 19.775 33.8143L19.048 33.1277L18.321 32.4411C16.7905 34.0617 15.5361 35.9464 14.5549 38.0871L15.464 38.5037ZM19.048 33.1277L19.7739 33.8155C21.2412 32.2667 22.8653 31.0094 24.6468 30.0376L24.168 29.1597L23.6891 28.2818C21.716 29.3581 19.9267 30.7461 18.322 32.44L19.048 33.1277ZM24.168 29.1597L24.6767 30.0206C26.4678 28.9623 28.3803 28.189 30.4174 27.7001L30.184 26.7277L29.9506 25.7553C27.7211 26.2904 25.6229 27.1385 23.6593 28.2988L24.168 29.1597ZM30.184 26.7277L30.4174 27.7001C32.4764 27.2059 34.5315 26.9597 36.584 26.9597V25.9597V24.9597C34.3698 24.9597 32.1582 25.2255 29.9506 25.7553L30.184 26.7277ZM36.584 25.9597V26.9597C38.9427 26.9597 40.8361 27.6225 42.3363 28.8977L42.984 28.1357L43.6316 27.3738C41.7185 25.7476 39.3453 24.9597 36.584 24.9597V25.9597ZM42.984 28.1357L42.3548 28.913C43.958 30.2108 44.672 31.6491 44.672 33.2557H45.672H46.672C46.672 30.937 45.594 28.962 43.6132 27.3585L42.984 28.1357ZM45.672 33.2557H44.672C44.672 35.9182 43.9869 37.633 42.8344 38.6499L43.496 39.3997L44.1576 40.1496C45.9065 38.6065 46.672 36.2253 46.672 33.2557H45.672ZM43.496 39.3997L42.8603 38.6278C41.5693 39.6909 40.2109 40.1917 38.76 40.1917V41.1917V42.1917C40.7225 42.1917 42.5213 41.4978 44.1317 40.1717L43.496 39.3997ZM38.76 41.1917V40.1917C37.2644 40.1917 35.909 39.9169 34.6808 39.3796L34.28 40.2957L33.8792 41.2119C35.3817 41.8692 37.013 42.1917 38.76 42.1917V41.1917ZM34.28 40.2957L34.7029 39.3895C33.2658 38.7189 31.6229 38.3997 29.8 38.3997V39.3997V40.3997C31.3904 40.3997 32.7342 40.6779 33.8571 41.2019L34.28 40.2957ZM29.8 39.3997V38.3997C28.093 38.3997 26.3687 38.8272 24.6359 39.648L25.064 40.5517L25.4921 41.4555C27.002 40.7403 28.4349 40.3997 29.8 40.3997V39.3997ZM25.064 40.5517L24.6579 39.6379C22.966 40.3899 21.404 41.596 19.9646 43.2154L20.712 43.8797L21.4594 44.5441C22.7507 43.0914 24.09 42.0789 25.4701 41.4655L25.064 40.5517ZM20.712 43.8797L19.9438 43.2395C18.5766 44.8802 17.4583 46.9054 16.5742 49.2924L17.512 49.6397L18.4497 49.987C19.2723 47.7661 20.2874 45.9512 21.4802 44.5199L20.712 43.8797ZM17.512 49.6397L16.567 49.3126C15.7533 51.6633 15.36 54.4248 15.36 57.5757H16.36H17.36C17.36 54.5827 17.7347 52.0535 18.457 49.9668L17.512 49.6397ZM16.36 57.5757H15.36V87.9117H16.36H17.36V57.5757H16.36ZM16.36 87.9117H15.36C15.36 89.8892 14.7229 91.5167 13.457 92.8571L14.184 93.5437L14.911 94.2303C16.5465 92.4987 17.36 90.3716 17.36 87.9117H16.36ZM14.184 93.5437L13.4769 92.8366C12.23 94.0835 10.6573 94.7197 8.67999 94.7197V95.7197V96.7197C11.14 96.7197 13.2367 95.9053 14.8911 94.2508L14.184 93.5437ZM66.297 92.5197L65.7949 93.3845L65.8031 93.3893L65.8113 93.3939L66.297 92.5197ZM54.009 80.1037L53.1294 80.5796L53.1355 80.5906L54.009 80.1037ZM54.393 42.8557L53.5272 42.3552L53.5247 42.3596L54.393 42.8557ZM66.681 30.3117L66.1817 29.4453V29.4453L66.681 30.3117ZM94.969 28.6477L94.5461 29.5539L94.5537 29.5574L94.969 28.6477ZM105.337 36.0717L104.61 36.759L104.62 36.7688L105.337 36.0717ZM112.377 46.8237L111.454 47.2083L111.457 47.2165L111.461 47.2245L112.377 46.8237ZM115.065 59.8797L116.064 59.9214L116.065 59.9006V59.8797H115.065ZM112.633 64.8717L113.273 65.6399L112.633 64.8717ZM58.361 66.7917L57.4032 67.0791L57.617 67.7917H58.361V66.7917ZM54.521 53.9917V52.9917H53.177L53.5632 54.2791L54.521 53.9917ZM101.497 53.9917L102.17 54.7317L104.084 52.9917H101.497V53.9917ZM98.681 56.5517H97.681V58.8123L99.3537 57.2917L98.681 56.5517ZM98.681 53.0957H99.681V53.0613L99.6786 53.0269L98.681 53.0957ZM95.993 46.4397L95.2055 47.056L95.2136 47.0664L95.222 47.0766L95.993 46.4397ZM90.105 41.8317L89.6447 42.7195L89.6641 42.7295L89.6839 42.7387L90.105 41.8317ZM75.513 41.0637L75.8071 42.0195V42.0195L75.513 41.0637ZM69.753 44.5197L70.4601 45.2268V45.2268L69.753 44.5197ZM65.913 51.0477L66.8587 51.3728V51.3728L65.913 51.0477ZM67.321 73.1917L66.4556 73.6928L66.4634 73.7063L66.4717 73.7197L67.321 73.1917ZM74.745 80.4877L74.2489 81.356L74.2634 81.3643L74.2782 81.3721L74.745 80.4877ZM92.025 82.1517L91.7619 81.187V81.187L92.025 82.1517ZM96.505 80.3597L97.0291 81.2114L97.0375 81.2062L97.0457 81.2009L96.505 80.3597ZM99.705 78.4397L99.2578 77.5453L99.2418 77.5533L99.2261 77.5618L99.705 78.4397ZM108.665 79.2077L107.934 79.89L107.946 79.9026L107.958 79.9148L108.665 79.2077ZM107.001 89.9597L106.383 89.1734L106.369 89.1846L106.355 89.1963L107.001 89.9597ZM97.657 94.9517L97.9793 95.8984L97.9882 95.8953L97.9971 95.8921L97.657 94.9517ZM85.241 96.9997V95.9997C78.127 95.9997 71.9855 94.536 66.7826 91.6456L66.297 92.5197L65.8113 93.3939C71.3605 96.4768 77.8483 97.9997 85.241 97.9997V96.9997ZM66.297 92.5197L66.7991 91.6549C61.6596 88.6707 57.6938 84.6608 54.8825 79.6169L54.009 80.1037L53.1355 80.5906C56.1268 85.9573 60.353 90.2247 65.7949 93.3845L66.297 92.5197ZM54.009 80.1037L54.8885 79.6279C52.16 74.5843 50.785 68.8629 50.785 62.4397H49.785H48.785C48.785 69.1579 50.226 75.2125 53.1294 80.5795L54.009 80.1037ZM49.785 62.4397H50.785C50.785 54.8924 52.294 48.5445 55.2612 43.3519L54.393 42.8557L53.5247 42.3596C50.348 47.919 48.785 54.6271 48.785 62.4397H49.785ZM54.393 42.8557L55.2587 43.3562C58.3359 38.0335 62.3107 33.9844 67.1803 31.1782L66.681 30.3117L66.1817 29.4453C60.982 32.4417 56.7647 36.7553 53.5273 42.3552L54.393 42.8557ZM66.681 30.3117L67.1803 31.1782C72.0681 28.3614 77.23 26.9597 82.681 26.9597V25.9597V24.9597C76.868 24.9597 71.3632 26.4594 66.1817 29.4453L66.681 30.3117ZM82.681 25.9597V26.9597C86.8909 26.9597 90.8422 27.8254 94.5461 29.5539L94.969 28.6477L95.3919 27.7415C91.4158 25.886 87.1751 24.9597 82.681 24.9597V25.9597ZM94.969 28.6477L94.5537 29.5574C98.3611 31.2956 101.712 33.6944 104.611 36.7589L105.337 36.0717L106.063 35.3845C102.989 32.1344 99.4276 29.5839 95.3843 27.738L94.969 28.6477ZM105.337 36.0717L104.62 36.7688C107.516 39.7473 109.794 43.2243 111.454 47.2083L112.377 46.8237L113.3 46.4391C111.547 42.2311 109.132 38.5401 106.054 35.3746L105.337 36.0717ZM112.377 46.8237L111.461 47.2245C113.196 51.1902 114.065 55.4053 114.065 59.8797H115.065H116.065C116.065 55.1381 115.142 50.6492 113.293 46.4229L112.377 46.8237ZM115.065 59.8797L114.066 59.8381C113.992 61.6122 113.306 63.0093 111.993 64.1035L112.633 64.8717L113.273 65.6399C115.032 64.1741 115.967 62.2433 116.064 59.9214L115.065 59.8797ZM112.633 64.8717L111.993 64.1035C110.641 65.2298 109.077 65.7917 107.257 65.7917V66.7917V67.7917C109.533 67.7917 111.553 67.0736 113.273 65.6399L112.633 64.8717ZM107.257 66.7917V65.7917H58.361V66.7917V67.7917H107.257V66.7917ZM58.361 66.7917L59.3188 66.5044L55.4788 53.7044L54.521 53.9917L53.5632 54.2791L57.4032 67.0791L58.361 66.7917ZM54.521 53.9917V54.9917H101.497V53.9917V52.9917H54.521V53.9917ZM101.497 53.9917L100.824 53.2518L98.0083 55.8118L98.681 56.5517L99.3537 57.2917L102.17 54.7317L101.497 53.9917ZM98.681 56.5517H99.681V53.0957H98.681H97.681V56.5517H98.681ZM98.681 53.0957L99.6786 53.0269C99.4932 50.3381 98.5146 47.922 96.764 45.8028L95.993 46.4397L95.222 47.0766C96.7141 48.8828 97.5275 50.904 97.6834 53.1645L98.681 53.0957ZM95.993 46.4397L96.7805 45.8234C95.1415 43.7292 93.0504 42.0967 90.5261 40.9247L90.105 41.8317L89.6839 42.7387C91.9382 43.7854 93.7725 45.225 95.2055 47.056L95.993 46.4397ZM90.105 41.8317L90.5653 40.944C88.1163 39.6741 85.4833 39.0397 82.681 39.0397V40.0397V41.0397C85.1693 41.0397 87.4857 41.6 89.6447 42.7195L90.105 41.8317ZM82.681 40.0397V39.0397C80.0315 39.0397 77.5421 39.3931 75.2189 40.1079L75.513 41.0637L75.8071 42.0195C77.9212 41.369 80.2105 41.0397 82.681 41.0397V40.0397ZM75.513 41.0637L75.2189 40.1079C72.8464 40.838 70.784 42.0745 69.0459 43.8126L69.753 44.5197L70.4601 45.2268C71.9646 43.7223 73.7423 42.6548 75.8071 42.0195L75.513 41.0637ZM69.753 44.5197L69.0459 43.8126C67.2928 45.5657 65.9429 47.8844 64.9673 50.7226L65.913 51.0477L66.8587 51.3728C67.7604 48.7497 68.9705 46.7164 70.4601 45.2268L69.753 44.5197ZM65.913 51.0477L64.9673 50.7226C63.9805 53.5934 63.505 57.1689 63.505 61.4157H64.505H65.505C65.505 57.2999 65.9682 53.9634 66.8587 51.3728L65.913 51.0477ZM64.505 61.4157H63.505C63.505 66.1595 64.4719 70.2665 66.4556 73.6928L67.321 73.1917L68.1864 72.6907C66.4154 69.6316 65.505 65.888 65.505 61.4157H64.505ZM67.321 73.1917L66.4717 73.7197C68.5148 77.0063 71.1066 79.5604 74.2489 81.356L74.745 80.4877L75.2411 79.6195C72.4101 78.0017 70.0526 75.6918 68.1703 72.6638L67.321 73.1917ZM74.745 80.4877L74.2782 81.3721C77.4915 83.068 80.894 83.9197 84.473 83.9197V82.9197V81.9197C81.2253 81.9197 78.1425 81.1501 75.2118 79.6033L74.745 80.4877ZM84.473 82.9197V83.9197C87.6714 83.9197 90.2887 83.6618 92.2881 83.1165L92.025 82.1517L91.7619 81.187C90.0066 81.6657 87.5893 81.9197 84.473 81.9197V82.9197ZM92.025 82.1517L92.2881 83.1165C94.2168 82.5905 95.8092 81.9621 97.0291 81.2114L96.505 80.3597L95.9809 79.5081C94.9821 80.1227 93.5879 80.689 91.7619 81.187L92.025 82.1517ZM96.505 80.3597L97.0457 81.2009C98.2263 80.442 99.2718 79.8151 100.184 79.3176L99.705 78.4397L99.2261 77.5618C98.2609 78.0883 97.173 78.7415 95.9642 79.5185L96.505 80.3597ZM99.705 78.4397L100.152 79.3342C101.584 78.6181 102.882 78.2877 104.057 78.2877V77.2877V76.2877C102.502 76.2877 100.898 76.7253 99.2578 77.5453L99.705 78.4397ZM104.057 77.2877V78.2877C105.68 78.2877 106.943 78.8285 107.934 79.89L108.665 79.2077L109.396 78.5254C107.997 77.027 106.189 76.2877 104.057 76.2877V77.2877ZM108.665 79.2077L107.958 79.9148C109.063 81.0199 109.585 82.2636 109.585 83.6877H110.585H111.585C111.585 81.6985 110.827 79.9555 109.372 78.5006L108.665 79.2077ZM110.585 83.6877H109.585C109.585 85.5928 108.614 87.4204 106.383 89.1734L107.001 89.9597L107.619 90.746C110.166 88.7444 111.585 86.3907 111.585 83.6877H110.585ZM107.001 89.9597L106.355 89.1963C104.259 90.9701 101.263 92.5839 97.3169 94.0114L97.657 94.9517L97.9971 95.8921C102.072 94.4182 105.306 92.704 107.647 90.7231L107.001 89.9597ZM97.657 94.9517L97.3347 94.0051C93.4286 95.3348 89.3988 95.9997 85.241 95.9997V96.9997V97.9997C89.6165 97.9997 93.8641 97.2993 97.9793 95.8984L97.657 94.9517ZM189.303 28.1357L188.596 28.8428V28.8428L189.303 28.1357ZM189.303 93.5437L190.01 94.2508L190.02 94.2407L190.03 94.2303L189.303 93.5437ZM178.295 93.5437L177.568 94.2303L177.578 94.2407L177.588 94.2508L178.295 93.5437ZM176.119 81.6397L176.498 80.7142L175.119 80.1502V81.6397H176.119ZM178.935 82.7917H179.935V82.1204L179.314 81.8662L178.935 82.7917ZM177.143 86.8877L177.932 87.5017L177.94 87.4914L177.948 87.4809L177.143 86.8877ZM172.279 91.4957L172.879 92.2957V92.2957L172.279 91.4957ZM164.983 95.4637L165.334 96.4001L165.342 96.3972L165.35 96.3941L164.983 95.4637ZM140.023 92.5197L139.482 93.361L139.493 93.3677L140.023 92.5197ZM128.631 79.9757L127.739 80.4286L127.744 80.4371L127.748 80.4456L128.631 79.9757ZM128.631 43.1117L127.745 42.6477L127.742 42.6531L128.631 43.1117ZM139.895 30.5677L140.432 31.4115L140.443 31.4044L139.895 30.5677ZM165.623 27.6237L165.283 28.5643V28.5643L165.623 27.6237ZM173.559 31.8477L172.949 32.6404L172.956 32.6459L172.964 32.6513L173.559 31.8477ZM178.807 37.0957L177.975 37.6504L177.99 37.6735L178.007 37.6957L178.807 37.0957ZM180.727 41.4477L181.067 42.3883L181.727 42.1498V41.4477H180.727ZM176.119 43.1117H175.119V44.536L176.459 44.0523L176.119 43.1117ZM178.295 28.2637L179.002 28.9708L179.012 28.9607L179.022 28.9503L178.295 28.2637ZM167.799 80.1037L168.354 80.9358V80.9358L167.799 80.1037ZM174.327 72.4237L173.433 71.9765L173.428 71.986L173.423 71.9956L174.327 72.4237ZM174.327 50.5357L173.423 50.9638L173.428 50.9734L173.433 50.9829L174.327 50.5357ZM167.799 42.8557L167.244 43.6878V43.6878L167.799 42.8557ZM148.215 42.8557L148.77 43.6878V43.6878L148.215 42.8557ZM141.559 50.5357L140.665 50.0885L140.66 50.098L140.655 50.1076L141.559 50.5357ZM141.559 72.4237L140.655 72.8518L140.66 72.8614L140.665 72.8709L141.559 72.4237ZM148.215 80.1037L148.77 79.2717V79.2717L148.215 80.1037ZM183.799 25.9597V26.9597C185.776 26.9597 187.349 27.5959 188.596 28.8428L189.303 28.1357L190.01 27.4286C188.356 25.7742 186.259 24.9597 183.799 24.9597V25.9597ZM189.303 28.1357L188.596 28.8428C189.835 30.0822 190.479 31.6933 190.479 33.7677H191.479H192.479C192.479 31.2341 191.672 29.0906 190.01 27.4286L189.303 28.1357ZM191.479 33.7677H190.479V87.9117H191.479H192.479V33.7677H191.479ZM191.479 87.9117H190.479C190.479 89.8892 189.842 91.5167 188.576 92.8571L189.303 93.5437L190.03 94.2303C191.665 92.4987 192.479 90.3716 192.479 87.9117H191.479ZM189.303 93.5437L188.596 92.8366C187.349 94.0835 185.776 94.7197 183.799 94.7197V95.7197V96.7197C186.259 96.7197 188.356 95.9053 190.01 94.2508L189.303 93.5437ZM183.799 95.7197V94.7197C181.822 94.7197 180.249 94.0835 179.002 92.8366L178.295 93.5437L177.588 94.2508C179.242 95.9053 181.339 96.7197 183.799 96.7197V95.7197ZM178.295 93.5437L179.022 92.8571C177.756 91.5167 177.119 89.8892 177.119 87.9117H176.119H175.119C175.119 90.3716 175.933 92.4987 177.568 94.2303L178.295 93.5437ZM176.119 87.9117H177.119V81.6397H176.119H175.119V87.9117H176.119ZM176.119 81.6397L175.74 82.5653L178.556 83.7173L178.935 82.7917L179.314 81.8662L176.498 80.7142L176.119 81.6397ZM178.935 82.7917H177.935C177.935 83.5738 177.496 84.7225 176.338 86.2945L177.143 86.8877L177.948 87.4809C179.179 85.8103 179.935 84.2283 179.935 82.7917H178.935ZM177.143 86.8877L176.354 86.2738C175.228 87.7216 173.677 89.1973 171.679 90.6957L172.279 91.4957L172.879 92.2957C174.977 90.7221 176.669 89.1259 177.932 87.5017L177.143 86.8877ZM172.279 91.4957L171.679 90.6957C169.714 92.1693 167.364 93.451 164.616 94.5333L164.983 95.4637L165.35 96.3941C168.234 95.2578 170.748 93.8942 172.879 92.2957L172.279 91.4957ZM164.983 95.4637L164.632 94.5274C162.025 95.5048 159.159 95.9997 156.023 95.9997V96.9997V97.9997C159.372 97.9997 162.479 97.4706 165.334 96.4001L164.983 95.4637ZM156.023 96.9997V95.9997C150.314 95.9997 145.165 94.5545 140.553 91.6717L140.023 92.5197L139.493 93.3677C144.438 96.4583 149.956 97.9997 156.023 97.9997V96.9997ZM140.023 92.5197L140.564 91.6786C135.937 88.7042 132.254 84.6542 129.514 79.5059L128.631 79.9757L127.748 80.4456C130.64 85.8786 134.552 90.1913 139.482 93.3609L140.023 92.5197ZM128.631 79.9757L129.523 79.5229C126.873 74.3064 125.535 68.3215 125.535 61.5437H124.535H123.535C123.535 68.59 124.928 74.893 127.739 80.4286L128.631 79.9757ZM124.535 61.5437H125.535C125.535 54.678 126.874 48.6963 129.52 43.5704L128.631 43.1117L127.742 42.6531C124.927 48.1084 123.535 54.4147 123.535 61.5437H124.535ZM128.631 43.1117L129.517 43.5757C132.259 38.3401 135.899 34.2958 140.432 31.4114L139.895 30.5677L139.358 29.7241C134.504 32.813 130.635 37.1313 127.745 42.6477L128.631 43.1117ZM139.895 30.5677L140.443 31.4044C144.97 28.4411 149.984 26.9597 155.511 26.9597V25.9597V24.9597C149.603 24.9597 144.207 26.5503 139.347 29.731L139.895 30.5677ZM155.511 25.9597V26.9597C159.079 26.9597 162.333 27.4988 165.283 28.5643L165.623 27.6237L165.963 26.6832C162.769 25.53 159.282 24.9597 155.511 24.9597V25.9597ZM165.623 27.6237L165.283 28.5643C168.274 29.6442 170.825 31.0061 172.949 32.6404L173.559 31.8477L174.169 31.0551C171.856 29.276 169.116 27.8219 165.963 26.6832L165.623 27.6237ZM173.559 31.8477L172.964 32.6513C175.204 34.3107 176.862 35.9803 177.975 37.6504L178.807 37.0957L179.639 36.541C178.363 34.6271 176.522 32.7981 174.154 31.0442L173.559 31.8477ZM178.807 37.0957L178.007 37.6957C179.247 39.3493 179.727 40.5825 179.727 41.4477H180.727H181.727C181.727 39.9236 180.927 38.2554 179.607 36.4957L178.807 37.0957ZM180.727 41.4477L180.387 40.5072L175.779 42.1712L176.119 43.1117L176.459 44.0523L181.067 42.3883L180.727 41.4477ZM176.119 43.1117H177.119V33.7677H176.119H175.119V43.1117H176.119ZM176.119 33.7677H177.119C177.119 31.7904 177.755 30.2177 179.002 28.9708L178.295 28.2637L177.588 27.5566C175.933 29.211 175.119 31.3077 175.119 33.7677H176.119ZM178.295 28.2637L179.022 28.9503C180.273 27.6254 181.84 26.9597 183.799 26.9597V25.9597V24.9597C181.321 24.9597 179.218 25.8301 177.568 27.5771L178.295 28.2637ZM157.943 82.9197V83.9197C161.873 83.9197 165.356 82.9344 168.354 80.9358L167.799 80.1037L167.244 79.2717C164.61 81.0277 161.523 81.9197 157.943 81.9197V82.9197ZM167.799 80.1037L168.354 80.9358C171.33 78.9518 173.622 76.248 175.231 72.8518L174.327 72.4237L173.423 71.9956C171.96 75.0848 169.9 77.501 167.244 79.2717L167.799 80.1037ZM174.327 72.4237L175.221 72.8709C176.919 69.4752 177.759 65.6929 177.759 61.5437H176.759H175.759C175.759 65.4159 174.977 68.8869 173.433 71.9765L174.327 72.4237ZM176.759 61.5437H177.759C177.759 57.3128 176.921 53.4871 175.221 50.0885L174.327 50.5357L173.433 50.9829C174.976 54.0697 175.759 57.5827 175.759 61.5437H176.759ZM174.327 50.5357L175.231 50.1076C173.622 46.7114 171.33 44.0077 168.354 42.0237L167.799 42.8557L167.244 43.6878C169.9 45.4585 171.96 47.8747 173.423 50.9638L174.327 50.5357ZM167.799 42.8557L168.354 42.0237C165.356 40.025 161.873 39.0397 157.943 39.0397V40.0397V41.0397C161.523 41.0397 164.61 41.9318 167.244 43.6878L167.799 42.8557ZM157.943 40.0397V39.0397C154.094 39.0397 150.654 40.0276 147.66 42.0237L148.215 42.8557L148.77 43.6878C151.408 41.9292 154.454 41.0397 157.943 41.0397V40.0397ZM148.215 42.8557L147.66 42.0237C144.689 44.0044 142.358 46.7016 140.665 50.0885L141.559 50.5357L142.453 50.9829C144.003 47.8845 146.109 45.4617 148.77 43.6878L148.215 42.8557ZM141.559 50.5357L140.655 50.1076C139.047 53.5019 138.255 57.3206 138.255 61.5437H139.255H140.255C140.255 57.5748 140.999 54.0549 142.463 50.9638L141.559 50.5357ZM139.255 61.5437H138.255C138.255 65.6849 139.049 69.4603 140.655 72.8518L141.559 72.4237L142.463 71.9956C140.997 68.9018 140.255 65.4239 140.255 61.5437H139.255ZM141.559 72.4237L140.665 72.8709C142.358 76.2578 144.689 78.955 147.66 80.9358L148.215 80.1037L148.77 79.2717C146.109 77.4977 144.003 75.075 142.453 71.9765L141.559 72.4237ZM148.215 80.1037L147.66 80.9358C150.654 82.9319 154.094 83.9197 157.943 83.9197V82.9197V81.9197C154.454 81.9197 151.408 81.0302 148.77 79.2717L148.215 80.1037ZM222.461 93.5437L221.754 92.8366V92.8366L222.461 93.5437ZM211.581 93.5437L210.854 94.2303L210.864 94.2407L210.874 94.2508L211.581 93.5437ZM211.581 3.30372L210.874 2.59661V2.59661L211.581 3.30372ZM222.589 3.30372L221.842 3.96809L221.861 3.99004L221.882 4.01083L222.589 3.30372ZM224.765 87.9117H223.765C223.765 89.8715 223.098 91.4926 221.754 92.8366L222.461 93.5437L223.168 94.2508C224.896 92.5229 225.765 90.3893 225.765 87.9117H224.765ZM222.461 93.5437L221.754 92.8366C220.507 94.0835 218.934 94.7197 216.957 94.7197V95.7197V96.7197C219.417 96.7197 221.514 95.9053 223.168 94.2508L222.461 93.5437ZM216.957 95.7197V94.7197C215.077 94.7197 213.543 94.0916 212.288 92.8366L211.581 93.5437L210.874 94.2508C212.52 95.8972 214.57 96.7197 216.957 96.7197V95.7197ZM211.581 93.5437L212.308 92.8571C211.042 91.5167 210.405 89.8892 210.405 87.9117H209.405H208.405C208.405 90.3716 209.219 92.4987 210.854 94.2303L211.581 93.5437ZM209.405 87.9117H210.405V8.80772H209.405H208.405V87.9117H209.405ZM209.405 8.80772H210.405C210.405 6.83042 211.041 5.25774 212.288 4.01083L211.581 3.30372L210.874 2.59661C209.219 4.25103 208.405 6.34769 208.405 8.80772H209.405ZM211.581 3.30372L212.288 4.01083C213.632 2.66682 215.253 1.99973 217.213 1.99973V0.999725V-0.000274658C214.735 -0.000274658 212.602 0.868629 210.874 2.59661L211.581 3.30372ZM217.213 0.999725V1.99973C219.172 1.99973 220.682 2.66399 221.842 3.96809L222.589 3.30372L223.336 2.63935C221.765 0.87146 219.692 -0.000274658 217.213 -0.000274658V0.999725ZM222.589 3.30372L221.882 4.01083C223.129 5.25774 223.765 6.83042 223.765 8.80772H224.765H225.765C225.765 6.34769 224.951 4.25103 223.296 2.59661L222.589 3.30372ZM224.765 8.80772H223.765V87.9117H224.765H225.765V8.80772H224.765ZM254.913 93.5437L255.62 94.2508L255.63 94.2407L255.64 94.2303L254.913 93.5437ZM243.905 93.5437L243.178 94.2303L243.188 94.2407L243.198 94.2508L243.905 93.5437ZM243.905 29.5437L244.612 30.2508L244.622 30.2407L244.632 30.2303L243.905 29.5437ZM254.913 29.5437L254.186 30.2303L254.196 30.2407L254.206 30.2508L254.913 29.5437ZM243.137 17.5117L242.519 18.298V18.298L243.137 17.5117ZM243.265 5.09573L243.82 5.92778L243.826 5.92381L243.832 5.91977L243.265 5.09573ZM255.681 5.09573L255.063 5.88204V5.88204L255.681 5.09573ZM255.553 17.6397L256.108 18.4718L256.126 18.4594L256.144 18.4461L255.553 17.6397ZM257.089 87.9117H256.089C256.089 89.8892 255.452 91.5167 254.186 92.8571L254.913 93.5437L255.64 94.2303C257.275 92.4987 258.089 90.3716 258.089 87.9117H257.089ZM254.913 93.5437L254.206 92.8366C252.959 94.0835 251.386 94.7197 249.409 94.7197V95.7197V96.7197C251.869 96.7197 253.966 95.9053 255.62 94.2508L254.913 93.5437ZM249.409 95.7197V94.7197C247.432 94.7197 245.859 94.0835 244.612 92.8366L243.905 93.5437L243.198 94.2508C244.852 95.9053 246.949 96.7197 249.409 96.7197V95.7197ZM243.905 93.5437L244.632 92.8571C243.366 91.5167 242.729 89.8892 242.729 87.9117H241.729H240.729C240.729 90.3716 241.543 92.4987 243.178 94.2303L243.905 93.5437ZM241.729 87.9117H242.729V35.0477H241.729H240.729V87.9117H241.729ZM241.729 35.0477H242.729C242.729 33.0704 243.365 31.4977 244.612 30.2508L243.905 29.5437L243.198 28.8366C241.543 30.491 240.729 32.5877 240.729 35.0477H241.729ZM243.905 29.5437L244.632 30.2303C245.883 28.9054 247.45 28.2397 249.409 28.2397V27.2397V26.2397C246.931 26.2397 244.828 27.1101 243.178 28.8571L243.905 29.5437ZM249.409 27.2397V28.2397C251.368 28.2397 252.935 28.9054 254.186 30.2303L254.913 29.5437L255.64 28.8571C253.99 27.1101 251.887 26.2397 249.409 26.2397V27.2397ZM254.913 29.5437L254.206 30.2508C255.453 31.4977 256.089 33.0704 256.089 35.0477H257.089H258.089C258.089 32.5877 257.275 30.491 255.62 28.8366L254.913 29.5437ZM257.089 35.0477H256.089V87.9117H257.089H258.089V35.0477H257.089ZM249.281 18.9197V17.9197C246.428 17.9197 244.673 17.4465 243.755 16.7254L243.137 17.5117L242.519 18.298C243.991 19.4542 246.331 19.9197 249.281 19.9197V18.9197ZM243.137 17.5117L243.755 16.7254C242.913 16.0639 242.345 14.7793 242.345 12.5197H241.345H240.345C240.345 15.0388 240.972 17.0822 242.519 18.298L243.137 17.5117ZM241.345 12.5197H242.345V10.0877H241.345H240.345V12.5197H241.345ZM241.345 10.0877H242.345C242.345 7.73826 242.956 6.50378 243.82 5.92778L243.265 5.09573L242.71 4.26367C241.014 5.39433 240.345 7.48785 240.345 10.0877H241.345ZM243.265 5.09573L243.832 5.91977C244.954 5.14833 246.762 4.68772 249.409 4.68772V3.68772V2.68772C246.595 2.68772 244.307 3.16579 242.698 4.27168L243.265 5.09573ZM249.409 3.68772V4.68772C252.355 4.68772 254.149 5.16353 255.063 5.88204L255.681 5.09573L256.299 4.30941C254.824 3.15059 252.436 2.68772 249.409 2.68772V3.68772ZM255.681 5.09573L255.063 5.88204C255.905 6.54354 256.473 7.8281 256.473 10.0877H257.473H258.473C258.473 7.56867 257.846 5.52524 256.299 4.30941L255.681 5.09573ZM257.473 10.0877H256.473V12.5197H257.473H258.473V10.0877H257.473ZM257.473 12.5197H256.473C256.473 14.8582 255.867 16.1697 254.962 16.8333L255.553 17.6397L256.144 18.4461C257.799 17.2324 258.473 15.1306 258.473 12.5197H257.473ZM255.553 17.6397L254.998 16.8077C253.973 17.4909 252.134 17.9197 249.281 17.9197V18.9197V19.9197C252.231 19.9197 254.573 19.4952 256.108 18.4718L255.553 17.6397ZM309.099 30.5677L308.392 31.2748V31.2748L309.099 30.5677ZM309.099 40.6797L309.783 41.4093L309.795 41.3982L309.806 41.3868L309.099 40.6797ZM268.523 30.5677L269.207 31.2973L269.219 31.2862L269.23 31.2748L268.523 30.5677ZM292.715 14.8237L291.968 15.4881L291.987 15.51L292.008 15.5308L292.715 14.8237ZM295.531 80.2317L294.657 80.7174L294.676 80.7527L294.699 80.7864L295.531 80.2317ZM297.451 81.8957L297.045 82.8095L297.062 82.8172L297.08 82.8242L297.451 81.8957ZM302.955 81.8957L303.326 82.8242L303.365 82.8088L303.402 82.7902L302.955 81.8957ZM309.099 82.9197L308.336 83.5657L308.35 83.5821L308.364 83.598L309.099 82.9197ZM306.667 93.4157L306.165 92.5509L306.159 92.5545L306.152 92.5582L306.667 93.4157ZM292.331 95.3357L292.173 96.3232L292.195 96.3266L292.216 96.3291L292.331 95.3357ZM286.187 93.1597L285.65 94.0034L285.672 94.0174L285.695 94.0303L286.187 93.1597ZM281.451 87.7837L280.57 88.256V88.256L281.451 87.7837ZM281.707 14.8237L281 14.1166V14.1166L281.707 14.8237ZM273.643 28.5197V29.5197H303.979V28.5197V27.5197H273.643V28.5197ZM303.979 28.5197V29.5197C305.78 29.5197 307.226 30.1093 308.392 31.2748L309.099 30.5677L309.806 29.8606C308.241 28.2955 306.274 27.5197 303.979 27.5197V28.5197ZM309.099 30.5677L308.392 31.2748C309.557 32.4404 310.147 33.8871 310.147 35.6877H311.147H312.147C312.147 33.3924 311.371 31.4257 309.806 29.8606L309.099 30.5677ZM311.147 35.6877H310.147C310.147 37.3901 309.566 38.7983 308.392 39.9726L309.099 40.6797L309.806 41.3868C311.362 39.8305 312.147 37.9107 312.147 35.6877H311.147ZM309.099 40.6797L308.415 39.9502C307.253 41.0394 305.799 41.5997 303.979 41.5997V42.5997V43.5997C306.255 43.5997 308.214 42.8801 309.783 41.4093L309.099 40.6797ZM303.979 42.5997V41.5997H273.643V42.5997V43.5997H303.979V42.5997ZM273.643 42.5997V41.5997C271.842 41.5997 270.396 41.0102 269.23 39.8446L268.523 40.5517L267.816 41.2588C269.381 42.824 271.348 43.5997 273.643 43.5997V42.5997ZM268.523 40.5517L269.23 39.8446C268.065 38.6791 267.475 37.2324 267.475 35.4317H266.475H265.475C265.475 37.7271 266.251 39.6937 267.816 41.2588L268.523 40.5517ZM266.475 35.4317H267.475C267.475 33.7303 268.054 32.3781 269.207 31.2973L268.523 30.5677L267.839 29.8382C266.261 31.3174 265.475 33.2078 265.475 35.4317H266.475ZM268.523 30.5677L269.23 31.2748C270.396 30.1093 271.842 29.5197 273.643 29.5197V28.5197V27.5197C271.348 27.5197 269.381 28.2955 267.816 29.8606L268.523 30.5677ZM287.339 12.5197V13.5197C289.298 13.5197 290.808 14.184 291.968 15.4881L292.715 14.8237L293.462 14.1594C291.891 12.3915 289.818 11.5197 287.339 11.5197V12.5197ZM292.715 14.8237L292.008 15.5308C293.255 16.7777 293.891 18.3504 293.891 20.3277H294.891H295.891C295.891 17.8677 295.077 15.771 293.422 14.1166L292.715 14.8237ZM294.891 20.3277H293.891V77.2877H294.891H295.891V20.3277H294.891ZM294.891 77.2877H293.891C293.891 78.5938 294.123 79.7569 294.657 80.7174L295.531 80.2317L296.405 79.7461C296.085 79.1705 295.891 78.371 295.891 77.2877H294.891ZM295.531 80.2317L294.699 80.7864C295.305 81.696 296.087 82.3838 297.045 82.8095L297.451 81.8957L297.857 80.9819C297.279 80.725 296.781 80.3035 296.363 79.677L295.531 80.2317ZM297.451 81.8957L297.08 82.8242C298.054 83.2138 299.076 83.4077 300.139 83.4077V82.4077V81.4077C299.325 81.4077 298.555 81.2603 297.822 80.9672L297.451 81.8957ZM300.139 82.4077V83.4077C301.276 83.4077 302.342 83.2179 303.326 82.8242L302.955 81.8957L302.584 80.9672C301.861 81.2562 301.05 81.4077 300.139 81.4077V82.4077ZM302.955 81.8957L303.402 82.7902C304.096 82.4434 304.92 82.2557 305.899 82.2557V81.2557V80.2557C304.66 80.2557 303.521 80.4947 302.508 81.0013L302.955 81.8957ZM305.899 81.2557V82.2557C306.736 82.2557 307.542 82.6277 308.336 83.5657L309.099 82.9197L309.862 82.2738C308.779 80.9931 307.451 80.2557 305.899 80.2557V81.2557ZM309.099 82.9197L308.364 83.598C309.171 84.4725 309.635 85.7388 309.635 87.5277H310.635H311.635C311.635 85.3913 311.075 83.5856 309.834 82.2414L309.099 82.9197ZM310.635 87.5277H309.635C309.635 89.4588 308.602 91.136 306.165 92.5509L306.667 93.4157L307.169 94.2805C310.023 92.6234 311.635 90.3754 311.635 87.5277H310.635ZM306.667 93.4157L306.152 92.5582C303.748 94.0009 301.152 94.7197 298.347 94.7197V95.7197V96.7197C301.515 96.7197 304.466 95.9025 307.181 94.2732L306.667 93.4157ZM298.347 95.7197V94.7197C296.601 94.7197 294.635 94.5949 292.446 94.3423L292.331 95.3357L292.216 96.3291C294.464 96.5885 296.509 96.7197 298.347 96.7197V95.7197ZM292.331 95.3357L292.489 94.3483C290.478 94.0266 288.543 93.3426 286.679 92.2892L286.187 93.1597L285.695 94.0303C287.757 95.1956 289.917 95.9622 292.173 96.3232L292.331 95.3357ZM286.187 93.1597L286.724 92.3161C285.02 91.2317 283.549 89.5823 282.332 87.3115L281.451 87.7837L280.57 88.256C281.913 90.7638 283.599 92.6984 285.65 94.0034L286.187 93.1597ZM281.451 87.7837L282.332 87.3115C281.161 85.1253 280.531 82.0257 280.531 77.9277H279.531H278.531C278.531 82.1925 279.181 85.6635 280.57 88.256L281.451 87.7837ZM279.531 77.9277H280.531V20.3277H279.531H278.531V77.9277H279.531ZM279.531 20.3277H280.531C280.531 18.3504 281.167 16.7777 282.414 15.5308L281.707 14.8237L281 14.1166C279.345 15.771 278.531 17.8677 278.531 20.3277H279.531ZM281.707 14.8237L282.414 15.5308C283.758 14.1868 285.379 13.5197 287.339 13.5197V12.5197V11.5197C284.861 11.5197 282.728 12.3886 281 14.1166L281.707 14.8237ZM381.57 29.5437L380.843 30.2303L380.853 30.2407L380.863 30.2508L381.57 29.5437ZM379.266 108.136L378.427 107.592L378.421 107.601L378.415 107.61L379.266 108.136ZM367.49 118.248L367.872 119.172V119.172L367.49 118.248ZM334.594 118.76L334.993 117.843L334.992 117.842L334.594 118.76ZM329.218 114.536L328.353 115.037L328.356 115.044L328.361 115.05L329.218 114.536ZM328.706 109.288L329.659 109.591L329.661 109.584L328.706 109.288ZM332.418 104.168L331.971 103.273L331.953 103.282L331.936 103.292L332.418 104.168ZM337.794 103.912L337.452 104.852L337.474 104.859L337.496 104.866L337.794 103.912ZM343.17 105.832L343.56 104.911L343.544 104.904L343.529 104.898L343.17 105.832ZM360.578 105.576L360.217 104.643L360.199 104.65L360.18 104.658L360.578 105.576ZM366.466 100.2L365.59 99.7166L365.581 99.7344L365.572 99.7525L366.466 100.2ZM368.514 81.3837L369.267 80.7252L367.514 78.7223V81.3837H368.514ZM371.202 84.4557L372.091 84.9137L372.402 84.3091L371.955 83.7972L371.202 84.4557ZM365.698 91.4957L366.341 92.2614L366.344 92.2591L365.698 91.4957ZM358.018 95.5917L357.718 94.6377L358.018 95.5917ZM335.874 93.9277L335.334 94.7696L335.347 94.7776L335.359 94.7852L335.874 93.9277ZM328.066 85.2237L327.172 85.671L327.176 85.6792L328.066 85.2237ZM327.426 29.5437L328.133 30.2508L328.143 30.2407L328.153 30.2303L327.426 29.5437ZM338.434 29.5437L337.707 30.2303L337.717 30.2407L337.727 30.2508L338.434 29.5437ZM344.194 79.5917L343.5 80.3116L343.513 80.3242L343.526 80.3363L344.194 79.5917ZM361.986 81.2557L362.462 82.135L362.476 82.1275L362.49 82.1195L361.986 81.2557ZM366.722 76.1357L367.616 76.5829L367.62 76.5763L367.623 76.5695L366.722 76.1357ZM370.562 29.5437L371.269 30.2508L371.279 30.2407L371.289 30.2303L370.562 29.5437ZM376.066 27.2397V28.2397C378.025 28.2397 379.592 28.9054 380.843 30.2303L381.57 29.5437L382.297 28.8571C380.647 27.1101 378.544 26.2397 376.066 26.2397V27.2397ZM381.57 29.5437L380.863 30.2508C382.11 31.4977 382.746 33.0704 382.746 35.0477H383.746H384.746C384.746 32.5877 383.932 30.491 382.277 28.8366L381.57 29.5437ZM383.746 35.0477H382.746V89.4477H383.746H384.746V35.0477H383.746ZM383.746 89.4477H382.746C382.746 97.1844 381.273 103.201 378.427 107.592L379.266 108.136L380.105 108.68C383.233 103.854 384.746 97.4124 384.746 89.4477H383.746ZM379.266 108.136L378.415 107.61C375.621 112.13 371.857 115.359 367.108 117.324L367.49 118.248L367.872 119.172C373.022 117.041 377.108 113.528 380.117 108.662L379.266 108.136ZM367.49 118.248L367.108 117.324C362.296 119.315 356.882 120.32 350.85 120.32V121.32V122.32C357.106 122.32 362.785 121.277 367.872 119.172L367.49 118.248ZM350.85 121.32V120.32C348.171 120.32 345.316 120.11 342.284 119.689L342.146 120.68L342.008 121.67C345.12 122.102 348.068 122.32 350.85 122.32V121.32ZM342.146 120.68L342.284 119.689C339.265 119.27 336.844 118.648 334.993 117.843L334.594 118.76L334.195 119.677C336.269 120.579 338.883 121.236 342.008 121.67L342.146 120.68ZM334.594 118.76L334.992 117.842C332.549 116.784 330.957 115.49 330.076 114.021L329.218 114.536L328.361 115.05C329.527 116.995 331.519 118.517 334.196 119.677L334.594 118.76ZM329.218 114.536L330.083 114.035C329.294 112.671 329.142 111.215 329.659 109.591L328.706 109.288L327.753 108.985C327.075 111.115 327.265 113.158 328.353 115.037L329.218 114.536ZM328.706 109.288L329.661 109.584C330.378 107.273 331.487 105.821 332.9 105.044L332.418 104.168L331.936 103.292C329.936 104.392 328.57 106.353 327.751 108.991L328.706 109.288ZM332.418 104.168L332.865 105.062C334.314 104.338 335.819 104.258 337.452 104.852L337.794 103.912L338.136 102.972C336.014 102.2 333.936 102.291 331.971 103.273L332.418 104.168ZM337.794 103.912L337.496 104.866C338.832 105.284 340.601 105.915 342.811 106.765L343.17 105.832L343.529 104.898C341.301 104.042 339.487 103.393 338.092 102.957L337.794 103.912ZM343.17 105.832L342.78 106.753C345.145 107.753 347.842 108.24 350.85 108.24V107.24V106.24C348.056 106.24 345.633 105.788 343.56 104.911L343.17 105.832ZM350.85 107.24V108.24C354.86 108.24 358.25 107.674 360.976 106.493L360.578 105.576L360.18 104.658C357.786 105.696 354.69 106.24 350.85 106.24V107.24ZM360.578 105.576L360.939 106.508C363.819 105.394 365.97 103.427 367.36 100.647L366.466 100.2L365.572 99.7525C364.402 102.092 362.628 103.71 360.217 104.643L360.578 105.576ZM366.466 100.2L367.342 100.683C368.821 98.0013 369.514 94.3974 369.514 89.9597H368.514H367.514C367.514 94.226 366.842 97.4488 365.59 99.7166L366.466 100.2ZM368.514 89.9597H369.514V81.3837H368.514H367.514V89.9597H368.514ZM368.514 81.3837L367.761 82.0422L370.449 85.1142L371.202 84.4557L371.955 83.7972L369.267 80.7252L368.514 81.3837ZM371.202 84.4557L370.313 83.9978C368.917 86.7076 367.162 88.9472 365.052 90.7323L365.698 91.4957L366.344 92.2591C368.672 90.2896 370.586 87.8359 372.091 84.9137L371.202 84.4557ZM365.698 91.4957L365.055 90.73C363.034 92.4274 360.595 93.7337 357.718 94.6377L358.018 95.5917L358.318 96.5457C361.415 95.5724 364.095 94.1481 366.341 92.2614L365.698 91.4957ZM358.018 95.5917L357.718 94.6377C354.848 95.5399 351.538 95.9997 347.778 95.9997V96.9997V97.9997C351.698 97.9997 355.215 97.5209 358.318 96.5457L358.018 95.5917ZM347.778 96.9997V95.9997C343.411 95.9997 339.626 95.0128 336.388 93.0702L335.874 93.9277L335.359 94.7852C338.949 96.9386 343.099 97.9997 347.778 97.9997V96.9997ZM335.874 93.9277L336.414 93.0858C333.241 91.0522 330.757 88.287 328.956 84.7682L328.066 85.2237L327.176 85.6792C329.13 89.4991 331.851 92.5366 335.334 94.7696L335.874 93.9277ZM328.066 85.2237L328.96 84.7765C327.162 81.1788 326.25 77.0687 326.25 72.4237H325.25H324.25C324.25 77.336 325.216 81.7593 327.172 85.6709L328.066 85.2237ZM325.25 72.4237H326.25V35.0477H325.25H324.25V72.4237H325.25ZM325.25 35.0477H326.25C326.25 33.0704 326.886 31.4977 328.133 30.2508L327.426 29.5437L326.719 28.8366C325.064 30.491 324.25 32.5877 324.25 35.0477H325.25ZM327.426 29.5437L328.153 30.2303C329.404 28.9054 330.971 28.2397 332.93 28.2397V27.2397V26.2397C330.452 26.2397 328.349 27.1101 326.699 28.8571L327.426 29.5437ZM332.93 27.2397V28.2397C334.889 28.2397 336.456 28.9054 337.707 30.2303L338.434 29.5437L339.161 28.8571C337.511 27.1101 335.408 26.2397 332.93 26.2397V27.2397ZM338.434 29.5437L337.727 30.2508C338.974 31.4977 339.61 33.0704 339.61 35.0477H340.61H341.61C341.61 32.5877 340.796 30.491 339.141 28.8366L338.434 29.5437ZM340.61 35.0477H339.61V67.8157H340.61H341.61V35.0477H340.61ZM340.61 67.8157H339.61C339.61 73.4609 340.818 77.7257 343.5 80.3116L344.194 79.5917L344.888 78.8719C342.791 76.8497 341.61 73.2639 341.61 67.8157H340.61ZM344.194 79.5917L343.526 80.3363C346.235 82.765 349.914 83.9197 354.434 83.9197V82.9197V81.9197C350.25 81.9197 347.102 80.8558 344.862 78.8472L344.194 79.5917ZM354.434 82.9197V83.9197C357.541 83.9197 360.232 83.3428 362.462 82.135L361.986 81.2557L361.51 80.3764C359.644 81.3873 357.3 81.9197 354.434 81.9197V82.9197ZM361.986 81.2557L362.49 82.1195C364.714 80.8222 366.424 78.967 367.616 76.5829L366.722 76.1357L365.828 75.6885C364.801 77.7418 363.354 79.2999 361.482 80.3919L361.986 81.2557ZM366.722 76.1357L367.623 76.5695C368.813 74.0989 369.386 71.1695 369.386 67.8157H368.386H367.386C367.386 70.9472 366.85 73.5645 365.821 75.7019L366.722 76.1357ZM368.386 67.8157H369.386V35.0477H368.386H367.386V67.8157H368.386ZM368.386 35.0477H369.386C369.386 33.0704 370.022 31.4977 371.269 30.2508L370.562 29.5437L369.855 28.8366C368.2 30.491 367.386 32.5877 367.386 35.0477H368.386ZM370.562 29.5437L371.289 30.2303C372.54 28.9054 374.107 28.2397 376.066 28.2397V27.2397V26.2397C373.588 26.2397 371.485 27.1101 369.835 28.8571L370.562 29.5437Z" fill="white" mask="url(#path-1-outside-1_220_39)"/>
</svg>
