<svg width="385" height="123" viewBox="0 0 385 123" fill="none" xmlns="http://www.w3.org/2000/svg">
<g filter="url(#filter0_d_220_39)">
<path d="M8.67999 94.7197C6.46133 94.7197 4.62666 93.9944 3.17599 92.5437C1.72533 91.0077 0.999993 89.1304 0.999993 86.9117V34.0477C0.999993 31.8291 1.72533 29.9944 3.17599 28.5437C4.62666 27.0077 6.46133 26.2397 8.67999 26.2397C10.8987 26.2397 12.7333 27.0077 14.184 28.5437C15.6347 29.9944 16.36 31.8291 16.36 34.0477V46.0797L15.464 37.5037C16.4027 35.4557 17.5973 33.6637 19.048 32.1277C20.584 30.5064 22.2907 29.1837 24.168 28.1597C26.0453 27.0504 28.0507 26.2397 30.184 25.7277C32.3173 25.2157 34.4507 24.9597 36.584 24.9597C39.144 24.9597 41.2773 25.6851 42.984 27.1357C44.776 28.5864 45.672 30.2931 45.672 32.2557C45.672 35.0717 44.9467 37.1197 43.496 38.3997C42.0453 39.5944 40.4667 40.1917 38.76 40.1917C37.1387 40.1917 35.6453 39.8931 34.28 39.2957C33 38.6984 31.5067 38.3997 29.8 38.3997C28.264 38.3997 26.6853 38.7837 25.064 39.5517C23.528 40.2344 22.0773 41.3437 20.712 42.8797C19.432 44.4157 18.3653 46.3357 17.512 48.6397C16.744 50.8584 16.36 53.5037 16.36 56.5757V86.9117C16.36 89.1304 15.6347 91.0077 14.184 92.5437C12.7333 93.9944 10.8987 94.7197 8.67999 94.7197ZM85.241 95.9997C77.9877 95.9997 71.673 94.5064 66.297 91.5197C61.0063 88.4477 56.9103 84.3091 54.009 79.1037C51.193 73.8984 49.785 68.0104 49.785 61.4397C49.785 53.7597 51.321 47.2317 54.393 41.8557C57.5503 36.3944 61.6463 32.2131 66.681 29.3117C71.7157 26.4104 77.049 24.9597 82.681 24.9597C87.033 24.9597 91.129 25.8557 94.969 27.6477C98.8943 29.4397 102.35 31.9144 105.337 35.0717C108.324 38.1437 110.67 41.7277 112.377 45.8237C114.169 49.9197 115.065 54.2717 115.065 58.8797C114.98 60.9277 114.169 62.5917 112.633 63.8717C111.097 65.1517 109.305 65.7917 107.257 65.7917H58.361L54.521 52.9917H101.497L98.681 55.5517V52.0957C98.5103 49.6211 97.6143 47.4024 95.993 45.4397C94.457 43.4771 92.4943 41.9411 90.105 40.8317C87.801 39.6371 85.3263 39.0397 82.681 39.0397C80.121 39.0397 77.7317 39.3811 75.513 40.0637C73.2943 40.7464 71.3743 41.8984 69.753 43.5197C68.1317 45.1411 66.8517 47.3171 65.913 50.0477C64.9743 52.7784 64.505 56.2344 64.505 60.4157C64.505 65.0237 65.4437 68.9491 67.321 72.1917C69.2837 75.3491 71.7583 77.7811 74.745 79.4877C77.817 81.1091 81.0597 81.9197 84.473 81.9197C87.6303 81.9197 90.1477 81.6637 92.025 81.1517C93.9023 80.6397 95.3957 80.0424 96.505 79.3597C97.6997 78.5917 98.7663 77.9517 99.705 77.4397C101.241 76.6717 102.692 76.2877 104.057 76.2877C105.934 76.2877 107.47 76.9277 108.665 78.2077C109.945 79.4877 110.585 80.9811 110.585 82.6877C110.585 84.9917 109.39 87.0824 107.001 88.9597C104.782 90.8371 101.668 92.5011 97.657 93.9517C93.6463 95.3171 89.5077 95.9997 85.241 95.9997ZM183.799 24.9597C186.018 24.9597 187.852 25.6851 189.303 27.1357C190.754 28.5864 191.479 30.4637 191.479 32.7677V86.9117C191.479 89.1304 190.754 91.0077 189.303 92.5437C187.852 93.9944 186.018 94.7197 183.799 94.7197C181.58 94.7197 179.746 93.9944 178.295 92.5437C176.844 91.0077 176.119 89.1304 176.119 86.9117V80.6397L178.935 81.7917C178.935 82.9011 178.338 84.2664 177.143 85.8877C175.948 87.4237 174.327 88.9597 172.279 90.4957C170.231 92.0317 167.799 93.3544 164.983 94.4637C162.252 95.4877 159.266 95.9997 156.023 95.9997C150.135 95.9997 144.802 94.5064 140.023 91.5197C135.244 88.4477 131.447 84.2664 128.631 78.9757C125.9 73.5997 124.535 67.4557 124.535 60.5437C124.535 53.5464 125.9 47.4024 128.631 42.1117C131.447 36.7357 135.202 32.5544 139.895 29.5677C144.588 26.4957 149.794 24.9597 155.511 24.9597C159.18 24.9597 162.551 25.5144 165.623 26.6237C168.695 27.7331 171.34 29.1411 173.559 30.8477C175.863 32.5544 177.612 34.3037 178.807 36.0957C180.087 37.8024 180.727 39.2531 180.727 40.4477L176.119 42.1117V32.7677C176.119 30.5491 176.844 28.7144 178.295 27.2637C179.746 25.7277 181.58 24.9597 183.799 24.9597ZM157.943 81.9197C161.698 81.9197 164.983 80.9811 167.799 79.1037C170.615 77.2264 172.791 74.6664 174.327 71.4237C175.948 68.1811 176.759 64.5544 176.759 60.5437C176.759 56.4477 175.948 52.7784 174.327 49.5357C172.791 46.2931 170.615 43.7331 167.799 41.8557C164.983 39.9784 161.698 39.0397 157.943 39.0397C154.274 39.0397 151.031 39.9784 148.215 41.8557C145.399 43.7331 143.18 46.2931 141.559 49.5357C140.023 52.7784 139.255 56.4477 139.255 60.5437C139.255 64.5544 140.023 68.1811 141.559 71.4237C143.18 74.6664 145.399 77.2264 148.215 79.1037C151.031 80.9811 154.274 81.9197 157.943 81.9197ZM224.765 86.9117C224.765 89.1304 223.997 91.0077 222.461 92.5437C221.01 93.9944 219.176 94.7197 216.957 94.7197C214.824 94.7197 213.032 93.9944 211.581 92.5437C210.13 91.0077 209.405 89.1304 209.405 86.9117V7.80772C209.405 5.58906 210.13 3.75439 211.581 2.30372C213.117 0.767723 214.994 -0.000274658 217.213 -0.000274658C219.432 -0.000274658 221.224 0.767723 222.589 2.30372C224.04 3.75439 224.765 5.58906 224.765 7.80772V86.9117ZM257.089 86.9117C257.089 89.1304 256.364 91.0077 254.913 92.5437C253.462 93.9944 251.628 94.7197 249.409 94.7197C247.19 94.7197 245.356 93.9944 243.905 92.5437C242.454 91.0077 241.729 89.1304 241.729 86.9117V34.0477C241.729 31.8291 242.454 29.9944 243.905 28.5437C245.356 27.0077 247.19 26.2397 249.409 26.2397C251.628 26.2397 253.462 27.0077 254.913 28.5437C256.364 29.9944 257.089 31.8291 257.089 34.0477V86.9117ZM249.281 17.9197C246.38 17.9197 244.332 17.4504 243.137 16.5117C241.942 15.5731 241.345 13.9091 241.345 11.5197V9.08772C241.345 6.61306 241.985 4.94906 243.265 4.09573C244.63 3.15706 246.678 2.68772 249.409 2.68772C252.396 2.68772 254.486 3.15706 255.681 4.09573C256.876 5.03439 257.473 6.69839 257.473 9.08772V11.5197C257.473 13.9944 256.833 15.7011 255.553 16.6397C254.273 17.4931 252.182 17.9197 249.281 17.9197ZM273.643 27.5197H303.979C306.027 27.5197 307.734 28.2024 309.099 29.5677C310.464 30.9331 311.147 32.6397 311.147 34.6877C311.147 36.6504 310.464 38.3144 309.099 39.6797C307.734 40.9597 306.027 41.5997 303.979 41.5997H273.643C271.595 41.5997 269.888 40.9171 268.523 39.5517C267.158 38.1864 266.475 36.4797 266.475 34.4317C266.475 32.4691 267.158 30.8477 268.523 29.5677C269.888 28.2024 271.595 27.5197 273.643 27.5197ZM287.339 11.5197C289.558 11.5197 291.35 12.2877 292.715 13.8237C294.166 15.2744 294.891 17.1091 294.891 19.3277V76.2877C294.891 77.4824 295.104 78.4637 295.531 79.2317C296.043 79.9997 296.683 80.5544 297.451 80.8957C298.304 81.2371 299.2 81.4077 300.139 81.4077C301.163 81.4077 302.102 81.2371 302.955 80.8957C303.808 80.4691 304.79 80.2557 305.899 80.2557C307.094 80.2557 308.16 80.8104 309.099 81.9197C310.123 83.0291 310.635 84.5651 310.635 86.5277C310.635 88.9171 309.312 90.8797 306.667 92.4157C304.107 93.9517 301.334 94.7197 298.347 94.7197C296.555 94.7197 294.55 94.5917 292.331 94.3357C290.198 93.9944 288.15 93.2691 286.187 92.1597C284.31 90.9651 282.731 89.1731 281.451 86.7837C280.171 84.3944 279.531 81.1091 279.531 76.9277V19.3277C279.531 17.1091 280.256 15.2744 281.707 13.8237C283.243 12.2877 285.12 11.5197 287.339 11.5197ZM376.066 26.2397C378.285 26.2397 380.119 27.0077 381.57 28.5437C383.021 29.9944 383.746 31.8291 383.746 34.0477V88.4477C383.746 96.2984 382.253 102.528 379.266 107.136C376.365 111.829 372.439 115.2 367.49 117.248C362.541 119.296 356.994 120.32 350.85 120.32C348.119 120.32 345.218 120.106 342.146 119.68C339.074 119.253 336.557 118.613 334.594 117.76C332.034 116.65 330.242 115.242 329.218 113.536C328.279 111.914 328.109 110.165 328.706 108.288C329.474 105.813 330.711 104.106 332.418 103.168C334.125 102.314 335.917 102.229 337.794 102.912C339.159 103.338 340.951 103.978 343.17 104.832C345.389 105.77 347.949 106.24 350.85 106.24C354.775 106.24 358.018 105.685 360.578 104.576C363.223 103.552 365.186 101.76 366.466 99.1997C367.831 96.7251 368.514 93.3117 368.514 88.9597V80.3837L371.202 83.4557C369.751 86.2717 367.917 88.6184 365.698 90.4957C363.565 92.2877 361.005 93.6531 358.018 94.5917C355.031 95.5304 351.618 95.9997 347.778 95.9997C343.255 95.9997 339.287 94.9757 335.874 92.9277C332.546 90.7944 329.943 87.8931 328.066 84.2237C326.189 80.4691 325.25 76.2024 325.25 71.4237V34.0477C325.25 31.8291 325.975 29.9944 327.426 28.5437C328.877 27.0077 330.711 26.2397 332.93 26.2397C335.149 26.2397 336.983 27.0077 338.434 28.5437C339.885 29.9944 340.61 31.8291 340.61 34.0477V66.8157C340.61 72.3624 341.805 76.2877 344.194 78.5917C346.669 80.8104 350.082 81.9197 354.434 81.9197C357.421 81.9197 359.938 81.3651 361.986 80.2557C364.034 79.0611 365.613 77.3544 366.722 75.1357C367.831 72.8317 368.386 70.0584 368.386 66.8157V34.0477C368.386 31.8291 369.111 29.9944 370.562 28.5437C372.013 27.0077 373.847 26.2397 376.066 26.2397Z" fill="#1F1F1F"/>
</g>
<defs>
<filter id="filter0_d_220_39" x="0" y="0" width="384.746" height="122.319" filterUnits="userSpaceOnUse" color-interpolation-filters="sRGB">
<feFlood flood-opacity="0" result="BackgroundImageFix"/>
<feColorMatrix in="SourceAlpha" type="matrix" values="0 0 0 0 0 0 0 0 0 0 0 0 0 0 0 0 0 0 127 0" result="hardAlpha"/>
<feOffset dy="1"/>
<feGaussianBlur stdDeviation="0.5"/>
<feComposite in2="hardAlpha" operator="out"/>
<feColorMatrix type="matrix" values="0 0 0 0 0 0 0 0 0 0 0 0 0 0 0 0 0 0 1 0"/>
<feBlend mode="normal" in2="BackgroundImageFix" result="effect1_dropShadow_220_39"/>
<feBlend mode="normal" in="SourceGraphic" in2="effect1_dropShadow_220_39" result="shape"/>
</filter>
</defs>
</svg>
