<svg width="726" height="443" viewBox="0 0 726 443" fill="none" xmlns="http://www.w3.org/2000/svg">
<g filter="url(#filter0_d_216_36)">
<path d="M112.872 4.86372C113.981 4.86372 114.92 5.20506 115.688 5.88773C116.541 6.48506 116.968 7.42372 116.968 8.70372C116.968 9.13039 116.883 9.68505 116.712 10.3677L88.424 92.2877C88.168 93.0557 87.6986 93.6531 87.016 94.0797C86.3333 94.5064 85.6506 94.7197 84.968 94.7197C84.1146 94.7197 83.3466 94.5491 82.664 94.2077C81.9813 93.7811 81.4693 93.1411 81.128 92.2877L58.472 36.2237L59.496 36.4797L36.84 92.2877C36.4986 93.1411 35.944 93.7811 35.176 94.2077C34.4933 94.5491 33.768 94.7197 33 94.7197C32.3173 94.7197 31.6346 94.5064 30.952 94.0797C30.3546 93.6531 29.928 93.0557 29.672 92.2877L1.38397 10.3677C1.12797 9.68505 0.999973 9.17306 0.999973 8.83173C0.999973 7.55172 1.46931 6.57039 2.40797 5.88773C3.34664 5.20506 4.28531 4.86372 5.22397 4.86372C6.07731 4.86372 6.84531 5.07706 7.52797 5.50372C8.21064 5.93039 8.67997 6.52772 8.93597 7.29572L34.664 82.3037L33.256 82.4317L55.528 26.8797C55.784 26.1117 56.2106 25.5144 56.808 25.0877C57.4906 24.5757 58.2586 24.3624 59.112 24.4477C59.9653 24.3624 60.6906 24.5757 61.288 25.0877C61.9706 25.5144 62.4826 26.1117 62.824 26.8797L84.84 82.1757L83.432 82.6877L109.032 7.29572C109.288 6.52772 109.757 5.93039 110.44 5.50372C111.123 5.07706 111.933 4.86372 112.872 4.86372ZM160.721 28.7997C166.097 28.7997 170.449 29.9517 173.777 32.2557C177.105 34.5597 179.537 37.6744 181.073 41.5997C182.694 45.5251 183.505 49.8771 183.505 54.6557V90.8797C183.505 91.9037 183.121 92.7997 182.353 93.5677C181.585 94.3357 180.689 94.7197 179.665 94.7197C178.47 94.7197 177.532 94.3357 176.849 93.5677C176.166 92.7997 175.825 91.9037 175.825 90.8797V54.6557C175.825 51.1571 175.27 47.9997 174.161 45.1837C173.137 42.3677 171.43 40.1491 169.041 38.5277C166.652 36.8211 163.452 35.9677 159.441 35.9677C155.857 35.9677 152.444 36.8211 149.201 38.5277C146.044 40.1491 143.484 42.3677 141.521 45.1837C139.558 47.9997 138.577 51.1571 138.577 54.6557V90.8797C138.577 91.9037 138.193 92.7997 137.425 93.5677C136.657 94.3357 135.761 94.7197 134.737 94.7197C133.542 94.7197 132.604 94.3357 131.921 93.5677C131.238 92.7997 130.897 91.9037 130.897 90.8797V3.83972C130.897 2.81572 131.238 1.91972 131.921 1.15173C132.689 0.383725 133.628 -0.000274658 134.737 -0.000274658C135.846 -0.000274658 136.742 0.383725 137.425 1.15173C138.193 1.91972 138.577 2.81572 138.577 3.83972V45.3117L135.633 49.7917C135.804 47.1464 136.614 44.5864 138.065 42.1117C139.601 39.5517 141.564 37.2904 143.953 35.3277C146.342 33.2797 148.988 31.7011 151.889 30.5917C154.79 29.3971 157.734 28.7997 160.721 28.7997ZM232.703 95.9997C226.132 95.9997 220.33 94.5917 215.295 91.7757C210.26 88.9597 206.335 85.0344 203.519 79.9997C200.703 74.9651 199.295 69.0771 199.295 62.3357C199.295 55.0824 200.703 48.8957 203.519 43.7757C206.42 38.6557 210.132 34.7304 214.655 31.9997C219.263 29.1837 224.127 27.7757 229.247 27.7757C233.002 27.7757 236.628 28.4584 240.127 29.8237C243.711 31.1037 246.868 33.0664 249.599 35.7117C252.33 38.2717 254.548 41.4291 256.255 45.1837C257.962 48.9384 258.858 53.2904 258.943 58.2397C258.943 59.2637 258.559 60.1597 257.791 60.9277C257.023 61.6104 256.127 61.9517 255.103 61.9517H203.775L202.239 55.0397H252.671L251.007 56.5757V54.0157C250.58 50.0051 249.258 46.5917 247.039 43.7757C244.82 40.9597 242.132 38.8264 238.975 37.3757C235.903 35.9251 232.66 35.1997 229.247 35.1997C226.687 35.1997 224.042 35.7117 221.311 36.7357C218.666 37.7597 216.234 39.3811 214.015 41.5997C211.882 43.7331 210.132 46.5064 208.767 49.9197C207.402 53.2477 206.719 57.2157 206.719 61.8237C206.719 66.8584 207.743 71.4237 209.791 75.5197C211.839 79.6157 214.783 82.8584 218.623 85.2477C222.463 87.6371 227.114 88.8317 232.575 88.8317C235.476 88.8317 238.122 88.4051 240.511 87.5517C242.9 86.6984 244.991 85.5891 246.783 84.2237C248.66 82.7731 250.196 81.2797 251.391 79.7437C252.33 78.9757 253.226 78.5917 254.079 78.5917C255.018 78.5917 255.786 78.9331 256.383 79.6157C257.066 80.2984 257.407 81.0664 257.407 81.9197C257.407 82.9437 256.98 83.8397 256.127 84.6077C253.567 87.6797 250.239 90.3677 246.143 92.6717C242.047 94.8904 237.567 95.9997 232.703 95.9997ZM278.612 94.7197C277.417 94.7197 276.479 94.3357 275.796 93.5677C275.113 92.7997 274.772 91.9037 274.772 90.8797V33.5357C274.772 32.5117 275.113 31.6157 275.796 30.8477C276.564 30.0797 277.503 29.6957 278.612 29.6957C279.721 29.6957 280.617 30.0797 281.3 30.8477C282.068 31.6157 282.452 32.5117 282.452 33.5357V52.7357L280.532 53.1197C280.788 50.1331 281.513 47.1891 282.708 44.2877C283.988 41.3011 285.695 38.5704 287.828 36.0957C289.961 33.6211 292.479 31.6157 295.38 30.0797C298.367 28.5437 301.695 27.7757 305.364 27.7757C306.9 27.7757 308.393 28.1171 309.844 28.7997C311.295 29.3971 312.02 30.4211 312.02 31.8717C312.02 33.1517 311.679 34.1331 310.996 34.8157C310.313 35.4984 309.503 35.8397 308.564 35.8397C307.796 35.8397 306.943 35.6264 306.004 35.1997C305.151 34.7731 303.999 34.5597 302.548 34.5597C300.159 34.5597 297.769 35.2851 295.38 36.7357C292.991 38.1011 290.815 39.9784 288.852 42.3677C286.889 44.7571 285.311 47.4451 284.116 50.4317C283.007 53.3331 282.452 56.2771 282.452 59.2637V90.8797C282.452 91.9037 282.068 92.7997 281.3 93.5677C280.532 94.3357 279.636 94.7197 278.612 94.7197ZM350.203 95.9997C343.632 95.9997 337.83 94.5917 332.795 91.7757C327.76 88.9597 323.835 85.0344 321.019 79.9997C318.203 74.9651 316.795 69.0771 316.795 62.3357C316.795 55.0824 318.203 48.8957 321.019 43.7757C323.92 38.6557 327.632 34.7304 332.155 31.9997C336.763 29.1837 341.627 27.7757 346.747 27.7757C350.502 27.7757 354.128 28.4584 357.627 29.8237C361.211 31.1037 364.368 33.0664 367.099 35.7117C369.83 38.2717 372.048 41.4291 373.755 45.1837C375.462 48.9384 376.358 53.2904 376.443 58.2397C376.443 59.2637 376.059 60.1597 375.291 60.9277C374.523 61.6104 373.627 61.9517 372.603 61.9517H321.275L319.739 55.0397H370.171L368.507 56.5757V54.0157C368.08 50.0051 366.758 46.5917 364.539 43.7757C362.32 40.9597 359.632 38.8264 356.475 37.3757C353.403 35.9251 350.16 35.1997 346.747 35.1997C344.187 35.1997 341.542 35.7117 338.811 36.7357C336.166 37.7597 333.734 39.3811 331.515 41.5997C329.382 43.7331 327.632 46.5064 326.267 49.9197C324.902 53.2477 324.219 57.2157 324.219 61.8237C324.219 66.8584 325.243 71.4237 327.291 75.5197C329.339 79.6157 332.283 82.8584 336.123 85.2477C339.963 87.6371 344.614 88.8317 350.075 88.8317C352.976 88.8317 355.622 88.4051 358.011 87.5517C360.4 86.6984 362.491 85.5891 364.283 84.2237C366.16 82.7731 367.696 81.2797 368.891 79.7437C369.83 78.9757 370.726 78.5917 371.579 78.5917C372.518 78.5917 373.286 78.9331 373.883 79.6157C374.566 80.2984 374.907 81.0664 374.907 81.9197C374.907 82.9437 374.48 83.8397 373.627 84.6077C371.067 87.6797 367.739 90.3677 363.643 92.6717C359.547 94.8904 355.067 95.9997 350.203 95.9997ZM434.696 90.8797C434.696 91.9037 434.312 92.7997 433.544 93.5677C432.776 94.3357 431.88 94.7197 430.856 94.7197C429.747 94.7197 428.808 94.3357 428.04 93.5677C427.357 92.7997 427.016 91.9037 427.016 90.8797V31.9997C427.016 30.9757 427.357 30.0797 428.04 29.3117C428.808 28.5437 429.747 28.1597 430.856 28.1597C431.965 28.1597 432.861 28.5437 433.544 29.3117C434.312 30.0797 434.696 30.9757 434.696 31.9997V90.8797ZM430.856 19.5837C429.064 19.5837 427.699 19.1997 426.76 18.4317C425.907 17.5784 425.48 16.3837 425.48 14.8477V13.5677C425.48 12.0317 425.949 10.8797 426.888 10.1117C427.912 9.25839 429.277 8.83173 430.984 8.83173C432.605 8.83173 433.843 9.25839 434.696 10.1117C435.635 10.8797 436.104 12.0317 436.104 13.5677V14.8477C436.104 16.3837 435.635 17.5784 434.696 18.4317C433.843 19.1997 432.563 19.5837 430.856 19.5837ZM507.767 -0.000274658C508.876 -0.000274658 509.772 0.383725 510.455 1.15173C511.223 1.83439 511.607 2.73039 511.607 3.83972V90.8797C511.607 91.9037 511.223 92.7997 510.455 93.5677C509.687 94.3357 508.791 94.7197 507.767 94.7197C506.572 94.7197 505.634 94.3357 504.951 93.5677C504.268 92.7997 503.927 91.9037 503.927 90.8797V75.6477L506.103 73.8557C506.103 76.2451 505.463 78.7624 504.183 81.4077C502.903 83.9677 501.068 86.3571 498.679 88.5757C496.375 90.7944 493.644 92.5864 490.487 93.9517C487.415 95.3171 484.044 95.9997 480.375 95.9997C474.743 95.9997 469.623 94.5064 465.015 91.5197C460.492 88.5331 456.908 84.4797 454.263 79.3597C451.618 74.2397 450.295 68.3944 450.295 61.8237C450.295 55.3384 451.618 49.5357 454.263 44.4157C456.908 39.2104 460.492 35.1571 465.015 32.2557C469.538 29.2691 474.615 27.7757 480.247 27.7757C483.831 27.7757 487.202 28.4157 490.359 29.6957C493.516 30.9757 496.29 32.7251 498.679 34.9437C501.154 37.1624 503.074 39.7224 504.439 42.6237C505.89 45.4397 506.615 48.3837 506.615 51.4557L503.927 49.5357V3.83972C503.927 2.81572 504.268 1.91972 504.951 1.15173C505.634 0.383725 506.572 -0.000274658 507.767 -0.000274658ZM481.143 88.8317C485.666 88.8317 489.676 87.6797 493.175 85.3757C496.674 82.9864 499.404 79.7864 501.367 75.7757C503.415 71.6797 504.439 67.0291 504.439 61.8237C504.439 56.7037 503.415 52.1384 501.367 48.1277C499.404 44.0317 496.674 40.8317 493.175 38.5277C489.676 36.1384 485.666 34.9437 481.143 34.9437C476.706 34.9437 472.695 36.1384 469.111 38.5277C465.612 40.8317 462.839 44.0317 460.791 48.1277C458.828 52.1384 457.847 56.7037 457.847 61.8237C457.847 66.9437 458.828 71.5517 460.791 75.6477C462.839 79.7437 465.612 82.9864 469.111 85.3757C472.695 87.6797 476.706 88.8317 481.143 88.8317ZM560.703 95.9997C554.132 95.9997 548.33 94.5917 543.295 91.7757C538.26 88.9597 534.335 85.0344 531.519 79.9997C528.703 74.9651 527.295 69.0771 527.295 62.3357C527.295 55.0824 528.703 48.8957 531.519 43.7757C534.42 38.6557 538.132 34.7304 542.655 31.9997C547.263 29.1837 552.127 27.7757 557.247 27.7757C561.002 27.7757 564.628 28.4584 568.127 29.8237C571.711 31.1037 574.868 33.0664 577.599 35.7117C580.33 38.2717 582.548 41.4291 584.255 45.1837C585.962 48.9384 586.858 53.2904 586.943 58.2397C586.943 59.2637 586.559 60.1597 585.791 60.9277C585.023 61.6104 584.127 61.9517 583.103 61.9517H531.775L530.239 55.0397H580.671L579.007 56.5757V54.0157C578.58 50.0051 577.258 46.5917 575.039 43.7757C572.82 40.9597 570.132 38.8264 566.975 37.3757C563.903 35.9251 560.66 35.1997 557.247 35.1997C554.687 35.1997 552.042 35.7117 549.311 36.7357C546.666 37.7597 544.234 39.3811 542.015 41.5997C539.882 43.7331 538.132 46.5064 536.767 49.9197C535.402 53.2477 534.719 57.2157 534.719 61.8237C534.719 66.8584 535.743 71.4237 537.791 75.5197C539.839 79.6157 542.783 82.8584 546.623 85.2477C550.463 87.6371 555.114 88.8317 560.575 88.8317C563.476 88.8317 566.122 88.4051 568.511 87.5517C570.9 86.6984 572.991 85.5891 574.783 84.2237C576.66 82.7731 578.196 81.2797 579.391 79.7437C580.33 78.9757 581.226 78.5917 582.079 78.5917C583.018 78.5917 583.786 78.9331 584.383 79.6157C585.066 80.2984 585.407 81.0664 585.407 81.9197C585.407 82.9437 584.98 83.8397 584.127 84.6077C581.567 87.6797 578.239 90.3677 574.143 92.6717C570.047 94.8904 565.567 95.9997 560.703 95.9997ZM656.392 29.3117C657.501 29.3117 658.397 29.6957 659.08 30.4637C659.848 31.2317 660.232 32.1704 660.232 33.2797V90.8797C660.232 91.9037 659.848 92.7997 659.08 93.5677C658.312 94.3357 657.416 94.7197 656.392 94.7197C655.197 94.7197 654.259 94.3357 653.576 93.5677C652.893 92.7997 652.552 91.9037 652.552 90.8797V75.6477L654.728 74.6237C654.728 77.0131 654.045 79.4451 652.68 81.9197C651.4 84.3944 649.608 86.6984 647.304 88.8317C645 90.9651 642.269 92.7144 639.112 94.0797C636.04 95.3597 632.669 95.9997 629 95.9997C623.283 95.9997 618.12 94.5064 613.512 91.5197C608.989 88.5331 605.405 84.4371 602.76 79.2317C600.2 74.0264 598.92 68.1811 598.92 61.6957C598.92 55.0397 600.243 49.1944 602.888 44.1597C605.533 39.0397 609.117 35.0291 613.64 32.1277C618.163 29.2264 623.24 27.7757 628.872 27.7757C632.541 27.7757 635.955 28.4157 639.112 29.6957C642.355 30.9757 645.171 32.7251 647.56 34.9437C649.949 37.1624 651.827 39.7224 653.192 42.6237C654.557 45.4397 655.24 48.3837 655.24 51.4557L652.552 49.5357V33.2797C652.552 32.1704 652.893 31.2317 653.576 30.4637C654.259 29.6957 655.197 29.3117 656.392 29.3117ZM629.768 88.8317C634.291 88.8317 638.301 87.6797 641.8 85.3757C645.299 82.9864 648.029 79.7437 649.992 75.6477C652.04 71.4664 653.064 66.8157 653.064 61.6957C653.064 56.6611 652.04 52.1384 649.992 48.1277C648.029 44.1171 645.299 40.9171 641.8 38.5277C638.301 36.1384 634.291 34.9437 629.768 34.9437C625.331 34.9437 621.32 36.0957 617.736 38.3997C614.237 40.7037 611.464 43.8611 609.416 47.8717C607.453 51.8824 606.472 56.4904 606.472 61.6957C606.472 66.8157 607.453 71.4664 609.416 75.6477C611.379 79.7437 614.109 82.9864 617.608 85.3757C621.192 87.6797 625.245 88.8317 629.768 88.8317ZM676.56 84.3517C675.877 83.3277 675.536 82.3464 675.536 81.4077C675.621 80.3837 676.176 79.5731 677.2 78.9757C677.883 78.3784 678.651 78.1224 679.504 78.2077C680.443 78.2931 681.296 78.7197 682.064 79.4877C684.368 82.4744 687.141 84.9064 690.384 86.7837C693.712 88.5757 697.637 89.4717 702.16 89.4717C704.549 89.4717 706.896 89.0877 709.2 88.3197C711.589 87.4664 713.552 86.2291 715.088 84.6077C716.624 82.9011 717.392 80.7677 717.392 78.2077C717.392 75.5624 716.624 73.4291 715.088 71.8077C713.552 70.1864 711.547 68.9064 709.072 67.9677C706.683 67.0291 704.123 66.2184 701.392 65.5357C698.491 64.7677 695.675 63.9144 692.944 62.9757C690.213 61.9517 687.781 60.7144 685.648 59.2637C683.6 57.7277 681.936 55.8931 680.656 53.7597C679.376 51.6264 678.736 49.0237 678.736 45.9517C678.736 42.3677 679.717 39.2104 681.68 36.4797C683.643 33.7491 686.288 31.6157 689.616 30.0797C693.029 28.5437 696.869 27.7757 701.136 27.7757C703.269 27.7757 705.573 28.0744 708.048 28.6717C710.523 29.1837 712.955 30.0797 715.344 31.3597C717.733 32.6397 719.867 34.3891 721.744 36.6077C722.512 37.3757 722.896 38.2717 722.896 39.2957C722.896 40.2344 722.469 41.0877 721.616 41.8557C720.933 42.3677 720.123 42.6237 719.184 42.6237C718.331 42.6237 717.605 42.2824 717.008 41.5997C714.96 39.2957 712.528 37.5464 709.712 36.3517C706.896 35.1571 703.867 34.5597 700.624 34.5597C698.149 34.5597 695.803 34.9864 693.584 35.8397C691.451 36.6077 689.659 37.8024 688.208 39.4237C686.757 41.0451 686.032 43.1784 686.032 45.8237C686.203 48.2984 687.056 50.3037 688.592 51.8397C690.213 53.3757 692.304 54.6557 694.864 55.6797C697.509 56.7037 700.453 57.6424 703.696 58.4957C706.427 59.1784 709.029 59.9891 711.504 60.9277C714.064 61.8664 716.283 63.0611 718.16 64.5117C720.123 65.8771 721.659 67.6264 722.768 69.7597C723.963 71.8931 724.56 74.5811 724.56 77.8237C724.56 81.5784 723.493 84.8211 721.36 87.5517C719.312 90.2824 716.539 92.3731 713.04 93.8237C709.541 95.2744 705.659 95.9997 701.392 95.9997C696.784 95.9997 692.304 95.1037 687.952 93.3117C683.685 91.5197 679.888 88.5331 676.56 84.3517ZM38.376 187.776C44.1786 187.776 49.2986 189.226 53.736 192.128C58.2586 195.029 61.8426 199.04 64.488 204.16C67.1333 209.194 68.456 215.04 68.456 221.696C68.456 228.181 67.1333 234.026 64.488 239.232C61.8426 244.437 58.2586 248.533 53.736 251.52C49.2133 254.506 44.136 256 38.504 256C35.5173 256 32.6586 255.53 29.928 254.592C27.2826 253.653 24.8506 252.416 22.632 250.88C20.4133 249.258 18.4506 247.381 16.744 245.248C15.0373 243.114 13.672 240.81 12.648 238.336L14.952 236.672V251.136C14.952 252.245 14.568 253.184 13.8 253.952C13.1173 254.634 12.2213 254.976 11.112 254.976C10.0026 254.976 9.06397 254.634 8.29597 253.952C7.61331 253.184 7.27197 252.245 7.27197 251.136V163.968C7.27197 162.858 7.61331 161.962 8.29597 161.28C8.97864 160.512 9.91731 160.128 11.112 160.128C12.2213 160.128 13.1173 160.512 13.8 161.28C14.568 161.962 14.952 162.858 14.952 163.968V206.848L13.16 205.824C14.0133 203.178 15.2506 200.789 16.872 198.656C18.5786 196.437 20.5413 194.517 22.76 192.896C24.9786 191.274 27.4106 190.037 30.056 189.184C32.7013 188.245 35.4746 187.776 38.376 187.776ZM37.736 194.944C33.128 194.944 29.0746 196.096 25.576 198.4C22.0773 200.704 19.304 203.861 17.256 207.872C15.2933 211.882 14.312 216.49 14.312 221.696C14.312 226.816 15.2933 231.466 17.256 235.648C19.304 239.744 22.0773 242.986 25.576 245.376C29.0746 247.68 33.128 248.832 37.736 248.832C42.2586 248.832 46.2266 247.637 49.64 245.248C53.1386 242.858 55.912 239.616 57.96 235.52C60.008 231.338 61.032 226.73 61.032 221.696C61.032 216.49 60.008 211.882 57.96 207.872C55.912 203.861 53.1386 200.704 49.64 198.4C46.2266 196.096 42.2586 194.944 37.736 194.944ZM113.328 256C106.757 256 100.955 254.592 95.92 251.776C90.8853 248.96 86.96 245.034 84.144 240C81.328 234.965 79.92 229.077 79.92 222.336C79.92 215.082 81.328 208.896 84.144 203.776C87.0453 198.656 90.7573 194.73 95.28 192C99.888 189.184 104.752 187.776 109.872 187.776C113.627 187.776 117.253 188.458 120.752 189.824C124.336 191.104 127.493 193.066 130.224 195.712C132.955 198.272 135.173 201.429 136.88 205.184C138.587 208.938 139.483 213.29 139.568 218.24C139.568 219.264 139.184 220.16 138.416 220.928C137.648 221.61 136.752 221.952 135.728 221.952H84.4L82.864 215.04H133.296L131.632 216.576V214.016C131.205 210.005 129.883 206.592 127.664 203.776C125.445 200.96 122.757 198.826 119.6 197.376C116.528 195.925 113.285 195.2 109.872 195.2C107.312 195.2 104.667 195.712 101.936 196.736C99.2906 197.76 96.8586 199.381 94.64 201.6C92.5066 203.733 90.7573 206.506 89.392 209.92C88.0266 213.248 87.344 217.216 87.344 221.824C87.344 226.858 88.368 231.424 90.416 235.52C92.464 239.616 95.408 242.858 99.248 245.248C103.088 247.637 107.739 248.832 113.2 248.832C116.101 248.832 118.747 248.405 121.136 247.552C123.525 246.698 125.616 245.589 127.408 244.224C129.285 242.773 130.821 241.28 132.016 239.744C132.955 238.976 133.851 238.592 134.704 238.592C135.643 238.592 136.411 238.933 137.008 239.616C137.691 240.298 138.032 241.066 138.032 241.92C138.032 242.944 137.605 243.84 136.752 244.608C134.192 247.68 130.864 250.368 126.768 252.672C122.672 254.89 118.192 256 113.328 256ZM183.685 187.776C187.781 187.776 191.536 188.245 194.949 189.184C198.362 190.037 201.093 191.232 203.141 192.768C205.274 194.304 206.341 195.968 206.341 197.76C206.341 198.613 206 199.466 205.317 200.32C204.72 201.088 203.952 201.472 203.013 201.472C201.904 201.472 201.008 201.216 200.325 200.704C199.728 200.192 199.13 199.594 198.533 198.912C197.936 198.229 197.04 197.589 195.845 196.992C194.736 196.48 193.114 196.01 190.981 195.584C188.933 195.157 186.629 194.944 184.069 194.944C179.29 194.944 174.981 196.138 171.141 198.528C167.301 200.917 164.272 204.16 162.053 208.256C159.834 212.266 158.725 216.789 158.725 221.824C158.725 226.944 159.749 231.552 161.797 235.648C163.93 239.744 166.874 242.986 170.629 245.376C174.469 247.68 178.864 248.832 183.813 248.832C187.226 248.832 189.872 248.533 191.749 247.936C193.712 247.338 195.333 246.656 196.613 245.888C198.32 244.949 199.514 244.053 200.197 243.2C200.965 242.261 201.946 241.792 203.141 241.792C204.165 241.792 204.976 242.133 205.573 242.816C206.17 243.413 206.469 244.224 206.469 245.248C206.469 246.613 205.445 248.149 203.397 249.856C201.434 251.477 198.704 252.928 195.205 254.208C191.706 255.402 187.653 256 183.045 256C176.73 256 171.141 254.506 166.277 251.52C161.498 248.533 157.744 244.48 155.013 239.36C152.368 234.154 151.045 228.309 151.045 221.824C151.045 215.594 152.41 209.92 155.141 204.8C157.872 199.68 161.669 195.584 166.533 192.512C171.397 189.354 177.114 187.776 183.685 187.776ZM281.563 221.952C281.563 228.437 280.112 234.282 277.211 239.488C274.395 244.608 270.555 248.661 265.691 251.648C260.827 254.549 255.323 256 249.179 256C243.12 256 237.616 254.549 232.667 251.648C227.803 248.661 223.92 244.608 221.019 239.488C218.203 234.282 216.795 228.437 216.795 221.952C216.795 215.381 218.203 209.536 221.019 204.416C223.92 199.296 227.803 195.242 232.667 192.256C237.616 189.269 243.12 187.776 249.179 187.776C255.323 187.776 260.827 189.269 265.691 192.256C270.555 195.242 274.395 199.296 277.211 204.416C280.112 209.536 281.563 215.381 281.563 221.952ZM273.883 221.952C273.883 216.746 272.816 212.138 270.683 208.128C268.55 204.032 265.606 200.832 261.851 198.528C258.182 196.138 253.958 194.944 249.179 194.944C244.486 194.944 240.262 196.138 236.507 198.528C232.838 200.832 229.894 204.032 227.675 208.128C225.542 212.138 224.475 216.746 224.475 221.952C224.475 227.157 225.542 231.765 227.675 235.776C229.894 239.786 232.838 242.986 236.507 245.376C240.262 247.68 244.486 248.832 249.179 248.832C253.958 248.832 258.182 247.68 261.851 245.376C265.606 242.986 268.55 239.786 270.683 235.776C272.816 231.765 273.883 227.157 273.883 221.952ZM326.712 188.8C332.003 188.8 336.525 190.208 340.28 193.024C344.035 195.754 346.595 199.85 347.96 205.312L346.168 205.824L346.936 203.52C348.045 200.96 349.88 198.57 352.44 196.352C355.085 194.048 358.072 192.213 361.4 190.848C364.728 189.482 368.099 188.8 371.512 188.8C376.888 188.8 381.197 189.952 384.44 192.256C387.768 194.56 390.157 197.674 391.608 201.6C393.144 205.44 393.912 209.792 393.912 214.656V250.88C393.912 251.904 393.528 252.8 392.76 253.568C392.077 254.336 391.181 254.72 390.072 254.72C388.963 254.72 388.024 254.336 387.256 253.568C386.573 252.8 386.232 251.904 386.232 250.88V215.04C386.232 211.541 385.677 208.341 384.568 205.44C383.459 202.538 381.709 200.234 379.32 198.528C376.931 196.821 373.731 195.968 369.72 195.968C366.221 195.968 362.851 196.821 359.608 198.528C356.451 200.234 353.848 202.538 351.8 205.44C349.837 208.341 348.856 211.541 348.856 215.04V250.88C348.856 251.904 348.472 252.8 347.704 253.568C347.021 254.336 346.125 254.72 345.016 254.72C343.907 254.72 342.968 254.336 342.2 253.568C341.517 252.8 341.176 251.904 341.176 250.88V214.656C341.176 211.157 340.664 208 339.64 205.184C338.616 202.368 336.952 200.149 334.648 198.528C332.344 196.821 329.229 195.968 325.304 195.968C321.805 195.968 318.477 196.821 315.32 198.528C312.248 200.149 309.731 202.368 307.768 205.184C305.891 208 304.952 211.157 304.952 214.656V250.88C304.952 251.904 304.568 252.8 303.8 253.568C303.032 254.336 302.136 254.72 301.112 254.72C299.917 254.72 298.979 254.336 298.296 253.568C297.613 252.8 297.272 251.904 297.272 250.88V193.536C297.272 192.512 297.613 191.616 298.296 190.848C299.064 190.08 300.003 189.696 301.112 189.696C302.221 189.696 303.117 190.08 303.8 190.848C304.568 191.616 304.952 192.512 304.952 193.536V205.44L301.496 210.176C301.752 207.616 302.563 205.056 303.928 202.496C305.379 199.936 307.256 197.632 309.56 195.584C311.864 193.536 314.467 191.914 317.368 190.72C320.355 189.44 323.469 188.8 326.712 188.8ZM443.078 256C436.507 256 430.705 254.592 425.67 251.776C420.635 248.96 416.71 245.034 413.894 240C411.078 234.965 409.67 229.077 409.67 222.336C409.67 215.082 411.078 208.896 413.894 203.776C416.795 198.656 420.507 194.73 425.03 192C429.638 189.184 434.502 187.776 439.622 187.776C443.377 187.776 447.003 188.458 450.502 189.824C454.086 191.104 457.243 193.066 459.974 195.712C462.705 198.272 464.923 201.429 466.63 205.184C468.337 208.938 469.233 213.29 469.318 218.24C469.318 219.264 468.934 220.16 468.166 220.928C467.398 221.61 466.502 221.952 465.478 221.952H414.15L412.614 215.04H463.046L461.382 216.576V214.016C460.955 210.005 459.633 206.592 457.414 203.776C455.195 200.96 452.507 198.826 449.35 197.376C446.278 195.925 443.035 195.2 439.622 195.2C437.062 195.2 434.417 195.712 431.686 196.736C429.041 197.76 426.609 199.381 424.39 201.6C422.257 203.733 420.507 206.506 419.142 209.92C417.777 213.248 417.094 217.216 417.094 221.824C417.094 226.858 418.118 231.424 420.166 235.52C422.214 239.616 425.158 242.858 428.998 245.248C432.838 247.637 437.489 248.832 442.95 248.832C445.851 248.832 448.497 248.405 450.886 247.552C453.275 246.698 455.366 245.589 457.158 244.224C459.035 242.773 460.571 241.28 461.766 239.744C462.705 238.976 463.601 238.592 464.454 238.592C465.393 238.592 466.161 238.933 466.758 239.616C467.441 240.298 467.782 241.066 467.782 241.92C467.782 242.944 467.355 243.84 466.502 244.608C463.942 247.68 460.614 250.368 456.518 252.672C452.422 254.89 447.942 256 443.078 256ZM13.16 414.72C10.9413 414.72 9.10664 413.994 7.65597 412.544C6.20531 411.008 5.47997 409.13 5.47997 406.912V354.048C5.47997 351.829 6.20531 349.994 7.65597 348.544C9.10664 347.008 10.9413 346.24 13.16 346.24C15.3786 346.24 17.2133 347.008 18.664 348.544C20.1146 349.994 20.84 351.829 20.84 354.048V366.08L19.944 357.504C20.8826 355.456 22.0773 353.664 23.528 352.128C25.064 350.506 26.7706 349.184 28.648 348.16C30.5253 347.05 32.5306 346.24 34.664 345.728C36.7973 345.216 38.9306 344.96 41.064 344.96C43.624 344.96 45.7573 345.685 47.464 347.136C49.256 348.586 50.152 350.293 50.152 352.256C50.152 355.072 49.4266 357.12 47.976 358.4C46.5253 359.594 44.9466 360.192 43.24 360.192C41.6186 360.192 40.1253 359.893 38.76 359.296C37.48 358.698 35.9866 358.4 34.28 358.4C32.744 358.4 31.1653 358.784 29.544 359.552C28.008 360.234 26.5573 361.344 25.192 362.88C23.912 364.416 22.8453 366.336 21.992 368.64C21.224 370.858 20.84 373.504 20.84 376.576V406.912C20.84 409.13 20.1146 411.008 18.664 412.544C17.2133 413.994 15.3786 414.72 13.16 414.72ZM89.721 416C82.4676 416 76.153 414.506 70.777 411.52C65.4863 408.448 61.3903 404.309 58.489 399.104C55.673 393.898 54.265 388.01 54.265 381.44C54.265 373.76 55.801 367.232 58.873 361.856C62.0303 356.394 66.1263 352.213 71.161 349.312C76.1956 346.41 81.529 344.96 87.161 344.96C91.513 344.96 95.609 345.856 99.449 347.648C103.374 349.44 106.83 351.914 109.817 355.072C112.804 358.144 115.15 361.728 116.857 365.824C118.649 369.92 119.545 374.272 119.545 378.88C119.46 380.928 118.649 382.592 117.113 383.872C115.577 385.152 113.785 385.792 111.737 385.792H62.841L59.001 372.992H105.977L103.161 375.552V372.096C102.99 369.621 102.094 367.402 100.473 365.44C98.937 363.477 96.9743 361.941 94.585 360.832C92.281 359.637 89.8063 359.04 87.161 359.04C84.601 359.04 82.2116 359.381 79.993 360.064C77.7743 360.746 75.8543 361.898 74.233 363.52C72.6116 365.141 71.3316 367.317 70.393 370.048C69.4543 372.778 68.985 376.234 68.985 380.416C68.985 385.024 69.9236 388.949 71.801 392.192C73.7636 395.349 76.2383 397.781 79.225 399.488C82.297 401.109 85.5396 401.92 88.953 401.92C92.1103 401.92 94.6276 401.664 96.505 401.152C98.3823 400.64 99.8756 400.042 100.985 399.36C102.18 398.592 103.246 397.952 104.185 397.44C105.721 396.672 107.172 396.288 108.537 396.288C110.414 396.288 111.95 396.928 113.145 398.208C114.425 399.488 115.065 400.981 115.065 402.688C115.065 404.992 113.87 407.082 111.481 408.96C109.262 410.837 106.148 412.501 102.137 413.952C98.1263 415.317 93.9876 416 89.721 416ZM188.279 344.96C190.498 344.96 192.332 345.685 193.783 347.136C195.234 348.586 195.959 350.464 195.959 352.768V406.912C195.959 409.13 195.234 411.008 193.783 412.544C192.332 413.994 190.498 414.72 188.279 414.72C186.06 414.72 184.226 413.994 182.775 412.544C181.324 411.008 180.599 409.13 180.599 406.912V400.64L183.415 401.792C183.415 402.901 182.818 404.266 181.623 405.888C180.428 407.424 178.807 408.96 176.759 410.496C174.711 412.032 172.279 413.354 169.463 414.464C166.732 415.488 163.746 416 160.503 416C154.615 416 149.282 414.506 144.503 411.52C139.724 408.448 135.927 404.266 133.111 398.976C130.38 393.6 129.015 387.456 129.015 380.544C129.015 373.546 130.38 367.402 133.111 362.112C135.927 356.736 139.682 352.554 144.375 349.568C149.068 346.496 154.274 344.96 159.991 344.96C163.66 344.96 167.031 345.514 170.103 346.624C173.175 347.733 175.82 349.141 178.039 350.848C180.343 352.554 182.092 354.304 183.287 356.096C184.567 357.802 185.207 359.253 185.207 360.448L180.599 362.112V352.768C180.599 350.549 181.324 348.714 182.775 347.264C184.226 345.728 186.06 344.96 188.279 344.96ZM162.423 401.92C166.178 401.92 169.463 400.981 172.279 399.104C175.095 397.226 177.271 394.666 178.807 391.424C180.428 388.181 181.239 384.554 181.239 380.544C181.239 376.448 180.428 372.778 178.807 369.536C177.271 366.293 175.095 363.733 172.279 361.856C169.463 359.978 166.178 359.04 162.423 359.04C158.754 359.04 155.511 359.978 152.695 361.856C149.879 363.733 147.66 366.293 146.039 369.536C144.503 372.778 143.735 376.448 143.735 380.544C143.735 384.554 144.503 388.181 146.039 391.424C147.66 394.666 149.879 397.226 152.695 399.104C155.511 400.981 158.754 401.92 162.423 401.92ZM229.245 406.912C229.245 409.13 228.477 411.008 226.941 412.544C225.49 413.994 223.656 414.72 221.437 414.72C219.304 414.72 217.512 413.994 216.061 412.544C214.61 411.008 213.885 409.13 213.885 406.912V327.808C213.885 325.589 214.61 323.754 216.061 322.304C217.597 320.768 219.474 320 221.693 320C223.912 320 225.704 320.768 227.069 322.304C228.52 323.754 229.245 325.589 229.245 327.808V406.912ZM261.569 406.912C261.569 409.13 260.844 411.008 259.393 412.544C257.942 413.994 256.108 414.72 253.889 414.72C251.67 414.72 249.836 413.994 248.385 412.544C246.934 411.008 246.209 409.13 246.209 406.912V354.048C246.209 351.829 246.934 349.994 248.385 348.544C249.836 347.008 251.67 346.24 253.889 346.24C256.108 346.24 257.942 347.008 259.393 348.544C260.844 349.994 261.569 351.829 261.569 354.048V406.912ZM253.761 337.92C250.86 337.92 248.812 337.45 247.617 336.512C246.422 335.573 245.825 333.909 245.825 331.52V329.088C245.825 326.613 246.465 324.949 247.745 324.096C249.11 323.157 251.158 322.688 253.889 322.688C256.876 322.688 258.966 323.157 260.161 324.096C261.356 325.034 261.953 326.698 261.953 329.088V331.52C261.953 333.994 261.313 335.701 260.033 336.64C258.753 337.493 256.662 337.92 253.761 337.92ZM278.123 347.52H308.459C310.507 347.52 312.214 348.202 313.579 349.568C314.944 350.933 315.627 352.64 315.627 354.688C315.627 356.65 314.944 358.314 313.579 359.68C312.214 360.96 310.507 361.6 308.459 361.6H278.123C276.075 361.6 274.368 360.917 273.003 359.552C271.638 358.186 270.955 356.48 270.955 354.432C270.955 352.469 271.638 350.848 273.003 349.568C274.368 348.202 276.075 347.52 278.123 347.52ZM291.819 331.52C294.038 331.52 295.83 332.288 297.195 333.824C298.646 335.274 299.371 337.109 299.371 339.328V396.288C299.371 397.482 299.584 398.464 300.011 399.232C300.523 400 301.163 400.554 301.931 400.896C302.784 401.237 303.68 401.408 304.619 401.408C305.643 401.408 306.582 401.237 307.435 400.896C308.288 400.469 309.27 400.256 310.379 400.256C311.574 400.256 312.64 400.81 313.579 401.92C314.603 403.029 315.115 404.565 315.115 406.528C315.115 408.917 313.792 410.88 311.147 412.416C308.587 413.952 305.814 414.72 302.827 414.72C301.035 414.72 299.03 414.592 296.811 414.336C294.678 413.994 292.63 413.269 290.667 412.16C288.79 410.965 287.211 409.173 285.931 406.784C284.651 404.394 284.011 401.109 284.011 396.928V339.328C284.011 337.109 284.736 335.274 286.187 333.824C287.723 332.288 289.6 331.52 291.819 331.52ZM380.546 346.24C382.765 346.24 384.599 347.008 386.05 348.544C387.501 349.994 388.226 351.829 388.226 354.048V408.448C388.226 416.298 386.733 422.528 383.746 427.136C380.845 431.829 376.919 435.2 371.97 437.248C367.021 439.296 361.474 440.32 355.33 440.32C352.599 440.32 349.698 440.106 346.626 439.68C343.554 439.253 341.037 438.613 339.074 437.76C336.514 436.65 334.722 435.242 333.698 433.536C332.759 431.914 332.589 430.165 333.186 428.288C333.954 425.813 335.191 424.106 336.898 423.168C338.605 422.314 340.397 422.229 342.274 422.912C343.639 423.338 345.431 423.978 347.65 424.832C349.869 425.77 352.429 426.24 355.33 426.24C359.255 426.24 362.498 425.685 365.058 424.576C367.703 423.552 369.666 421.76 370.946 419.2C372.311 416.725 372.994 413.312 372.994 408.96V400.384L375.682 403.456C374.231 406.272 372.397 408.618 370.178 410.496C368.045 412.288 365.485 413.653 362.498 414.592C359.511 415.53 356.098 416 352.258 416C347.735 416 343.767 414.976 340.354 412.928C337.026 410.794 334.423 407.893 332.546 404.224C330.669 400.469 329.73 396.202 329.73 391.424V354.048C329.73 351.829 330.455 349.994 331.906 348.544C333.357 347.008 335.191 346.24 337.41 346.24C339.629 346.24 341.463 347.008 342.914 348.544C344.365 349.994 345.09 351.829 345.09 354.048V386.816C345.09 392.362 346.285 396.288 348.674 398.592C351.149 400.81 354.562 401.92 358.914 401.92C361.901 401.92 364.418 401.365 366.466 400.256C368.514 399.061 370.093 397.354 371.202 395.136C372.311 392.832 372.866 390.058 372.866 386.816V354.048C372.866 351.829 373.591 349.994 375.042 348.544C376.493 347.008 378.327 346.24 380.546 346.24Z" fill="#F9F4EA"/>
</g>
<defs>
<filter id="filter0_d_216_36" x="0" y="0" width="725.56" height="442.319" filterUnits="userSpaceOnUse" color-interpolation-filters="sRGB">
<feFlood flood-opacity="0" result="BackgroundImageFix"/>
<feColorMatrix in="SourceAlpha" type="matrix" values="0 0 0 0 0 0 0 0 0 0 0 0 0 0 0 0 0 0 127 0" result="hardAlpha"/>
<feOffset dy="1"/>
<feGaussianBlur stdDeviation="0.5"/>
<feComposite in2="hardAlpha" operator="out"/>
<feColorMatrix type="matrix" values="0 0 0 0 0 0 0 0 0 0 0 0 0 0 0 0 0 0 1 0"/>
<feBlend mode="normal" in2="BackgroundImageFix" result="effect1_dropShadow_216_36"/>
<feBlend mode="normal" in="SourceGraphic" in2="effect1_dropShadow_216_36" result="shape"/>
</filter>
</defs>
</svg>
